<?xml version="1.0" encoding="UTF-8"?>
<svg id="Layer_1" data-name="Layer 1" xmlns="http://www.w3.org/2000/svg" viewBox="0 0 32 32">
  <defs>
    <style>
      .cls-1 {
        fill: #fff;
      }

      .cls-2 {
        fill: #22205f;
      }
    </style>
  </defs>
  <path class="cls-2" d="M27.59,22.61v-1.66l.05-.05h.79l.05.05v2.95l-.05.05h-.79l-.08-.05c-.39-.53-.72-1.12-1.16-1.62v1.63l-.05.05h-.79l-.05-.05v-2.95l.05-.05h.82l1.2,1.7Z"/>
  <path class="cls-2" d="M11.76,20.91c.28.03.58.12.73.37.23.39.17.81-.15,1.12l-.44.22c.06,0,.12.03.17.06.24.17.59.84.73,1.13.02.05.05.09.05.15h-.99c-.26-.22-.48-1.1-.78-1.22-.08-.03-.15-.02-.24-.02v1.2l-.05.05h-.85l-.05-.05v-2.95l.05-.05c.59.04,1.24-.05,1.83,0ZM11.45,21.51c-.19-.03-.43.02-.62,0v.61h.5s.18-.05.21-.06c.23-.12.19-.5-.09-.54Z"/>
  <polygon class="cls-2" points="14.11 21.54 14.11 22.03 15.56 22.03 15.6 22.08 15.6 22.64 14.11 22.64 14.11 23.25 15.76 23.25 15.76 23.95 13.22 23.95 13.17 23.9 13.17 20.95 13.22 20.91 15.68 20.91 15.73 20.95 15.73 21.5 15.68 21.54 14.11 21.54"/>
  <polygon class="cls-2" points="1.31 21.54 1.31 22.03 2.75 22.03 2.8 22.08 2.8 22.59 2.75 22.64 1.31 22.64 1.31 23.25 2.9 23.25 2.95 23.29 2.95 23.9 2.9 23.95 .41 23.95 .37 23.9 .37 20.95 .41 20.91 2.87 20.91 2.92 20.95 2.92 21.5 2.87 21.54 1.31 21.54"/>
  <path class="cls-2" d="M18.51,21.16c.12.13.2.39.25.55-.02.1-.69.07-.83.1-.09-.07-.08-.18-.16-.27-.24-.29-.88-.07-.66.23.13.18,1.17.19,1.54.65.44.56.1,1.26-.52,1.48-.64.22-1.63.14-1.93-.55-.03-.07-.14-.36-.09-.4.14-.09.61-.02.8-.07.06.02.09.35.3.46.24.12.7.07.69-.26,0-.22-.14-.28-.33-.34-.5-.16-1.24-.2-1.36-.86-.21-1.12,1.74-1.31,2.29-.72h0Z"/>
  <path class="cls-2" d="M21,21.78s-.04-.13-.07-.19c-.19-.31-.87-.2-.71.16.06.13.51.18.66.22.56.16,1.19.39,1.07,1.12-.13.87-1.12,1.01-1.84.87-.48-.1-.81-.44-.9-.93-.02-.11.16-.11.25-.12.19-.02.38,0,.57-.03l.04.03c.04.08.04.18.08.25.19.36.94.33.87-.14-.04-.3-.58-.32-.82-.4-.59-.18-1.14-.62-.77-1.28.32-.57,1.41-.6,1.94-.35.3.14.4.42.49.72-.02.1-.5.08-.59.08-.08,0-.21.07-.28,0Z"/>
  <path class="cls-2" d="M4.18,20.91s.06.03.08.05c.17.22.31.56.47.8l.09.06.55-.91h.96l-.91,1.48,1,1.57h-.99c-.08,0-.35-.55-.42-.65-.07-.11-.15-.22-.22-.33l-.64.97h-.96l.02-.12.96-1.45-.91-1.47h.93s0,0,0,0Z"/>
  <path class="cls-2" d="M30.12,21.71c-.28.31-.29,1.28.08,1.52.42.28.85-.07.93-.5l.77.22c-.02.43-.35.84-.76.98-.59.2-1.41.08-1.82-.42-.46-.57-.46-1.74.07-2.27.51-.5,1.73-.55,2.22,0,.07.08.31.47.25.55-.02.03-.71.16-.76.15-.08-.09-.12-.23-.22-.3-.2-.16-.6-.11-.77.07h0Z"/>
  <path class="cls-2" d="M7.73,22.79v1.11l-.05.05h-.85l-.05-.05v-3h1.75s.28.06.34.09c.58.23.64,1.14.22,1.54-.09.08-.48.26-.59.26h-.78ZM7.73,22.18c.27,0,.69.05.7-.32,0-.15-.1-.35-.26-.35h-.44v.67Z"/>
  <rect class="cls-2" x="23.88" y="20.91" width=".94" height="3.04"/>
  <path class="cls-2" d="M15.88,21.79c.06,0,.05,0,.07.04.06.13.04.27.13.42.08.13.25.27.35.39-.08-.04-.55.08-.55-.01v-.84Z"/>
  <path class="cls-2" d="M15.79,22.91v.06h-.65s-.05-.04-.05-.06h.7Z"/>
  <g>
    <path class="cls-2" d="M16.21,5.82s.04.08.08.12c1.76,2.04,3.49,4.1,5.24,6.14h10.47v.07l-1.63,2.07h-7.01c.14.3.42.44.33.82h6.08c0,.05-.02.08-.05.12-.32.5-.81.95-1.13,1.46l-.1.06-6.21.02-.49.62h6.14s-.02.08-.05.12c-.23.34-.61.78-.88,1.1-.05.06-.01.12-.13.14h-6.28s-1.91,2.18-1.91,2.18h-.04c-.23-.14-.49-.26-.77-.29-.62-.06-1.36-.03-1.76.52l-.17.33v-.82h-2.87c-.63-.58-1.1-1.31-1.71-1.91h-6.26c-.08-.02-.18-.18-.24-.25-.19-.23-.35-.48-.54-.71-.1-.13-.27-.25-.3-.41h6.14l-.49-.62-6.21-.02-.1-.06c-.25-.35-.51-.69-.77-1.03-.14-.18-.33-.35-.41-.55h6.08c-.08-.39.19-.54.37-.82H1.69s-.16-.13-.2-.17c-.4-.43-.8-1.06-1.17-1.53-.1-.13-.21-.25-.32-.37v-.03l.17-.03h10.31s5.31-6.27,5.31-6.27h.43ZM14.66,12.11c-.06.04-.33-.18-.4-.22-2.72-1.45-4.67,2.27-3.4,4.53,1.04,1.86,3.89,1.95,4.49-.3.03-.12.08-.31.08-.43,0-.09-.2-.03-.26-.05-.2,1.05-.86,1.95-2.04,1.85-1.63-.14-1.76-2.23-1.63-3.48.09-.82.38-1.84,1.28-2.06,1.07-.26,1.68.55,2.02,1.43.04.1.15.52.17.56.05.06.24.02.32.03l-.12-2.37c-.33-.09-.4.28-.52.51h0ZM19.15,11.72h-3.42v.3h.71c.11,0,.24.18.23.29v4.72c.03.12-.16.32-.26.32h-.68v.3h2.74v-.3h-.68c-.06,0-.26-.17-.26-.23v-2.34l.05-.05h.67c.14,0,.49.16.6.25.76.58.06,2.64,1.31,2.76.85.09,1.12-.65,1.14-1.37h-.24c.01.57-.41,1.28-.76.41-.24-.6-.18-1.5-.79-1.88-.21-.13-.44-.15-.64-.28.97-.08,1.86-.5,1.76-1.61-.07-.77-.75-1.23-1.47-1.29Z"/>
    <path class="cls-1" d="M19.15,11.72c.73.07,1.41.52,1.47,1.29.09,1.11-.8,1.53-1.76,1.61.2.13.43.15.64.28.62.38.55,1.28.79,1.88.35.86.78.16.76-.41h.24c-.02.72-.29,1.45-1.14,1.37-1.25-.13-.55-2.18-1.31-2.76-.12-.09-.46-.25-.6-.25h-.67l-.05.05v2.34c0,.06.2.23.26.23h.68v.3h-2.74v-.3h.68c.1,0,.29-.2.26-.32v-4.72c.01-.11-.12-.29-.23-.29h-.71v-.3h3.42ZM17.52,12.25v2.13l.05.05h.91c.23,0,.76-.18.93-.35.46-.45.41-1.67-.22-1.95-.27-.12-.95-.13-1.26-.11-.16.01-.38.03-.41.22h0Z"/>
    <path class="cls-1" d="M14.66,12.11c.12-.23.19-.6.52-.51l.12,2.37c-.08-.01-.27.03-.32-.03-.03-.03-.14-.46-.17-.56-.34-.88-.96-1.69-2.02-1.43-.9.22-1.2,1.24-1.28,2.06-.13,1.25,0,3.34,1.63,3.48,1.18.1,1.84-.8,2.04-1.85.05.02.26-.05.26.05,0,.12-.05.31-.08.43-.6,2.25-3.44,2.16-4.49.3-1.27-2.26.68-5.97,3.4-4.53.07.04.35.26.4.22h0Z"/>
    <path class="cls-2" d="M17.52,12.25c.03-.19.26-.21.41-.22.3-.03.99-.02,1.26.11.62.28.68,1.5.22,1.95-.17.16-.7.35-.93.35h-.91l-.05-.05v-2.13h0Z"/>
  </g>
</svg>