<?xml version="1.0" encoding="UTF-8"?>
<svg id="Layer_1" data-name="Layer 1" xmlns="http://www.w3.org/2000/svg" viewBox="0 0 1052 614">
  <defs>
    <style>
      .cls-1 {
        fill: #fff;
      }
    </style>
  </defs>
  <path class="cls-1" d="M907,552v-54.5l1.5-1.5h26l1.5,1.5v97l-1.5,1.5h-26l-2.52-1.77c-12.87-17.53-23.55-36.95-37.98-53.23v53.5l-1.5,1.5h-26l-1.5-1.5v-97l1.5-1.5h27l39.5,56Z"/>
  <path class="cls-1" d="M386.5,496c9.1.84,19.01,3.92,23.92,12.08,7.68,12.78,5.51,26.55-5.07,36.77l-14.34,7.14c1.97.28,3.82.9,5.47,2.03,8.03,5.54,19.25,27.62,23.9,37.1.76,1.54,1.64,3.1,1.62,4.88h-32.5c-8.67-7.39-15.83-36.24-25.75-40.24-2.6-1.05-5.05-.82-7.75-.76v39.5l-1.5,1.5h-28l-1.5-1.5v-97l1.5-1.5c19.35,1.31,40.92-1.75,60,0ZM376.5,516c-6.12-.92-14.14.67-20.5,0v20h16.5c.58,0,6.02-1.66,6.88-2.12,7.41-3.9,6.26-16.51-2.88-17.88Z"/>
  <polygon class="cls-1" points="464 517 464 533 511.5 533 513 534.5 513 553 464 553 464 573 518 573 518 596 434.5 596 433 594.5 433 497.5 434.5 496 515.5 496 517 497.5 517 515.5 515.5 517 464 517"/>
  <polygon class="cls-1" points="43 517 43 533 90.5 533 92 534.5 92 551.5 90.5 553 43 553 43 573 95.5 573 97 574.5 97 594.5 95.5 596 13.5 596 12 594.5 12 497.5 13.5 496 94.5 496 96 497.5 96 515.5 94.5 517 43 517"/>
  <path class="cls-1" d="M608.65,504.35c3.92,4.21,6.46,12.75,8.16,18.19-.65,3.45-22.81,2.24-27.14,3.32-2.86-2.26-2.57-5.76-5.14-8.89-7.78-9.48-28.82-2.35-21.6,7.61,4.39,6.06,38.48,6.38,50.48,21.51,14.52,18.3,3.18,41.57-17.14,48.69-20.89,7.32-53.52,4.68-63.45-18.1-.94-2.16-4.75-11.89-2.84-13.17,4.55-3.06,20.13-.66,26.37-2.39,2.12.73,3.12,11.57,9.94,15.08,7.97,4.1,23.13,2.31,22.79-8.71-.22-7.07-4.7-9.22-10.86-11.22-16.32-5.28-40.78-6.63-44.77-28.23-6.81-36.84,57.28-42.95,75.2-23.7Z"/>
  <path class="cls-1" d="M690.23,524.76c-.94-.95-1.33-4.38-2.38-6.12-6.19-10.32-28.69-6.47-23.33,5.34,1.95,4.31,16.87,5.89,21.7,7.3,18.44,5.41,39.05,12.84,35.33,36.77-4.42,28.45-36.89,33.31-60.6,28.5-15.91-3.23-26.56-14.57-29.54-30.52-.68-3.63,5.33-3.76,8.11-4.01,6.2-.55,12.63.12,18.84-.9l1.16.87c1.25,2.5,1.45,5.89,2.72,8.28,6.2,11.73,30.83,10.91,28.7-4.7-1.35-9.91-19.07-10.59-26.95-13.06-19.29-6.03-37.36-20.27-25.17-42.19,10.41-18.72,46.49-19.76,63.86-11.5,9.87,4.69,13.27,13.7,16.26,23.61-.72,3.31-16.29,2.52-19.43,2.57-2.63.04-6.75,2.32-9.28-.24Z"/>
  <path class="cls-1" d="M137.5,496c.71.12,2.03,1.08,2.54,1.74,5.51,7.08,10.26,18.55,15.52,26.21l2.93,2.07,18.01-30.01h31.5l-29.96,48.51,32.96,51.49h-32.5c-2.69,0-11.6-17.94-13.69-21.31-2.29-3.67-4.97-7.1-7.31-10.7l-21,32.01h-31.5l.55-3.95,31.47-47.6-30.01-48.44h30.5Z"/>
  <path class="cls-1" d="M990.35,522.35c-9.29,10.03-9.62,42.09,2.7,50.11,13.92,9.06,27.88-2.39,30.59-16.52l25.24,7.18c-.73,14.25-11.42,27.6-25.1,32.17-19.42,6.48-46.46,2.7-59.76-13.8-15.08-18.71-15.11-57.28,2.43-74.52,16.79-16.51,56.93-18.22,72.97.12,2.2,2.52,10.05,15.43,8.16,18-.76,1.02-23.46,5.35-24.95,4.82-2.48-2.88-4.05-7.48-7.11-9.92-6.44-5.13-19.68-3.56-25.18,2.37Z"/>
  <path class="cls-1" d="M254,558v36.5l-1.5,1.5h-28l-1.5-1.5v-98.5h57.5c1.5,0,9.35,2.08,11.2,2.8,19.08,7.44,21.08,37.57,7.34,50.74-2.9,2.78-15.71,8.46-19.54,8.46h-25.5ZM254,538c8.72.19,22.67,1.66,23.09-10.49.17-4.97-3.28-11.51-8.59-11.51h-14.5v22Z"/>
  <rect class="cls-1" x="785" y="496" width="31" height="100"/>
  <path class="cls-1" d="M522,525c2.04-.26,1.64-.19,2.25,1.25,1.84,4.35,1.22,8.95,4.11,13.89,2.59,4.43,8.32,8.81,11.64,12.85-2.51-1.2-18,2.71-18-.49v-27.5Z"/>
  <path class="cls-1" d="M519,562v2h-21.5c-.17,0-1.58-1.35-1.5-2h23Z"/>
  <g>
    <path class="cls-1" d="M533,0c.54,1.53,1.42,2.79,2.47,4.02,57.72,67,114.65,134.7,172.19,201.82l344.34.16v2l-53.5,68h-230.5c4.5,9.79,13.82,14.55,11,27h200c.28,1.65-.79,2.68-1.59,3.92-10.55,16.28-26.6,31.25-36.99,48.01l-3.14,1.86-204.28.72-16,20.5h202c.26,1.63-.77,2.7-1.58,3.92-7.46,11.21-19.98,25.57-28.89,36.14-1.71,2.02-.48,3.96-4.23,4.7l-206.6.45-62.73,71.36-1.29.3c-7.55-5.02-16.16-8.88-25.31-9.74-20.38-1.92-44.66-.84-57.78,16.96l-5.59,10.91v-27h-94.5c-20.63-19.04-36.11-43.17-56.21-62.79l-205.77-.23c-2.62-.49-6.02-5.72-7.94-8.06-6.16-7.48-11.63-15.75-17.61-23.39-3.28-4.19-8.72-8.32-9.98-13.52h202l-16-20.5-204.28-.72-3.14-1.86c-8.24-11.37-16.63-22.69-25.17-33.83-4.44-5.79-10.74-11.5-13.4-18.1h200c-2.71-12.7,6.21-17.69,12-27H55.5c-1.25,0-5.34-4.32-6.47-5.53-13.18-14.24-26.28-34.73-38.62-50.38-3.29-4.18-6.91-8.1-10.41-12.09v-1l5.45-1.04,338.84-.17L519,0h14ZM481.92,206.93c-1.82,1.29-10.91-5.86-13.25-7.1-89.55-47.51-153.52,74.63-111.84,148.84,34.32,61.11,127.79,64.22,147.45-9.89,1.05-3.97,2.47-10.31,2.73-14.29.2-3.08-6.69-.83-8.4-1.55-6.55,34.59-28.24,64.18-66.98,60.93-53.69-4.5-57.9-73.38-53.62-114.37,2.8-26.88,12.54-60.46,42.21-67.79,35.1-8.67,55.25,18.03,66.53,47.04,1.26,3.25,4.79,17.14,5.74,18.26,1.7,2.04,7.79.57,10.52.99l-4-78.01c-10.89-2.8-13.05,9.35-17.09,16.93ZM629.5,194h-112.5v10h23.5c3.59,0,7.9,5.8,7.5,9.5l.05,155.05c1,3.88-5.37,10.45-8.55,10.45h-22.5v10h90v-10h-22.5c-2.08,0-8.5-5.63-8.5-7.5v-77l1.5-1.5h22c4.55,0,15.99,5.25,19.82,8.18,25.07,19.16,1.96,86.65,43.19,90.81,28.01,2.82,36.89-21.29,37.49-44.99h-8c.48,18.85-13.62,41.93-25.03,13.53-7.95-19.8-5.82-49.36-26.06-61.94-6.83-4.24-14.34-4.79-20.91-9.09,31.79-2.56,61.1-16.33,57.98-52.98-2.15-25.33-24.56-40.3-48.48-42.52Z"/>
    <path d="M629.5,194c23.93,2.21,46.33,17.19,48.48,42.52,3.12,36.65-26.19,50.42-57.98,52.98,6.57,4.29,14.08,4.84,20.91,9.09,20.24,12.58,18.11,42.14,26.06,61.94,11.41,28.41,25.52,5.32,25.03-13.51h8c-.6,23.69-9.49,47.8-37.49,44.98-41.24-4.16-18.12-71.65-43.19-90.81-3.83-2.93-15.27-8.18-19.82-8.18h-22l-1.5,1.5v77c0,1.87,6.42,7.5,8.5,7.5h22.5v10h-90v-10h22.5c3.18,0,9.54-6.57,8.55-10.45l-.05-155.05c.4-3.7-3.91-9.5-7.5-9.5h-23.5v-10h112.5ZM576,211.5v70l1.5,1.5h30c7.58,0,24.97-6.08,30.54-11.46,15.21-14.67,13.36-54.74-7.14-63.95-8.85-3.98-31.33-4.39-41.28-3.47-5.15.48-12.54,1.14-13.63,7.37Z"/>
    <path d="M481.92,206.93c4.03-7.58,6.2-19.73,17.09-16.93l4,78.01c-2.73-.42-8.82,1.05-10.52-.99-.94-1.13-4.47-15.01-5.74-18.26-11.28-29.01-31.43-55.7-66.53-47.04-29.67,7.33-39.41,40.91-42.21,67.79-4.27,40.99-.07,109.87,53.62,114.37,38.75,3.25,60.43-26.34,66.98-60.93,1.71.73,8.6-1.53,8.4,1.55-.26,3.99-1.67,10.32-2.73,14.29-19.66,74.11-113.13,71-147.45,9.89-41.68-74.22,22.29-196.36,111.84-148.84,2.34,1.24,11.43,8.39,13.25,7.1Z"/>
    <path class="cls-1" d="M576,211.5c1.09-6.23,8.48-6.89,13.63-7.37,9.95-.93,32.43-.51,41.28,3.47,20.5,9.21,22.35,49.28,7.14,63.95-5.57,5.37-22.97,11.46-30.54,11.46h-30l-1.5-1.5v-70Z"/>
  </g>
</svg>