<?xml version="1.0" encoding="UTF-8"?>
<svg id="Ebene_1" data-name="Ebene 1" xmlns="http://www.w3.org/2000/svg" viewBox="0 0 566.93 175.16">
  <defs>
    <style>
      .cls-1 {
        fill-rule: evenodd;
      }

      .cls-1, .cls-2 {
        fill: #fff;
      }
    </style>
  </defs>
  <path class="cls-2" d="M99.7,22.47l-18.11,24.61h98.72c4.99,0,4.92,1.9,2.49,5.2-2.48,3.35-6.62,9.19-9.15,12.59-1.28,1.73-3.6,4.88,4.07,4.88h40.37s6.51-8.85,11.96-16.26c7.42-10.07.64-31.02-25.88-31.02-23.74,0-104.47,0-104.47,0h0Z"/>
  <path class="cls-2" d="M74.26,102.64l36.38-49.43s40.33,0,45.15,0,4.92,1.9,2.49,5.2c-2.48,3.35-6.69,9.13-9.21,12.53-1.28,1.73-3.6,4.88,4.07,4.88,8.11,0,60.48,0,60.48,0-5.03,6.89-21.35,26.82-50.64,26.82-23.75,0-88.72,0-88.72,0h0Z"/>
  <path class="cls-2" d="M282.61,75.82l-19.73,26.82h-52.04s19.72-26.82,19.74-26.82h52.04Z"/>
  <polygon class="cls-2" points="362.34 69.75 235.05 69.75 269.86 22.47 321.88 22.47 301.93 49.58 325.15 49.58 345.11 22.47 397.14 22.47 362.34 69.75"/>
  <path class="cls-2" d="M357.87,75.82l-19.74,26.82h-52.02s19.72-26.82,19.73-26.82h52.03Z"/>
  <polygon class="cls-2" points="0 86.4 76.67 86.4 72.48 92.09 0 92.09 0 86.4"/>
  <polygon class="cls-2" points="0 75.82 84.46 75.82 80.26 81.51 0 81.51 0 75.82"/>
  <polygon class="cls-2" points="0 96.98 68.88 96.98 64.71 102.64 0 102.64 0 96.98"/>
  <polygon class="cls-2" points="566.93 92.09 490.56 92.09 494.75 86.4 566.93 86.4 566.93 92.09"/>
  <polygon class="cls-2" points="566.93 102.64 482.79 102.65 486.96 96.98 566.93 96.98 566.93 102.64"/>
  <polygon class="cls-2" points="502.53 75.82 566.93 75.82 566.93 81.51 498.34 81.52 502.53 75.82"/>
  <path class="cls-2" d="M469.19,22.47l-34.8,47.28h-55.13s34.81-47.28,34.83-47.28h55.1Z"/>
  <path class="cls-2" d="M374.79,75.82s-3.8,5.2-5.65,7.69c-6.54,8.83-.76,19.12,20.57,19.12h83.55l19.73-26.82h-118.21Z"/>
  <polygon class="cls-2" points="0 145.37 566.91 145.37 566.91 148.21 0 148.21 0 145.37"/>
  <polygon class="cls-2" points="0 158.6 566.91 158.6 566.91 161.44 0 161.44 0 158.6"/>
  <polygon class="cls-2" points="0 171.82 566.91 171.82 566.91 174.65 0 174.65 0 171.82"/>
  <path class="cls-2" d="M85.15,146.34c-1.86-.84-3.32-1.47-7.68-1.47-9.1,0-20.17,6-26.79,15.02-6.84,9.31-4.93,15.27,4.51,15.27,4.66,0,8.03-.76,10.05-1.3l11.18-15.23h-10.55l-2.53,3.44h6.28l-6.53,8.9c-1.22.21-2.21.5-5.15.5-6.19,0-7.88-4.57-2.83-11.45,4.81-6.54,12.98-11.45,19.85-11.45,3.84,0,5.62.67,6.72,2.01l3.45-4.24h0Z"/>
  <polygon class="cls-2" points="72.77 174.65 89.51 174.65 92.22 170.96 79.75 170.96 98.54 145.37 94.27 145.37 72.77 174.65"/>
  <path class="cls-1" d="M105.5,160.01c4.37-5.96,11.69-11.49,18.23-11.45,6.61-.04,5.79,5.5,1.42,11.45-4.28,5.83-11.36,11.45-18.23,11.45s-5.7-5.62-1.42-11.45h0ZM100.97,160.01c-6.53,8.9-5.86,15.15,3.23,15.15s18.94-6.25,25.47-15.15c6.38-8.68,5.82-15.15-3.23-15.15s-19.1,6.46-25.47,15.15h0Z"/>
  <path class="cls-1" d="M125.32,174.65h7.95c6.07,0,12.47-1.51,17.09-7.8,3.02-4.11,2.07-6.71-1.75-7.05l.06-.08c4.44-.92,8.31-2.94,11.26-6.96,3.97-5.41,1.15-7.38-5.04-7.38h-8.07l-21.5,29.29h0ZM139.39,161.31h2.78c3.67,0,7.27.63,3.94,5.16-2.9,3.94-6.94,4.74-10.79,4.74h-3.2l7.27-9.9h0ZM148.57,148.81h4.49c2.48,0,4.86.88,2.31,4.36-3.17,4.32-6.95,4.7-11.1,4.7h-2.35l6.65-9.06h0Z"/>
  <path class="cls-1" d="M148.97,174.65h4.49l8.45-7.38h14.61l-2.39,7.38h4.66l8.9-29.29h-4.49l-34.23,29.29h0ZM177.67,163.83h-11.88l16.59-14.52-4.72,14.52h0Z"/>
  <polygon class="cls-2" points="183.65 174.65 200.39 174.65 203.1 170.96 190.63 170.96 209.42 145.37 205.15 145.37 183.65 174.65"/>
  <polygon class="cls-2" points="217.85 174.65 222.12 174.65 231.92 161.31 242.98 161.31 245.69 157.62 234.63 157.62 240.91 149.06 252.48 149.06 255.2 145.37 239.35 145.37 217.85 174.65"/>
  <path class="cls-1" d="M253.8,160.01c4.37-5.96,11.69-11.49,18.23-11.45,6.61-.04,5.79,5.5,1.42,11.45-4.28,5.83-11.36,11.45-18.23,11.45s-5.7-5.62-1.42-11.45h0ZM249.27,160.01c-6.53,8.9-5.87,15.15,3.23,15.15s18.94-6.25,25.47-15.15c6.38-8.68,5.82-15.15-3.23-15.15s-19.09,6.46-25.47,15.15h0Z"/>
  <path class="cls-1" d="M273.62,174.65h4.27l9.55-13.01h2.56c2.26,0,3.67,0,2.9,2.85l-2.88,10.15h4.87l2.92-11.66c.39-1.8.21-2.43-.75-2.94l.06-.08c3.89-.59,8.43-3.1,11.05-6.67,5.14-7.01.14-7.93-5.75-7.93h-7.3l-21.5,29.29h0ZM296.68,149.06h4.1c3.93,0,4.75,1.68,2.81,4.32-2.06,2.81-5.75,4.57-9.81,4.57h-3.63l6.53-8.89h0Z"/>
  <polygon class="cls-2" points="305.86 174.65 311.58 174.65 336.9 149.06 336.99 149.06 324.69 174.65 330.2 174.65 360.88 145.37 356.36 145.37 330.8 170.46 330.72 170.46 342.69 145.37 336.62 145.37 311.84 170.46 311.75 170.46 323.04 145.37 318.34 145.37 305.86 174.65"/>
  <path class="cls-1" d="M339.81,174.65h4.48l8.45-7.38h14.61l-2.39,7.38h4.66l8.9-29.29h-4.48l-34.23,29.29h0ZM368.52,163.83h-11.87l16.59-14.52-4.72,14.52h0Z"/>
  <path class="cls-1" d="M374.28,174.65h4.27l9.55-13.01h2.56c2.26,0,3.67,0,2.9,2.85l-2.88,10.15h4.87l2.92-11.66c.39-1.8.21-2.43-.75-2.94l.06-.08c3.89-.59,8.43-3.1,11.05-6.67,5.14-7.01.14-7.93-5.75-7.93h-7.3l-21.5,29.29h0ZM397.34,149.06h4.1c3.93,0,4.75,1.68,2.81,4.32-2.06,2.81-5.75,4.57-9.81,4.57h-3.63l6.53-8.89h0Z"/>
  <path class="cls-1" d="M400.96,174.65h8.8c9.82,0,19.62-5.08,26.82-14.9,6.62-9.02,3.52-14.39-5.33-14.39h-8.8l-21.5,29.29h0ZM424.02,149.06h5c6.15,0,7.94,4.03,2.92,10.87-5.54,7.55-12.16,11.03-19.5,11.03h-4.48l16.08-21.9h0Z"/>
  <polygon class="cls-2" points="432.65 174.65 436.92 174.65 458.42 145.37 454.14 145.37 432.65 174.65"/>
  <polygon class="cls-2" points="445.06 174.65 449.34 174.65 467.02 150.57 467.1 150.57 462.92 174.65 468.39 174.65 489.89 145.37 485.61 145.37 468.3 168.95 468.22 168.95 472.37 145.37 466.56 145.37 445.06 174.65"/>
  <path class="cls-2" d="M520.31,146.34c-1.86-.84-3.32-1.47-7.68-1.47-9.1,0-20.17,6-26.79,15.02-6.84,9.31-4.93,15.27,4.51,15.27,4.66,0,8.03-.76,10.05-1.3l11.18-15.23h-10.55l-2.52,3.44h6.28l-6.53,8.9c-1.22.21-2.21.5-5.15.5-6.19,0-7.88-4.57-2.83-11.45,4.8-6.54,12.98-11.45,19.86-11.45,3.85,0,5.62.67,6.72,2.01l3.45-4.24h0Z"/>
</svg>