<?xml version="1.0" encoding="UTF-8"?>
<svg id="Layer_1" data-name="Layer 1" xmlns="http://www.w3.org/2000/svg" viewBox="0 0 81 24">
  <defs>
    <style>
      .cls-1 {
        fill: #fff;
        fill-rule: evenodd;
      }
    </style>
  </defs>
  <path class="cls-1" d="M70.54,22.56c-.26.51-1.04,1.44-2.4,1.44h-5.56c-1.34,0-2.14-.94-2.38-1.43l-7.53-15.33c-.74-1.44-2.29-1.91-3.58-1.91h-13.66c-1.26,0-1.99.81-1.99,2,0,1.27.82,2,2.01,2h9.4c4,0,7.32,2.43,7.32,7.33s-3.35,7.33-7.32,7.33h-12.08c-1.1,0-2.01-.64-2.01-2.02v-2.64c0-.45.3-.67.67-.67h10.74c1.11,0,2.01-.67,2.01-2s-.88-2-2-2h-10.11c-1.69,0-3.23-.46-4.32-1.18-.56,6.5-5.2,10.51-11.97,10.51H.67c-.37,0-.67-.22-.67-.67v-13.33c0-.44.29-.66.66-.67h5.32c1.42,0,2.05.91,2.05,1.99v6.68h0c0,.44.29.66.66.67h4.62c3.63,0,6.65-2.2,6.65-6.66s-3.01-6.67-6.65-6.67H.65c-.36,0-.65-.23-.65-.67v-2.65C0,.52,1.05,0,2.03,0h13.82c3.89,0,7.41,1.45,9.48,4.11,1.12-2.71,3.64-4.11,6.8-4.11h19.8c2.43,0,5.19.84,6.62,3.65l6.41,13.47c.07.14.2.2.36.2.15,0,.29-.06.36-.2,0,0,7.92-16.71,7.97-16.81C73.69.23,73.85,0,74.24,0h6.09C80.7,0,81,.22,81,.67c0,.11-.02.22-.07.33l-10.4,21.57Z"/>
</svg>