<?xml version="1.0" encoding="UTF-8"?>
<svg id="Layer_1" data-name="Layer 1" xmlns="http://www.w3.org/2000/svg" viewBox="0 0 249.88 55">
  <defs>
    <style>
      .cls-1 {
        fill: #fff;
      }
    </style>
  </defs>
  <path class="cls-1" d="M46.26,27.33l.62-5.03h-5.65l-4.94,5.03.62-5.03h-9.98c5.56-5.88,13.27-9.23,21.36-9.27,5.56,0,10.15,1.77,12.27,4.94.38.6.68,1.26.88,1.94h4.94c-1.06-6.71-7.77-11.21-17.74-11.21-11.03,0-22.33,5.83-27.45,13.68h-8.12l-1.85,4.33h7.86c-3.18,9.8,4.41,17.48,17.12,17.57,12.8.09,26.04-7.86,29.48-17.66.5-1.33.79-2.73.88-4.15h-15.45l-4.86,4.86ZM60.38,26.62c-3.53,7.33-14.03,13.15-23.92,13.15-5.56,0-10.15-1.85-12.18-4.94-1.32-2.12-1.55-4.74-.62-7.06.11-.4.26-.78.44-1.15h7.86l-.79,6.09h5.47l5.21-5.3-.71,5.3h5.39l5.91-6.09h7.94Z"/>
  <g>
    <g>
      <path class="cls-1" d="M73.69,36.86l-.44.97h-1.68l-2.03,4.85h-1.5l2.03-4.85h-1.68l.44-.97h4.86Z"/>
      <g>
        <path class="cls-1" d="M73.16,38.27h1.41l-.26.62c.41-.44.99-.7,1.59-.71h.26l-.44,1.06h-.44c-.59-.05-1.15.26-1.41.79l-1.06,2.65h-1.5l1.85-4.41Z"/>
        <path class="cls-1" d="M76.34,39.6v-.09c.51-.91,1.52-1.43,2.56-1.32,1.76,0,1.85.53,1.5,1.32l-.97,2.3c-.13.28-.19.58-.18.88h-1.41v-.44c-.46.4-1.07.59-1.68.53-1.06,0-1.06-.71-.88-1.24.35-.8,1.15-1.32,2.03-1.32l.88-.18c.44-.09.71-.18.79-.53.18-.35,0-.53-.44-.53-.37-.02-.72.19-.88.53l-.09.09h-1.23ZM78.64,40.48c-.23.09-.46.15-.71.18-.48.02-.91.29-1.15.71-.18.35-.09.62.26.62.49.02.94-.26,1.15-.71l.44-.79Z"/>
        <path class="cls-1" d="M82.25,38.27h1.41l-.18.53c.46-.41,1.06-.63,1.68-.62.88,0,1.32.35.97,1.24l-1.32,3.27h-1.5l1.24-3c.18-.44.09-.62-.35-.62-.47-.03-.9.26-1.06.71l-1.24,2.91h-1.5l1.85-4.41Z"/>
        <path class="cls-1" d="M87.55,41.19l-.09.18c-.18.35,0,.62.53.62.4.03.78-.18.97-.53.09-.26-.09-.44-.35-.53l-.88-.26c-.71-.18-.97-.62-.71-1.24.26-.71,1.15-1.32,2.65-1.32,1.32,0,1.76.44,1.41,1.24l-.09.18h-1.32c.18-.44.09-.62-.35-.62-.35,0-.79.18-.88.44-.09.18,0,.35.44.53l.79.26c.79.26,1.06.62.71,1.24-.57.94-1.64,1.46-2.74,1.32-1.68,0-1.85-.53-1.5-1.41l.09-.18h1.32v.09Z"/>
        <path class="cls-1" d="M92.67,38.27h1.41l-.18.44c.4-.39.94-.61,1.5-.62,1.24,0,1.5.71.79,2.3s-1.5,2.3-2.74,2.3c-.43.05-.85-.16-1.06-.53l-.79,1.85h-1.5l2.56-5.75ZM93.37,41.89c.62,0,.97-.44,1.32-1.41s.44-1.41-.18-1.41-.97.44-1.41,1.41c-.26.88-.35,1.42.26,1.42h0Z"/>
        <path class="cls-1" d="M100.35,38.19c1.76,0,1.94.79,1.32,2.3-.39,1.42-1.71,2.37-3.18,2.3-1.76,0-1.94-.79-1.32-2.3.37-1.43,1.7-2.4,3.18-2.3ZM98.67,41.99c.62,0,.97-.44,1.41-1.5s.44-1.5-.18-1.5c-.71,0-1.06.62-1.41,1.5-.26.88-.53,1.5.18,1.5Z"/>
        <path class="cls-1" d="M103.53,38.27h1.41l-.26.62c.41-.44.99-.7,1.59-.71h.26l-.44,1.06h-.44c-.59-.05-1.15.26-1.41.79l-1.06,2.65h-1.5l1.85-4.41Z"/>
        <path class="cls-1" d="M108.11,37.04h1.5l-.53,1.24h.88l-.35.79h-.88l-.97,2.38c-.18.35-.09.44.35.44h.35l-.35.79c-.35,0-.62.09-.97.09-1.15,0-1.24-.26-.88-1.15l1.06-2.47h-.71l.35-.79h.71l.44-1.32Z"/>
        <path class="cls-1" d="M112.79,39.6v-.09c.51-.91,1.52-1.43,2.56-1.32,1.76,0,1.85.53,1.5,1.32l-.97,2.3c-.13.28-.19.58-.18.88h-1.41v-.44c-.46.4-1.07.59-1.68.53-1.06,0-1.06-.71-.88-1.24.35-.8,1.15-1.32,2.03-1.32l.88-.18c.44-.09.71-.18.79-.53.18-.35,0-.53-.44-.53-.37-.02-.72.19-.88.53l-.09.09h-1.23ZM115.09,40.48c-.23.09-.46.15-.71.18-.48.02-.91.29-1.15.71-.18.35-.09.62.26.62.49.02.94-.26,1.15-.71l.44-.79Z"/>
        <path class="cls-1" d="M118.71,38.27h1.41l-.18.53c.46-.41,1.06-.63,1.68-.62.88,0,1.32.35.97,1.24l-1.32,3.27h-1.5l1.24-3c.18-.44.09-.62-.35-.62-.47-.03-.9.26-1.06.71l-1.24,2.91h-1.5l1.85-4.41Z"/>
        <path class="cls-1" d="M125.5,42.16c-.43.41-1,.63-1.59.62-1.24,0-1.5-.71-.79-2.3s1.5-2.3,2.74-2.3c.43-.05.85.16,1.06.53l.79-1.85h1.5l-2.38,5.74h-1.41l.09-.43ZM124.8,41.9c.62,0,.97-.44,1.41-1.41s.44-1.41-.18-1.41-.97.44-1.32,1.41c-.44.88-.53,1.41.09,1.41h0Z"/>
        <path class="cls-1" d="M130.71,42.6l2.38-5.74h1.5l-2.03,4.85h2.74l-.44.97h-4.15v-.09Z"/>
        <path class="cls-1" d="M139.72,38.19c1.76,0,1.94.79,1.32,2.3-.39,1.42-1.71,2.37-3.18,2.3-1.76,0-1.94-.79-1.32-2.3.39-1.42,1.71-2.37,3.18-2.3ZM138.13,41.99c.62,0,.97-.44,1.41-1.5s.44-1.5-.18-1.5c-.71,0-1.06.62-1.41,1.5s-.53,1.5.18,1.5Z"/>
        <path class="cls-1" d="M147.22,38.27l-1.77,4.15c-.44,1.15-1.41,1.68-3.09,1.68-1.24,0-1.76-.44-1.41-1.15h1.41c-.09.18,0,.26.09.35.13.08.29.11.44.09.52.02.98-.31,1.15-.79l.26-.62c-.4.33-.9.51-1.41.53-1.15,0-1.5-.62-.79-2.21.33-1.26,1.44-2.15,2.73-2.21.43-.06.84.2.97.62l.18-.53h1.24v.09ZM143.6,41.72c.62,0,.97-.53,1.32-1.24.44-1.06.44-1.5-.18-1.5s-.97.35-1.41,1.59c-.27.62-.35,1.15.26,1.15h0Z"/>
        <path class="cls-1" d="M148.54,38.27h1.5l-1.85,4.33h-1.5l1.85-4.33ZM149.16,36.77h1.5l-.44.97h-1.5l.44-.97Z"/>
        <path class="cls-1" d="M151.1,41.19l-.09.18c-.18.35,0,.62.53.62.4.03.78-.18.97-.53.09-.26-.09-.44-.35-.53l-.88-.26c-.71-.18-.97-.62-.71-1.24.26-.71,1.15-1.32,2.65-1.32,1.32,0,1.76.44,1.41,1.24l-.09.18h-1.32c.18-.44.09-.62-.35-.62-.35,0-.79.18-.88.44-.09.18,0,.35.44.53l.79.26c.79.26,1.06.62.71,1.24-.57.94-1.64,1.46-2.74,1.32-1.68,0-1.85-.53-1.5-1.41l.09-.18h1.32v.09Z"/>
        <path class="cls-1" d="M157.02,37.04h1.5l-.53,1.24h.88l-.35.79h-.88l-.97,2.38c-.18.35-.09.44.35.44h.35l-.35.79c-.35,0-.62.09-.97.09-1.15,0-1.24-.26-.88-1.15l1.06-2.47h-.79l.35-.79h.71l.53-1.32Z"/>
        <path class="cls-1" d="M159.58,38.27h1.5l-1.85,4.33h-1.5l1.85-4.33ZM160.2,36.77h1.5l-.44.97h-1.5l.44-.97Z"/>
        <path class="cls-1" d="M164.34,39.86c.18-.44.26-.88-.26-.88-.71,0-1.06.44-1.5,1.5s-.53,1.5.18,1.5c.53,0,.88-.35,1.15-1.06h1.41c-.46,1.18-1.65,1.9-2.91,1.76-1.5,0-1.94-.53-1.24-2.3.44-1.42,1.78-2.37,3.27-2.3,1.32,0,1.76.62,1.32,1.68h-1.41v.1Z"/>
      </g>
      <path class="cls-1" d="M167.26,41.19l-.09.18c-.18.35,0,.62.53.62.4.03.78-.18.97-.53.09-.26-.09-.44-.35-.53l-.88-.26c-.71-.18-.97-.62-.71-1.24.26-.71,1.15-1.32,2.65-1.32,1.32,0,1.76.44,1.41,1.24l-.09.18h-1.32c.18-.44.09-.62-.35-.62-.35,0-.79.18-.88.44-.09.18,0,.35.44.53l.79.26c.79.26,1.06.62.71,1.24-.57.94-1.64,1.46-2.74,1.32-1.68,0-1.85-.53-1.5-1.41l.09-.18h1.32v.09Z"/>
    </g>
    <g>
      <path class="cls-1" d="M80.75,24.86h5.39l-3.35,7.86h-3.18l.44-1.24h-.09c-1.25,1.06-2.86,1.6-4.5,1.5-4.77,0-4.15-2.65-2.21-7.15,1.94-4.59,4.15-7.15,9.71-7.15,3.35,0,5.21,1.32,3.8,4.68h-4.59c.23-.5.38-1.04.44-1.59,0-.35-.26-.62-.88-.62-1.59,0-2.12.97-3.71,4.77-1.59,3.71-1.85,4.77-.35,4.77.97,0,2.3-.44,3.44-3.27h-1.5l1.14-2.56Z"/>
      <path class="cls-1" d="M102.73,18.94h4.59l-1.85,4.5h.09c.88-.96,2.14-1.48,3.44-1.41,2.65,0,3.71,1.24,2.03,5.3-1.59,3.88-3.44,5.74-6.53,5.74-1.59,0-2.3-.53-2.38-1.68h-.09l-.62,1.41h-4.41l5.74-13.86ZM103.79,30.42c1.06,0,1.59-.62,2.47-2.91.97-2.3.97-2.91-.09-2.91s-1.5.62-2.47,2.91c-.88,2.21-.97,2.91.09,2.91h0Z"/>
      <path class="cls-1" d="M114.38,22.3h4.41l-.71,1.68h.09c.96-1.17,2.37-1.87,3.88-1.94h.71l-1.32,3.27c-.38-.08-.76-.11-1.15-.09-1.59,0-2.74.44-3.35,1.85l-2.38,5.74h-4.59l4.41-10.51Z"/>
      <path class="cls-1" d="M126.92,18.68h3.35l-.97,2.3h-3.35l.97-2.3ZM131.86,18.68h3.44l-.97,2.3h-3.35l.88-2.3ZM123.92,22.3h4.59l-2.91,6.88c-.35.88-.18,1.24.62,1.24s1.24-.35,1.68-1.24l2.91-6.89h4.59l-4.41,10.42h-4.41l.53-1.23h-.09c-1.04,1.07-2.48,1.65-3.97,1.59-2.03,0-3.35-.62-2.38-2.83l3.27-7.95Z"/>
      <path class="cls-1" d="M145.28,18.94h4.59l-5.74,13.77h-4.41l.62-1.41h-.09c-.94,1.11-2.34,1.73-3.8,1.68-3.09,0-3.35-1.85-1.68-5.74,1.68-3.97,3.88-5.3,6.44-5.3,1.32,0,2.21.35,2.3,1.41h.09l1.68-4.41ZM139.19,30.42c1.06,0,1.5-.62,2.47-2.91s.97-2.91-.09-2.91-1.59.62-2.56,2.91c-.88,2.21-.88,2.91.18,2.91h0Z"/>
      <path class="cls-1" d="M162.58,22.3h4.41l-.71,1.68h.09c.96-1.17,2.37-1.87,3.88-1.94h.71l-1.32,3.27c-.38-.08-.76-.11-1.15-.09-1.59,0-2.74.44-3.35,1.85l-2.38,5.74h-4.59l4.41-10.51Z"/>
      <path class="cls-1" d="M185.61,18.94h4.24l-1.68,8.39h.09l4.77-8.39h4.59l-8.92,13.77h-5.21l1.94-8.3-5.12,8.3h-5.2l2.65-13.77h4.59l-2.12,8.39h.09l5.29-8.39Z"/>
      <path class="cls-1" d="M208.57,22.3h4.59l-4.41,10.42h-4.59l4.41-10.42ZM209.98,18.94h4.59l-.88,2.03h-4.59l.88-2.03Z"/>
      <path class="cls-1" d="M215.63,29.45c-.18.44-.26.79-.09,1.06.09.26.44.35.79.35.68.05,1.33-.29,1.68-.88.79-1.85-6.27-.79-4.68-4.68.79-1.85,3.09-3.27,6.8-3.27,3.44,0,4.68,1.06,3.8,3.27h-3.97c.35-.88,0-1.15-.71-1.15-.61-.04-1.19.27-1.5.79-.71,1.68,6.36.53,4.68,4.59-.88,2.03-3.53,3.53-6.97,3.53-3.8,0-4.85-1.24-3.88-3.53h4.06v-.09Z"/>
      <path class="cls-1" d="M227.46,29.45c-.18.44-.26.79-.09,1.06.09.26.44.35.79.35.68.03,1.32-.31,1.68-.88.79-1.85-6.27-.79-4.68-4.68.79-1.85,3.09-3.27,6.8-3.27,3.44,0,4.68,1.06,3.8,3.27h-3.97c.35-.88,0-1.15-.71-1.15-.61-.04-1.19.27-1.5.79-.71,1.68,6.36.53,4.68,4.59-.88,2.03-3.53,3.53-6.97,3.53-3.8,0-4.85-1.24-3.88-3.53h4.06v-.09Z"/>
      <path class="cls-1" d="M94.52,22.03c-4.15,0-6.44,1.5-8.12,5.47s-.88,5.47,3.53,5.47c3.53,0,5.65-1.24,6.8-3.44h-4.06c-.27.8-1.01,1.33-1.85,1.32-.62,0-1.15-.26-.62-1.41l.62-1.41h6.8l.44-1.06c1.5-3.71.17-4.94-3.54-4.94ZM94.26,25.74l-.18.44h-2.47l.18-.44c.44-1.06.97-1.59,1.94-1.59.88,0,.97.44.53,1.59Z"/>
      <path class="cls-1" d="M155.96,22.03c-4.15,0-6.44,1.5-8.12,5.47s-.88,5.47,3.53,5.47c3.53,0,5.65-1.24,6.8-3.44h-4.06c-.27.8-1.01,1.33-1.85,1.32-.62,0-1.15-.26-.62-1.41l.62-1.41h6.8l.44-1.06c1.41-3.71.08-4.94-3.54-4.94ZM155.61,25.74l-.18.44h-2.47l.18-.44c.44-1.06.97-1.59,1.94-1.59.88,0,.97.44.53,1.59Z"/>
      <path class="cls-1" d="M201.77,22.03c-4.15,0-6.44,1.5-8.12,5.47s-.88,5.47,3.53,5.47c3.53,0,5.65-1.24,6.8-3.44h-4.06c-.27.8-1.01,1.33-1.85,1.32-.62,0-1.15-.26-.62-1.41l.62-1.41h6.8l.44-1.06c1.49-3.71.17-4.94-3.54-4.94ZM201.51,25.74l-.18.44h-2.47l.18-.44c.44-1.06.97-1.59,1.94-1.59.88,0,.97.44.53,1.59h0Z"/>
    </g>
  </g>
</svg>