<?xml version="1.0" encoding="UTF-8"?>
<svg id="Layer_1" data-name="Layer 1" xmlns="http://www.w3.org/2000/svg" viewBox="0 0 1200 630">
  <defs>
    <style>
      .cls-1 {
        fill: #fff;
      }
    </style>
  </defs>
  <path class="cls-1" d="M814,339c2.21,4.11,2.13,5.59.42,9.92-2.45,6.21-.59,2.46-.86,6.15-.05.69-2.17,8.95-2.44,9.36-.85,1.26-7.52,1.08-8.02-1,.29-3.27,3.76-7.7.4-10.4l-3.54,11.93c-2.25-.07-8.15.99-8.89-1.57l6.44-24.38h16.5Z"/>
  <path class="cls-1" d="M759.01,338.99l.5,4.02c2.36.08,2.24-3.2,4.15-3.85,2.06-.7,5.1.09,7.34-.15-5.84,8.3-7.49,15.06-4.44,25.02l-8.57.98c-.33-.33,1.03-9.92-1.98-7-.39,1.65-1.71,5.72-3,6.5-2.13,1.29-8.71,1.34-7.5-2.48,2.31-7.29,9.13-13.46,4.49-23.02l9.01-.02Z"/>
  <path class="cls-1" d="M858,346c-2.22-.33-5.32.51-7.31.02-1.44-.36-1.51-5.54-4.69-1.51-1.11,3.97,8.07,4.35,9.59,9.46,4.19,14.11-25.26,16.42-20.48,2.14l8.89-.1-.99,4.99c3.83,1.07,4.77-3.33,3.08-5.55-1.48-1.95-7.68-4.09-8.56-6.4-.39-1.04,1.24-7.16,2.17-8.11,4.11-4.23,21.94-4.86,18.31,5.07Z"/>
  <path class="cls-1" d="M881,346l-7.46.06-.55-3.06h-2.99c-1.73,5.94,7.53,6.38,8.81,10.71,4.15,14.07-22.55,15.5-20.87,4.81.18-1.16.44-2.05,1.7-2.39l7.35-.14c-1.73,5.02.8,6.99,3.92,2.35-2.34-6.03-11.46-5.38-9.74-13.62,1.59-7.67,13.14-7.24,18.87-5.28l.96,6.55Z"/>
  <path class="cls-1" d="M791.75,340.24c2.52,2.47-.21,10.39-2.68,12.34-3.09,2.44-6.4,1.19-10.07,1.42l-2.11,10.89-7.94-.36c-1.34-.9-.39-1.44-.3-2.3.82-7.37,4.59-15.5,5.48-23.1,3.81.23,15.16-1.3,17.62,1.11Z"/>
  <path class="cls-1" d="M749,339c-1.23,5.15-2.8,5.55-8.01,5l.05,4.96,4.76,1.5-.92,3.42-5.77.23c-3.84,9.8,3.44,4.39,4.9,5.88v5.01h-16.01c1.53-8.55,2.75-18.25,6.5-26h14.5Z"/>
  <path class="cls-1" d="M836,339l-1.14,4.86-5.19.1-1.67,5.04,5.98,1.5c-1.6,4.07-4.03,3.79-7.98,3.5v6.01s6,0,6,0c-.52,8.12-10.32,4.12-16,5l5-26h15Z"/>
  <g>
    <path class="cls-1" d="M881,290.01c-1.31,2.79-4.72,3.87-7.33,5.16-49.96,24.93-131.31,35.08-187.07,41.93-94.9,11.66-193.41,18.34-289.11,8.91-17.37-1.71-34.69-2.89-51.69-7.31-5.41-1.4-24.81-7.44-26.79-12.22-.89-2.15,1.53-1.28,2.51-1.45,16.07-2.85,31.87-7.01,47.91-9.96,48.15,15.51,100.7,16.34,151.11,16.89,97.99,1.07,209.75-7.78,305.71-28.21,18.42-3.92,36.55-8.99,54.75-13.74Z"/>
    <path class="cls-1" d="M487,273c1.09,1.11-3.16,11.13.49,10.01.42-.13,3.22-6.18,4.52-7.49,4.7-4.73,16.37-2.05,23.05-2.08l2.43,9.57c3.27-8.89,3.98-11.44,14.5-10,1.31,1.26-10.59,17.65-11.87,20.62-1.98,4.58-2.63,9.56-4.24,14.25l-9.89.13c-1.25-4.11,1.47-7.37,1.95-10.56.82-5.47-.92-9.07-1.84-14.05-.54-2.93,1.34-7.88-2.59-8.4-.81.17-8.84,12.4-9.09,13.93-.6,3.69,3.13,16.8,2.16,18.11l-11.59.96c.16-1.21.49-12.49-2.48-10.99l-3.48,10.53-11.04.46,8.1-34.89,10.9-.1Z"/>
    <path class="cls-1" d="M716,273l-1,13c4.61.05,4.19-11.3,5.93-12.56,2.34-.55,10.23-1.45,10.99,1.19-2.84,8.13-3.56,24.32-7.46,31.33-1.66,2.99-8.23,2.71-11.04,1.09l1.58-14.05h-2.99s-3.97,14.54-3.97,14.54l-11.03.46,7.45-34.04,11.55-.96Z"/>
    <path class="cls-1" d="M393,273c.56,4.43-4.69,9-.5,12.98,6.01-8.52.45-15.28,15.5-12.98l-7.49,34.02-11.51.98,3.01-14.47-3.49-.57-3.57,15-10.99-.42c-1.4-1.02-.82-1.33-.52-2.55,2.69-10.6,5.87-21.11,7.59-31.93l11.96-.04Z"/>
    <path class="cls-1" d="M591,273c1.56,2.53-4.08,12.25-.49,13s3.55-11.23,5.43-12.56c2.15-.59,10.33-1.4,10.94,1.14,1.02,4.25-7.33,25.3-7.4,31.4-1.73,3.4-8.24,1.64-11.48,2.02l3-14.99-3.37-.06-4.79,14.87-10.83.17,7.46-34.04,11.55-.96Z"/>
    <path class="cls-1" d="M453.9,273.11l3.6,12.87,3.43-12.55c1.74-.75,9.86-1.06,10.04,1.06l-7.98,33.5-10.03-.46c-3.34-2.21-.01-12.47-4.45-12.55l-2.71,11.8-9.8,1.21,8.1-34.89h9.8Z"/>
    <path class="cls-1" d="M655.01,286c2.66.25,1.62.04,1.97-1.5.47-2.07,1.73-10.19,2.96-11.06l9.06-.44-8.12,34.87-9.78.02-2.11-12.89c-4.2.83-3.37,11.73-5.12,12.87l-8.87.13,7.45-34.04,9.59-.49,2.97,12.54Z"/>
    <path class="cls-1" d="M764.99,273.01l2.02,12.99c4.14-1.35,2.72-11.01,4.93-12.56l9.06-.44-7.16,33.83c-2.44,1.14-7.54,2.03-9.86.67-3.18-1.87-.94-11.41-4.98-13.51l-2.46,13.05-9.55.95,8.16-34.83,9.84-.16Z"/>
    <path class="cls-1" d="M547,273l-6,28.99c1.19-.07,2.12.51,3.06-.63,3.19-3.83,3.83-22.33,7.33-27.48,1.77-1.45,11.07-1.63,11.44.57-5.66,15.99-2.77,39.55-27.86,33.06-13.05-3.38,1.29-25.34.03-34.52h11.99Z"/>
    <path class="cls-1" d="M434,273v32.5c0,3.17-9.79,2.61-12.01,2.51l.02-6.44c-5.34-2.61-4.49,2.56-6.09,4.86-2.11,3.02-8.42,1.07-11.92,1.57-.25-1.99.35-3.69.97-5.53,1.66-4.98,8.84-22.83,11.28-26.71.65-1.04,1.19-2.05,2.25-2.75h15.5ZM423.99,285.01l-3.71,5.78-.28,4.21,3.84-1.65.15-8.34Z"/>
    <path class="cls-1" d="M631.5,273l1.34,1.66-1.28,32.41c-1.08,1.55-10.85,1.75-11.49-.69l.5-4.4c-5.06-3.55-5.73,1.93-6.69,5.91-.39.34-8.99.32-10.4.12s-1.71.56-1.5-1.51l14.02-33.49h15.5ZM622,295.01l.99-11.01c-2.37.92-4.67,7.22-5,9.5-.4,2.67,2.57,1.2,4.01,1.5Z"/>
    <path class="cls-1" d="M697.83,275.17l.18,7.84-11.54-.96c1.31-4.17-2.87-5.8-3.52-1.52-.84,5.53,3.99,4.91,7.01,7.01,10.08,7,4.91,19.06-6.43,20.48-9.51,1.19-19.41-.74-14.59-12.59l10.07-.43-1,6.99c3.38.84,5.77-1.35,5.79-4.7.03-4.88-13.89-4.67-12.6-14.53,1.54-11.81,18.28-12.65,26.64-7.6Z"/>
    <path class="cls-1" d="M749,273.01l-7.15,33.83c-.84,1.36-13.41,3.01-11.85-2.26l8.11-31.47,10.9-.1Z"/>
    <path class="cls-1" d="M361,310.99l-34.61,7.9-12.39,1.11c-.13-1.83-.36-3.06,1.71-3.79,12.13-4.26,27.73-4.5,40.05-9.06,2.36-.45,4.2,1.93,5.24,3.84Z"/>
    <path class="cls-1" d="M355,303.99l-37,7c.34-1.05,1.61-2.41,2.49-3,2.46-1.62,28.98-7.89,32.25-7.8,2.3.06,2.49,1.8,2.25,3.79Z"/>
    <polygon class="cls-1" points="423.99 285.01 423.84 293.34 420.01 295 420.28 290.79 423.99 285.01"/>
    <path class="cls-1" d="M622,295.01c-1.44-.31-4.41,1.17-4.01-1.5.34-2.28,2.63-8.58,5-9.5l-.99,11.01Z"/>
  </g>
</svg>