<?xml version="1.0" encoding="UTF-8"?>
<svg id="_レイヤー_1" data-name="レイヤー 1" xmlns="http://www.w3.org/2000/svg" viewBox="0 0 267.1 29.8">
  <defs>
    <style>
      .cls-1 {
        fill: #fff;
      }
    </style>
  </defs>
  <g id="_レイヤー_2" data-name="レイヤー 2">
    <g id="_レイヤー_2-2" data-name="レイヤー 2-2">
      <polygon class="cls-1" points="16.4 15 23 25.8 16.7 25.8 10.3 15.3 16.4 15"/>
      <path class="cls-1" d="M60.4,12.2h-.2v.1l-.7,2.7-.1.2h.1l11.5-.1-1.1,3.5-11.3.1h-.1v.1l-.8,3v.1h11.9l-.9,4h-17l4.4-17.5,17.2-.1-1.2,3.9h-11.7Z"/>
      <path class="cls-1" d="M61.7,4.8h0C55.8,1.6,49.2,0,42.5,0,24.3-.1,14,8.9,10.3,15.3l6.1-.3c5.8-7.6,17.6-12.6,30.5-12.7,6.9,0,10.6.9,14.7,2.6h0q.1,0,.1-.1h0Z"/>
      <path class="cls-1" d="M31.7,20.9v.2-.2l-.7-12.3h-5.2l1.2,17.3h7l4.3-10.4v10.4h7.1l8.4-17.6-5.7.1-5.6,12.3v.1-.1l-.2-12.3h-5.7l-4.9,12.5Z"/>
      <polygon class="cls-1" points="6.6 25.9 0 28.6 7.6 5.3 14.9 1.6 6.6 25.9"/>
      <path class="cls-1" d="M86.2,12.9h1.8v5.7l5.3-5.7h2.4l-5.9,6.1,6.3,6.9h-2.6l-5.5-6.4v6.4h-1.8v-13Z"/>
      <path class="cls-1" d="M98,16.4h1.7v9.5h-1.7v-9.5ZM99.8,14.3h-1.9v-2h1.9v2Z"/>
      <path class="cls-1" d="M102,16.4h1.6v1.5h0c.6-1.1,1.7-1.8,3-1.7,2.3,0,3.4,1.5,3.4,4.1v5.6h-1.7v-4.9c0-2.2-.5-3.3-1.9-3.4-1.9,0-2.7,1.6-2.7,3.9v4.4h-1.7v-9.5Z"/>
      <path class="cls-1" d="M117.3,17.8h-2.4v5.2c0,1.1.6,1.7,1.4,1.7.4,0,.8-.1,1.1-.3v1.5c-.5.2-.9.2-1.4.3-1.4.2-2.6-.8-2.8-2.1v-6.2h-2v-1.4h2v-2.2l1.7-.6v2.8h2.4v1.3Z"/>
      <path class="cls-1" d="M120.2,20.2c.1-1.2.8-2.6,2.4-2.6,1.4,0,2.2,1.2,2.2,2.6h-4.6ZM125.9,23.7c-.8.6-1.8.9-2.8,1-1.7,0-3-1.4-3-3.1v-.1h6.4c0-3.1-1-5.4-4-5.4-2.5,0-4.2,2-4.2,4.8,0,3.1,1.5,5.1,4.7,5.1,1,0,2-.2,2.8-.6l.1-1.7Z"/>
      <path class="cls-1" d="M133.3,17.8h-2.4v5.2c0,1.1.6,1.7,1.4,1.7.4,0,.8-.1,1.1-.3v1.5c-.5.2-.9.2-1.4.3-1.4.2-2.6-.8-2.8-2.1v-6.2h-2v-1.4h2v-2.2l1.7-.6v2.8h2.4v1.3Z"/>
      <path class="cls-1" d="M135,24c.6.4,1.3.6,2.1.7.8,0,1.7-.3,1.7-1.4,0-1.7-3.9-1.6-3.9-4.2,0-2,1.4-2.9,3.2-2.9.7,0,1.4.1,2.1.4l-.1,1.5c-.5-.3-1.1-.4-1.8-.5-.9,0-1.6.4-1.6,1.2,0,1.9,3.9,1.4,3.9,4.4,0,1.6-1.2,2.9-2.8,3h-.3c-.9,0-1.7-.1-2.5-.5v-1.7Z"/>
      <path class="cls-1" d="M150.2,25.9h-1.6v-1.5h0c-.6,1.1-1.7,1.8-3,1.7-2.3,0-3.4-1.5-3.4-4.1v-5.6h1.7v4.9c0,2.2.5,3.3,1.9,3.4,1.9,0,2.7-1.6,2.7-3.9v-4.4h1.7v9.5Z"/>
      <path class="cls-1" d="M155.9,12.9h1.9l3,11.1h0l2.6-11.1h2.5l2.7,11.1h0l3-11.1h1.9l-3.8,13h-2.3l-2.7-11.4h0l-2.7,11.4h-2.4l-3.7-13Z"/>
      <path class="cls-1" d="M175.4,21.1c0-1.8,1-3.6,2.8-3.6s2.8,1.8,2.8,3.6c0,1.7-.9,3.6-2.8,3.6s-2.8-1.9-2.8-3.6ZM173.7,21.1c-.2,2.5,1.7,4.8,4.2,5s4.8-1.7,5-4.2v-.7c0-2.9-1.8-5-4.6-5s-4.6,2-4.6,4.9h0Z"/>
      <path class="cls-1" d="M184.7,16.4h1.6v1.5h0c.4-1,1.3-1.6,2.4-1.7.4,0,.7,0,1.1.1v1.6c-.3-.1-.6-.2-.9-.2-1.5,0-2.5,1.5-2.5,3.9v4.3h-1.7v-9.5Z"/>
      <path class="cls-1" d="M191.8,11.9h1.7v14h-1.7v-14Z"/>
      <path class="cls-1" d="M197,21.1c0-1.7.7-3.5,2.5-3.5s2.7,1.8,2.7,3.6c0,1.6-.8,3.5-2.7,3.5-1.8,0-2.5-2.1-2.5-3.6ZM202.2,25.9h1.6v-14h-1.7v5.8h0c-.6-1-1.8-1.6-3-1.5-2.6,0-3.9,2.3-3.9,4.8s1.2,5.1,3.9,5.1c1.2,0,2.4-.5,3.1-1.6h0v1.4Z"/>
      <path class="cls-1" d="M211.1,12.9h6.9v1.6h-5.2v3.8h4.7v1.7h-4.7v4.3h5.2v1.6h-6.9v-13Z"/>
      <path class="cls-1" d="M222.4,20.9l-2.9-4.5h2.1l2,3.4,2-3.4h1.9l-2.9,4.5,3.2,5h-2.1l-2.2-3.7-2.2,3.7h-2l3.1-5Z"/>
      <path class="cls-1" d="M235.7,21.1c0,1.5-.7,3.6-2.5,3.6-1.9,0-2.7-2-2.7-3.5,0-1.8.9-3.6,2.7-3.6s2.5,1.8,2.5,3.5ZM228.9,29.8h1.7v-5.2h0c.6,1,1.8,1.6,3,1.5,2.7,0,3.9-2.5,3.9-5.1s-1.3-4.8-3.9-4.8c-1.2,0-2.4.6-3.1,1.6h0v-1.3h-1.6v13.3h0Z"/>
      <path class="cls-1" d="M239.3,16.4h1.6v1.5h0c.4-1,1.3-1.6,2.4-1.7.4,0,.7,0,1.1.1v1.6c-.3-.1-.6-.2-.9-.2-1.5,0-2.5,1.5-2.5,3.9v4.3h-1.7v-9.5Z"/>
      <path class="cls-1" d="M247,20.2c.1-1.2.8-2.6,2.4-2.6,1.4,0,2.2,1.2,2.2,2.6h-4.6ZM252.8,23.7c-.8.6-1.8.9-2.8,1-1.7,0-3-1.4-3-3.1v-.1h6.4c0-3.1-1-5.4-4-5.4-2.5,0-4.2,2-4.2,4.8,0,3.1,1.5,5.1,4.7,5.1,1,0,2-.2,2.9-.6v-1.7Z"/>
      <path class="cls-1" d="M254.7,24c.6.4,1.3.6,2.1.7.8,0,1.7-.3,1.7-1.4,0-1.7-3.9-1.6-3.9-4.2,0-2,1.4-2.9,3.2-2.9.7,0,1.4.1,2.1.4l-.1,1.5c-.5-.3-1.1-.4-1.8-.5-.9,0-1.6.4-1.6,1.2,0,1.9,3.9,1.4,3.9,4.4,0,1.6-1.2,2.9-2.8,3h-.3c-.9,0-1.7-.1-2.5-.5v-1.7Z"/>
      <path class="cls-1" d="M261.6,24c.6.4,1.3.6,2.1.7.8,0,1.7-.3,1.7-1.4,0-1.7-3.9-1.6-3.9-4.2,0-2,1.4-2.9,3.2-2.9.7,0,1.4.1,2.1.4l-.1,1.5c-.5-.3-1.1-.4-1.8-.5-.9,0-1.6.4-1.6,1.2,0,1.9,3.9,1.4,3.9,4.4,0,1.6-1.2,2.9-2.8,3h-.3c-.9,0-1.7-.1-2.5-.5v-1.7Z"/>
    </g>
  </g>
  <polygon class="cls-1" points="16.3 15.8 10.4 15.4 10.4 15.2 16.3 14.6 16.3 15.8"/>
</svg>