<?xml version="1.0" encoding="UTF-8"?>
<svg id="Layer_1" data-name="Layer 1" xmlns="http://www.w3.org/2000/svg" viewBox="0 0 874 573">
  <defs>
    <style>
      .cls-1 {
        fill: #fff;
      }
    </style>
  </defs>
  <path d="M849,139v311H24V139h825ZM568.05,148h-263.05v293h263.05V148ZM127.5,215H62v19h20v120h-18.5c-4.18,5.13.02,12.73-2.5,19h55v-17.5c-3.76-3.11-10.26-.84-15-1.5v-82l40.89,104.41,14.65.66,45.46-106.07v83c-4.74.66-11.24-1.61-15,1.5v17.5h80v-17.5l-1.5-1.5h-19.5l1.5-120h18l1.5-1.5v-17.5h-63.5l-40.49,94-35.51-94ZM691,234c0-1.22,19.45,1.81,21-1.5v-16l-1.5-1.5h-84.5v16.5c0,.25-.81.59-.78,1l1.28,1.5h19.5v120h-20v17.5c0,.3-1.27.77-1,1.5h165v-61h-17c-.09,16.18-7.01,30.69-22.32,37.18-3.98,1.69-14.23,4.82-18.18,4.82h-41.5v-120Z"/>
  <path class="cls-1" d="M127.5,215l35.51,94,40.49-94h63.5v17.5l-1.5,1.5h-18l-1.5,120h19.5l1.5,1.5v17.5h-80v-17.5c3.76-3.11,10.26-.84,15-1.5v-83l-45.46,106.07-14.65-.66-40.89-104.41v82c4.74.66,11.24-1.61,15,1.5v17.5h-55c2.52-6.27-1.68-13.87,2.5-19h18.5v-120h-20v-19h65.5Z"/>
  <path class="cls-1" d="M691,234v120h41.5c3.95,0,14.2-3.13,18.18-4.82,15.31-6.49,22.23-21,22.32-37.18h17v61h-165c-.27-.73,1-1.2,1-1.5v-17.5h20v-120h-19.5l-1.28-1.5c-.03-.41.78-.75.78-1v-16.5h84.5l1.5,1.5v16c-1.55,3.31-21,.28-21,1.5Z"/>
  <g>
    <path class="cls-1" d="M568.05,148v293h-263.05V148h263.05ZM529.26,294.56c0-51.43-41.69-93.12-93.12-93.12s-93.12,41.69-93.12,93.12,41.69,93.12,93.12,93.12,93.12-41.69,93.12-93.12Z"/>
    <g>
      <path d="M529.26,294.56c0,51.43-41.69,93.12-93.12,93.12s-93.12-41.69-93.12-93.12,41.69-93.12,93.12-93.12,93.12,41.69,93.12,93.12ZM429.74,223.24c-35.08,5.11-34.32,64.78-31.73,91.25,2.78,28.42,10.19,53.98,44.48,50.5,38.78-3.94,35.27-81.31,29.23-108.21-4.89-21.77-17.81-37.06-41.98-33.54Z"/>
      <path class="cls-1" d="M429.74,223.24c24.18-3.52,37.1,11.77,41.98,33.54,6.04,26.9,9.55,104.27-29.23,108.21-34.29,3.49-41.7-22.08-44.48-50.5-2.59-26.47-3.35-86.15,31.73-91.25Z"/>
    </g>
  </g>
</svg>