<?xml version="1.0" encoding="UTF-8"?>
<svg id="Layer_1" data-name="Layer 1" xmlns="http://www.w3.org/2000/svg" viewBox="0 0 499.5 162.5">
  <defs>
    <style>
      .cls-1 {
        fill: #fff;
      }
    </style>
  </defs>
  <path class="cls-1" d="M377.94,34.07c7.61,16.67,13.41,34.18,20.82,50.93,1.44,3.25,4.63,11.31,7.56,12.94,2.27,1.26,5.09.35,6.68,2.06h-23c.21-.93,1.64-.96,1.94-1.83.78-2.3-6.23-16.23-7.02-19.58l-20.43.16-6.52,16.51c-.44,3.81,3.06,3.98,6.03,3.75v1.5s-22.01-.24-22.01-.24c-1.18-1.66,2.22-1.16,3.13-1.39,6.19-1.54,7.1-6.81,9.39-12.11,6.89-15.94,12.43-34.18,19.91-49.59.81-1.67,1.22-3.76,3.53-3.1ZM366.5,74h16.5l-7.51-21.65-1.24-.36-7.75,22Z"/>
  <path class="cls-1" d="M226.51,53c-.48-13.38-14.3-15.92-25.25-14.99-27.43,2.33-26.82,46.92-2.75,56.74,8.04,3.28,23.13,3.59,27.43-5.55.27-.57,1.51-5.89,2.56-4.69.12,3.48-.24,13.51-3.54,15.21-1.59.82-7.2,1.67-9.19,1.81-26.48,1.85-52.7-10.9-46.53-41.53,5.64-28,36.42-29.29,59.04-23.53l-.29,15.28-1.49,1.25Z"/>
  <path class="cls-1" d="M331.75,35c23.8,2.41,18.52,33.61-2.05,35.95-1.28.15-4.25.28-5.38-.02-.6-.16-1.09-.78-.33-1.19,1.08-.58,3.99-.53,5.96-1.54,9.77-5,9.83-21,1.22-27.12-2.84-2.02-8.83-4.15-11.59-1.25l-.1,50.44c.53,1.78.28,6.81,1.85,7.77,1.27.77,7.68.79,7.66,1.71-.6.91-1.32.71-2.22.77-4.26.31-8.36-.53-12.55-.54-3.41-.01-6.96.85-10.5.55-1.12-.09-2.34.07-2.22-1.52,5.01.33,6.35-1.01,6.99-5.76,1.66-12.26,1.24-34.33.52-47.02-.1-1.83-.47-6.45-1.29-7.71-1.74-2.67-5.15-1.62-7.73-2.53l.75-.99c9.93.74,21.24-.99,31,0Z"/>
  <path class="cls-1" d="M242.25,40c-3.68.45-5.88,2.65-6.71,6.2l-1.54.3,2.28-12.53c2.09-.04,3.87.89,5.95,1.04,13.63.98,32.2.53,46.04,0,1.34-.05,2.58-.62,3.93-.56,1.41,1.76.34,3.63.3,5.29s.74,7.71-1.25,7.75c-.37-1.78-.3-3.87-1.78-5.23-.76-.7-4.81-2.28-5.72-2.28h-14.25l.06,52.19c.57,1.43.25,4.27,1.29,5.34,1.72,1.77,6.14.66,8.13,2.22-.02,1.14-7.98.8-9.26.77s-2.53-.54-3.95-.54c-3.75,0-10.16,1.32-13.46.45-2.98-.78,4.21-2.08,4.72-2.65.25-.28,1.47-3.79,1.47-4.03v-53.75c-5.13.45-11.24-.61-16.25,0Z"/>
  <path class="cls-1" d="M462,34.5v11.75c0,.39-.66,1.68-1.5,1.25-.34-1.44-.32-3.85-1.27-4.99-.68-.81-5.01-2.51-5.99-2.51h-14.25v53.25c0,.16.74,2.8.88,3.12,1.69,3.67,8.6,1.95,8.61,3.38-.35.48-.65.65-1.24.75-4.17.72-8.84-.5-12.98-.52-3.3-.02-9.73,1.29-12.44.44-.66-.21-.97-.73-.83-1.41,1.72.05,4.24.12,5.52-1.23.5-.53,1.48-3.45,1.48-4.02v-53.75h-16.25c-3.3,0-6.15,3.07-6.71,6.2l-1.54.3,2.28-12.53c1.98-.08,3.47.88,5.45,1.05,13.26,1.12,32.46.49,46.04,0,1.58-.06,3.11-.78,4.73-.52Z"/>
  <path class="cls-1" d="M70,74.5h-17.75c-.52,0-.76-1.21-.79-1.74-.13-2.18.87-6.56,1.04-9.01.13-1.9-.08-3.85,0-5.75,3.03.45,16.34-1.9,17.76.5s-.93,12.69-.26,16.01Z"/>
  <polygon class="cls-1" points="70 77 70.5 93 52.5 93 51.5 77 70 77"/>
  <path class="cls-1" d="M89,58v15.75l-.75.75h-15.25l.5-16.5c5.24.4,10.37-.77,15.5,0Z"/>
  <path class="cls-1" d="M70.97,41.03c.02,2.63.74,12.89-.96,14.18l-16.98-.24,2.58-13.85c1.71-1.74,12.52.18,15.36-.09Z"/>
  <path class="cls-1" d="M108.25,95.5c.47.36.64.52.66,1.13.09,3.1-2.4,9.7-2.53,13.24-.93,1.09-15.77.88-15.91-.17l1-13.4c.06-.22,1.64-.81,1.78-.81h15Z"/>
  <path class="cls-1" d="M35.75,74.5c-1.63-.51.1-6.82.24-8.26.61-6.28-2.04-8.81,6.24-8.77,2.71.01,5.1.66,7.77.52l-1,15.25-.75,1.25h-12.5Z"/>
  <polygon class="cls-1" points="49 77 50 93 36.5 93 35 77 49 77"/>
  <path class="cls-1" d="M126.5,77l-1,16h-12.75c-.51-.37-.54-.44-.54-1.02-.01-4.96.62-10.03.79-14.98h13.5Z"/>
  <path class="cls-1" d="M21,74.5l1.57-15.68c.4-1.24,3.55-1.38,4.69-1.36,1.21.02,6.49.52,6.68,1.33-.83,4.63-.61,9.85-1.45,14.46-.1.57-.24.94-.75,1.25h-10.75Z"/>
  <path class="cls-1" d="M37.75,95.5h11.5c1.59,0,2.61,9.94,2.87,11.63.1.65,1.56,3.37.13,3.37h-10.5c-1.96-2.59-2.89-7-3.72-10.28-.22-.87-1.56-4.72-.28-4.72Z"/>
  <path class="cls-1" d="M53,41.01l-2.6,13.9c-2.32,1.25-4.65.16-6.71.14-1.94-.02-3.93.99-6.16-.09-.78-.92,2.9-11.86,3.43-13.74,3.97-.54,8.11-1.33,12.03-.21Z"/>
  <polygon class="cls-1" points="32.5 77 33.5 93 22.5 93 21 77 32.5 77"/>
  <path class="cls-1" d="M139,58c.94,5.25,1.67,10.59,1.47,15.98l-10.15.45-.75-.75-1.54-14.48c-.11-.42.51-1.2.72-1.2h10.25Z"/>
  <path class="cls-1" d="M110.25,110.5c-.79-.25-.79-1.51-.77-2.22.13-3.78,2.19-8.27,2.04-12.26,1.54-.03,12.89-.94,13,.27-.82,3.52-1.6,7.38-2.67,10.81-.31.99-.93,3.4-2.1,3.4h-9.5Z"/>
  <path class="cls-1" d="M140.5,77c.28,5.39-.71,10.7-1.5,16h-11l1.5-16h11Z"/>
  <path class="cls-1" d="M121,41l3.78,12.99-.53,1.01h-12c-1.24-1.4-.97-3.8-1.38-5.62-.61-2.69-1.68-5.45-1.37-8.38h11.5Z"/>
  <path class="cls-1" d="M90.5,38l-1-11.5h11.75c2.37,2.92,2.48,7.46,4.17,10.84l-.72,1.14c-.38.07-.8-.48-.96-.48h-13.25Z"/>
  <polygon class="cls-1" points="105.5 113 102 124.5 89.5 124.5 90.5 113 105.5 113"/>
  <path class="cls-1" d="M38,110.5h-8.25c-1.18,0-1.73-2.01-2.12-2.87-1.59-3.51-3.39-8.35-3.63-12.13h9.25c.36,0,1.29,1.51,1.5,2,.87,2.05,2.64,8.55,3.13,10.87.15.71.17,1.41.12,2.13Z"/>
  <path class="cls-1" d="M34.5,55h-11l4.74-13.51c.8-.93,7.8-1.29,8.94-.87.62.22.79.48.84,1.13l-3.52,13.25Z"/>
  <path class="cls-1" d="M138.5,96c-2.35,4.67-2.96,10.37-6.25,14.5h-8.25c1.3-4.73,1.69-10.3,4.25-14.5h10.25Z"/>
  <path class="cls-1" d="M138,55h-9.75l-4.25-14h8.75c.35,0,1.09,1.27,1.28,1.72,1.55,3.62,2.87,8.45,3.97,12.28Z"/>
  <path class="cls-1" d="M87.5,113c.62,4.09-1,7.57-1,11.5h-11l-1-11.5h13Z"/>
  <path class="cls-1" d="M43.25,38.5c-.4-.12-.74-.79-.78-1.25-.11-1.3,4.79-10.32,5.88-10.65,2.61-.08,5.3-.99,7.92-.6.74.11.79-.3.74.75-.17,3.17-2.63,8.95-4.26,11.75h-9.5Z"/>
  <path class="cls-1" d="M19.93,58.07c.68,2.34-.63,4.52-.88,6.73-.69,6.31,1.58,11.45-7.58,9.48-1.49-1.05,1.56-13.35,1.27-15.79.72-1.21,6.69-1.21,7.19-.42Z"/>
  <path class="cls-1" d="M113.75,26.5c.77.21,6.3,10.98,5.75,11.5l-11.03-.22-3.47-11.28h8.75Z"/>
  <path class="cls-1" d="M13,93c-.49-5.28-2.24-10.86-1.71-16.06l7.21.05,1.5,16h-7Z"/>
  <path class="cls-1" d="M119.5,113c.47.45-4.71,10.32-5.75,11.5h-8.75l3.5-11.5h11Z"/>
  <path class="cls-1" d="M151,74.5c-1.78-.21-4.06.31-5.75,0-2.79-.51-1.83-8.49-2.75-10.75l-.03-5.52,6.28.26,2.24,16.01Z"/>
  <polygon class="cls-1" points="151 77 149 93 142 93 144 77 151 77"/>
  <path class="cls-1" d="M44.49,26.52c.46.68-4.61,10.81-5.7,11.52s-8.06.87-8.29-.3c3.52-4.98,6.26-14.17,13.99-11.22Z"/>
  <path class="cls-1" d="M25.5,110.5c-1.63-.23-4.55.57-5.76-.49-1.57-1.38-3.89-10.64-5.67-12.87l.4-1.41c1.98-.32,5.3-.89,6.54,1l4.48,13.77Z"/>
  <path class="cls-1" d="M14,55l5.46-13.65c.61-.77,5.08-.9,5.54-.61.86.53-.13,2.77-.38,3.65-.41,1.42-3.09,9.19-3.6,9.89-1.46,2.02-4.84.22-7.03.72Z"/>
  <path class="cls-1" d="M38.75,113l5.73,10.78c.2,1.07-.15.57-.7.73-2.51.78-4.96.8-7-1.04l-6.28-10.47h8.25Z"/>
  <path class="cls-1" d="M148,95.5l-5.48,13.76c-1.38,2-3.92,1.06-6.01,1.24.72-2.32,1.27-5.4,2.04-7.6.14-.39.75-.39.91-.79.51-1.32,1.25-6.24,2.85-6.5l5.69-.11Z"/>
  <polygon class="cls-1" points="131.5 38 123.25 38 117.24 26.99 117.74 26.02 124.29 26.96 131.5 38"/>
  <path class="cls-1" d="M147.5,55l-6.25-.5-4.75-13.5c1.71.24,4.83-.66,6.03.71l4.97,13.28Z"/>
  <path class="cls-1" d="M131.5,113l-6.97,10.78c-1.42,1.47-5.67.61-7.53.47l6.25-11.25h8.25Z"/>
  <path class="cls-1" d="M34.5,26.51l-6.64,10.86c-1.8,1.23-3.74,1.27-5.86,1.13-.17-.76.17-1.18.46-1.78.38-.78,7-9.64,7.54-9.96,1.07-.65,3.22-.08,4.5-.25Z"/>
  <path class="cls-1" d="M22,113c1.74.14,3.75-.45,5.28.46.56.33,7.23,10.14,7.2,10.79-.04,1.04-3.97.28-4.48,0-.42-.24-5.21-6.58-5.92-7.58-.37-.52-2.43-3.36-2.08-3.66Z"/>
  <path class="cls-1" d="M140,113l-8.1,11.39-4.39.11c1.94-2.03,5.61-10.09,7.5-11.24,1.14-.69,3.62-.05,4.99-.25Z"/>
  <path class="cls-1" d="M127.5,26.51c6.42-1.09,8.19,7.41,12.49,10.74.02.98-4.09.99-4.99.5-1.45-.8-5.97-9.42-7.5-11.24Z"/>
  <path class="cls-1" d="M470,123v-7.75l.75-.74.75.74v9.75c-3.33,1.79-5.33-6.72-6.26-7-1.14-.19-.68.5-.74,1.25-.18,2.17,1.05,6.19-2,5.76v-10c4.11-1.53,4.49,6.14,7.5,8Z"/>
  <path class="cls-1" d="M400,114.5v10.5c-3.74.75-4.85-4.95-6.51-7.5-2.6,1.42,1.46,7.92-2.49,7.5v-10c4.34-.76,4.44,5.01,6.75,7.5,2.03-.89-.91-7.87,2.25-8Z"/>
  <path class="cls-1" d="M325,125c-3.18,1.87-5.85-7.53-6.75-7.51l-.75,7.51h-1.5v-10c3.92-.72,4.81,4.89,6.51,7.5,1.67-.53.53-1.84.6-2.75.08-1.05.41-4.67.89-5.01l1,.51v9.75Z"/>
  <path class="cls-1" d="M368.5,115c1.84-.13,7.41-.69,8.25,1,1.16,2.34-1.17,3.34-1.18,3.75,0,.28,2.54,3.49,1.42,5.25l-1.76-.49c.7-5.38-7-5.87-4.85-.24l-1.88.73v-10ZM370.81,115.61c-1.18.34-1.1,3.14-.34,3.67,2.45.91,5.79-.19,4.04-3.05l-3.7-.62Z"/>
  <path class="cls-1" d="M382.88,114.61c3.31-.53,5.57.94,5.9,4.37.38,4.04-1.54,7.12-5.9,6.42-5.15-.83-5.14-9.96,0-10.78ZM385.87,116.13c-4.58-4.29-7.81,8.17-1.7,8.19,3.29.01,3.54-6.46,1.7-8.19Z"/>
  <path class="cls-1" d="M180.38,114.61c2.38-.39,5.18.58,5.59,3.17.5,3.14.02,7.23-3.76,7.71-6.82.87-7.83-9.9-1.83-10.88ZM183.37,116.14c-4.37-4.12-7.89,8.17-1.7,8.19,3.29.01,3.54-6.45,1.7-8.19Z"/>
  <path class="cls-1" d="M411.5,117.5c-1.1,1.1-3.04-3.53-6.17-1.53-1.18.75-1.16,6.23-.37,7.32,1.39,1.94,5.05.99,5.06-1.52,0-1.5-2.99-.21-2.51-2.26l3.52.21.47,5.29c-1.97-1.15-3.11.53-4.74.54-5.74.04-5.84-10.25-.46-11.02,1.98-.28,5.55.35,5.21,2.98Z"/>
  <path class="cls-1" d="M232.5,115h2v7.75c0,1.49-3.34,2.79-4.75,2.8s-4.25-1.3-4.25-2.8v-7.75c.58-.2,2,.22,2,.75v7.5c1.19,1.4,3.74,1.44,5,0v-8.25Z"/>
  <path class="cls-1" d="M310,125l-1.54-.29-.51-2.15-5.5.23-.5,2.15-1.94.06,4.31-9.97,1.23-.3c1.72.32,4.92,9.82,4.45,10.27ZM307,121c0-.64-1.36-4.97-1.99-4.5l-1.5,4.5h3.5Z"/>
  <path class="cls-1" d="M199.5,115c2.3.33,6.17-.87,7.79.96,1.8,2.04-.62,2.92-.63,3.78,0,.53,2.19,3.47,1.34,5-2.69,1.25-1.56-2.39-2.45-3.55-.77-1-4.06-1.18-4.48.12l-.07,3.68h-1.5v-10ZM201.07,116.07c-.31.5-.2,2.79.39,3.21,1.24.44,3.63.54,4.29-.77,1.57-3.13-4.03-3.47-4.68-2.43Z"/>
  <path class="cls-1" d="M221.36,116.16c-1.16-.96-2.78-.72-4.07-.21l-.31,2.21c.33,1.29,6.19,1.01,6.94,3.7,1.12,4.02-9.73,5.55-8.92.14,2.16-.6,1.35,1.24,2.12,1.88,1.27,1.05,4.95.69,4.87-1.65-.07-2.1-6.58-1.54-7.01-4.5-.54-3.8,6.29-3.98,7.96-1.92.59.73.62,1.14-.2,1.69-.97.19-.96-.99-1.38-1.34Z"/>
  <path class="cls-1" d="M339.87,115.12c.39.33.84,2.14.63,2.37-1.74-.11-1.74-1.92-3.75-2.05-1.34-.08-2.45.34-2.56,1.81-.17,2.39,5.18,1.82,6.34,3.45,3.49,4.93-8.11,7.14-8.53,1.29l1.92.08c.3,3.11,4.61,3.09,5.47.16-1.37-2.34-6.56-1.84-7.17-4.7s5.91-3.89,7.65-2.42Z"/>
  <path class="cls-1" d="M476,115v4.5c2.09-1.37,3.8-4.29,6.5-4.49l-3.52,4.24,4.02,5.75c-1.9,1.7-7.12-10.65-7,0h-1.49c-.02-2.66-2.27-10.16,1.49-10Z"/>
  <path class="cls-1" d="M356,117.5c-.55.64-2.2-1.87-3.27-2.01-2.39-.32-3.72,1.1-2.23,3.27,1.52.87,4.5.49,5.54,1.95,2.86,4.04-4.6,6.35-7.55,3.56-.43-.41-1.44-2.02-.22-2.27.94-.19,1.15,1.23,1.78,1.71,1.28.97,2.94.52,4.35.18,2.44-5.46-8.99-1.82-5.93-8.19,1.24-1.48,6.43-1.61,7.31-.22.26.41.37,1.85.23,2.02Z"/>
  <path class="cls-1" d="M431.5,117.5c-1.53.05-1.76-1.74-3.27-2-2.36-.41-4.34,1.47-2.37,3.03,1.85,1.47,6.01.35,6.17,3.71.2,4.29-8.85,4.49-9.03-.23l1.92.08c.21,2.36,2.29,2.96,4.26,1.85,4.5-2.54-4.26-3.82-5.22-5.14-3.16-4.35,7.58-6.5,7.53-1.29Z"/>
  <path class="cls-1" d="M190,115v7.75c0,.08.5,1.05.62,1.13,1.46.95,4.88.22,4.88-1.63v-7.25h1.5v8.25c0,.58-2.45,2.11-3.29,2.23-3.4.49-5.26-.95-5.68-4.29-.16-1.24-.42-7.19,1.97-6.19Z"/>
  <path class="cls-1" d="M236.5,115.75c9.02-3.96,13.06,4.89,2,5.25-.25.25.75,5.87-2,3.25v-8.5ZM238.5,119.5c2.74.08,5.46.63,4.28-3.03l-3.8-.76-.48,3.79Z"/>
  <path class="cls-1" d="M290,115h1.5s.47,3.78.47,3.78h4.56l.47-3.78h1.5v10h-1.5s-.22-4.53-.22-4.53c-.68-.97-4.14-.46-5.21.1l-.07,4.43h-1.5v-10Z"/>
  <path class="cls-1" d="M281.61,123.9c2.86.83,3.99.29,5.15-2.4,2.34-.62.94,4.22-3.5,4.04-4.14-.18-4.67-3.88-4.27-7.3.71-6.09,9.48-3.5,9.01-.99-.35,1.86-2.67-1.56-3.77-1.75-4.43-.76-3.96,5.67-2.62,8.4Z"/>
  <path class="cls-1" d="M248.5,125h-1.48s.02-9.96.02-9.96c2.05.13,7.5-.95,7.98,1.72.61,3.43-3.24,4.76-6.03,3.96l-.49,4.28ZM248.5,119.5c6.19,1.36,6.11-4.8.47-3.79l-.47,3.79Z"/>
  <path class="cls-1" d="M414,115h7.5c-.43,1.36-5.19.19-5.53,1.29l.51,2.98,4.52-.26v1.5c-1.16-.73-5.04-1.01-5.29.73l.31,2.77c.18.19,4.3-.12,5.25,0s.81-.17.74,1h-8v-10Z"/>
  <path class="cls-1" d="M481.5,31.5c-1.93.39-.66-2.9-1-4l-2.25,4c-1.34.31-2.25-3.56-2.25-4.49l-1,4.5c-1.98-1.41-.61-4.94-.99-7l1.93.08,1.58,4.93c2.23-1.05.79-5.41,3.99-5v7Z"/>
  <path class="cls-1" d="M268.49,119c.31-.82,1.47-3.39,1.99-3.76,4.12-2.91-1.28,4.77-1.38,5.12-.38,1.34.24,2.83-.34,4.16l-1.76.49c.99-4.4-2.57-6.76-3.5-10.5,2.04-.46,3.55,5.49,4.99,4.49Z"/>
  <path class="cls-1" d="M171.5,125h-1.5c1.03-4.35-2.56-6.24-3.5-10,2.5-.97,3.31,5.88,5.03,3.69.18-.23,3.06-6.3,3.46-3.43.15,1.04-2.86,4.18-3.27,5.72-.36,1.36-.25,2.65-.24,4.02Z"/>
  <path class="cls-1" d="M361.5,116l-4-.51c-.15-.65.48-.59.96-.69,2.3-.44,6.01.68,8.54.2l-4,1.74v8.25h-1.5v-9Z"/>
  <path class="cls-1" d="M442.5,115v.49s-4,.51-4,.51v9h-1.5v-9c-1.35-.09-3.42.54-4-1h9.5Z"/>
  <polygon class="cls-1" points="258.5 115 258.5 124 264.5 124 264.5 125 257 125 257 115 258.5 115"/>
  <polygon class="cls-1" points="450.5 115 450.5 124 456.5 124 456.5 125 449 125 449 115 450.5 115"/>
  <rect class="cls-1" x="457.97" y="115" width="2.03" height="10"/>
  <path class="cls-1" d="M313.5,124.25c-.11.39-1.13,1.02-1.5.75-.28-2.62-1.11-7.79.24-10.01.5-.83,1.26.05,1.26.26v9Z"/>
  <path class="cls-1" d="M473,24.5c.49,1.78-1.68.67-2,.99-.03,1.41.06,2.84,0,4.26-.03.77.47,1.98-.74,1.74-1.04-.41-.09-4.41-.74-5.64-.38-.72-1.86-.24-2.02-1.35h5.5Z"/>
  <polygon points="366.5 74 374.25 52 375.49 52.35 383 74 366.5 74"/>
  <path d="M370.81,115.61l3.7.62c1.75,2.86-1.59,3.95-4.04,3.05-.76-.53-.84-3.33.34-3.67Z"/>
  <path d="M385.87,116.13c1.84,1.73,1.59,8.21-1.7,8.19-6.11-.02-2.88-12.49,1.7-8.19Z"/>
  <path d="M183.37,116.14c1.85,1.74,1.59,8.2-1.7,8.19-6.19-.02-2.67-12.31,1.7-8.19Z"/>
  <path d="M307,121h-3.5s1.5-4.5,1.5-4.5c.63-.47,1.99,3.85,1.99,4.5Z"/>
  <path d="M201.07,116.07c.66-1.04,6.25-.7,4.68,2.43-.66,1.31-3.05,1.21-4.29.77-.59-.41-.71-2.71-.39-3.21Z"/>
  <path d="M238.5,119.5l.48-3.79,3.8.76c1.17,3.66-1.55,3.12-4.28,3.03Z"/>
  <path d="M248.5,119.5l.47-3.79c5.64-1.02,5.73,5.15-.47,3.79Z"/>
</svg>