<?xml version="1.0" encoding="UTF-8"?>
<svg id="Layer_1" data-name="Layer 1" xmlns="http://www.w3.org/2000/svg" viewBox="0 0 519.84 519.84">
  <defs>
    <style>
      .cls-1 {
        fill: #fff;
      }
    </style>
  </defs>
  <path d="M416.16,153.46l-5.66.38c-27.2-40.07-71.63-68.29-119.53-76.48-70.96-12.12-142.3,17.45-183.17,76.13-.75,1-5.57.18-5.56-.28,26.07-39.51,68-68.09,114.24-78.65,69.26-15.81,140.31,7.85,186.49,61.14l13.19,17.75Z"/>
  <path d="M31.2,254.17h2.4s0,2.88,0,2.88c6.79.7,17.48-3.16,22,3.67,2.77,4.18,2.21,11.45-2.37,14.26-.9.56-4.56,1.72-5.48,1.72h-12.96c-1.43,0-.1,3.24-.24,3.35h-2.88s0-11.03,0-11.03h2.4s0,2.88,0,2.88h13.68c.82,0,3.73-1.13,4.53-1.71,2.74-2,2.77-6.13.01-8.1-.32-.23-2.46-1.22-2.62-1.22h-15.36l-.67.76.43,2.6h-2.88s0-10.07,0-10.07Z"/>
  <path d="M290.88,463.74v1.91s-2.4,0-2.4,0l1.44,15.83h2.4s0,1.9,0,1.9c-2.38.11-4.81.69-7.2.77-.56.02-1.11.31-1.43-.52-.74-1.9,2.21-1.21,2.42-1.97-.25-2.64-.28-5.42-.57-8.04-.06-.56-.22-2.63-.9-2.69-.98,2.27-3.29,13.14-5.05,13.9l-6.95-11.98.96,10.55,2.39-.48.02,1.61-6.74,1.04-.47-1.45,2.42-.99-1.47-15.55h-2.4s0-1.92,0-1.92l6.27-.28c.04,1.17,6.13,12.7,6.68,12.27.97-4.39,3.73-8.95,3.37-13.42l7.2-.48Z"/>
  <path d="M115.68,425.36c4.24-1.67,8.73-3.35,12.31-6.19l4.97,4.05-1.2,1.66-1.51-1.4-10.73,11.71c1.09.37,2.11,3.04.72,3.11-.44.02-6.61-5.37-6.48-5.98.36-1.73,2.43.11,2.74.16,1.13.2,6.74-7.21,7.82-8.56l-13.92,6.23,4.32-13.9c-1.06-.26-1.07.61-1.54,1.1-2.12,2.2-3.91,4.72-6.14,6.82l1.46,1.46-.75,1.65c-1.29-.85-5.38-3.39-5.03-5.02s2.35.62,2.65.62c.24,0,1.57-1.45,1.92-1.82,2.94-3.12,5.89-6.84,8.36-10.25l-1.4-1.5,1.19-1.18,4.51,4.12c-.99,1.37-4.75,12.62-4.27,13.12Z"/>
  <g>
    <path d="M455,145.34l7.72,14.83c-2.53.72-6.27,4.91-6.21.04l1.91-.74.47-.95-2.44-5.03c-.42-.3-6.02,2.81-6.84,3.4-1.65,1.19.56,2.48,1.12,4.03,1.34.87,2.36-1.46,3.39-.06,1.38,1.89-2.34,3.34-4.02,4.19-2.32,1.17-4.11,2.78-4.14-1.01l1.91-.74.47-.95-2.22-3.58-7.31,3.87,2.81,5.95,3.36-1.7.9,1.78c.22,1.28-5.41,3.7-5.68,3.5l-7.65-15.29,2.35-1.01.96,2.19h1.46s15.83-8.67,15.83-8.67c1.35-1.21-2.86-4.13,1.87-4.04Z"/>
    <path d="M442.98,124.24c1.23,1.3.4,2.67.76,3.76,1.01,3.04,6.42,7.97,7.51,11.52l1.8-.42,1.01,2.08-6.91,4.58-1.2-2.1,2.3-2.36-2.98-3.64-14.99,10.02,1.22,3.34-2.11.97c-.49-.1-5.24-7.39-5.66-8.29-1.02-2.18,2.21-2.89,2.98-.07l.98.03,14.65-9.89c-.47-2.99-2.48-5.9-5.32-2.89l-1.16-2.09,7.11-4.57Z"/>
  </g>
  <path d="M82.99,128l-3.73-1.34c.05,1.22-2.88,3.28-2.23,4.27l15.38,10.53c.98-1.78,1.9-3.25,3.56-1.14l-6.03,8.79c-2.7-.26-2.06-1.63-.72-3.18l-.38-.89-15.35-10.26-2.36,4.05,2.28,1.96-1.2,2.1-6.92-4.32c-.15-2.42,2.61-1.87,2.77-1.98.59-.37,7.76-10.82,8.04-11.47.46-1.09-.77-2.79.96-3.81l6.74,4.8-.81,1.88Z"/>
  <g>
    <path d="M139.13,97.29c-1.96.52-6.92,6.89-8.56,6.08-2.78-1.38,1.41-2.99,1.42-3.38l-10.07-11.27,5.27,18.7-16.79-7.67,8.22,10.48,2.99-1.34,1.74,1.65-6.89,5.48-1.23-1.58,1.66-1.74-.32-1.12-11.67-13.79c-1.79-1.39-2.32,1.14-3.33.96l-1.23-1.23,5.97-5.92c4.45,4,10.78,5.88,16.08,8.62-1.62-5.63-2.66-12-5.72-16.96l6.03-5.55,2.09,1.64-2.35,1.92,13.16,15.58,2.34-1.88c.74.37,1.66,1.5,1.2,2.31Z"/>
    <path d="M142.56,93.52c.78,1.71.11,3.07-1.87,2.82l-4.16-7.14c2.28-2.58,2.56.73,4.3,1.49,2.98,1.31,7.23-.14,6.23-3.78-1.21-4.38-7.57-2.59-10.94-3.02-7.4-.96-9.92-10.12-3.01-13.48.67-.33,3.11-.77,3.21-.9.11-.16-1.01-2.12,1.69-2.84l4.05,6.88-1.66,1.23c-1.98-4.98-9.47-2.33-7.19,2.43,1.14,2.38,8.08,1.15,10.52,1.48,9.64,1.31,9.2,15.79-1.16,14.83Z"/>
  </g>
  <path d="M79.68,165.44l1.43.72c-1.5,3.94-6.54-1.29-9.06-2.38l.91-2.17c1.45.18,1.9,1.44,3.58,1.46,3.07.02,6.5-3.14,4.1-6.02-2.92-3.51-6.76.45-9.95,1.58-10.52,3.72-15.94-6.07-7.33-12.6l-1.43-.95,1.03-1.61c1-.6,6.05,2.7,7.09,3.57l-1.16,2.06c-3.21-3.25-8.21,1.04-5.96,4.56s7.62-1.29,10.18-2.2c10.23-3.65,15.66,8.37,6.57,13.99Z"/>
  <path d="M40.73,229.3l.07,2.33c-5.34-2.33-8,6.59-2.63,6.74,3.9.11,5.85-6.94,9.96-8.28,8.42-2.75,13.78,5.14,8.51,11.86l1.4.26.04,2.85-8.64-.95v-2.4c5.03,1.81,9.89-6.72,4.05-7.65-4.7-.75-6.82,7.09-11.23,8.39-8.34,2.47-12.07-4.69-8.17-11.52l-1.43-.26.19-1.93c.54-.79,7.65.19,7.88.58Z"/>
  <path d="M233.7,464.27l.06,1.86-2.18-.35c-1,.17-.82,5.2-1.22,6.3l8.2,1.25.48-6.72h-2.4c-.25-3.72,6.73-.94,9.12-.95l-.49,1.92-2.39-.48-1.93,15.82,2.34.55.07,1.85-8.64-.96v-1.91s2.88,0,2.88,0l.48-6.72-7.94-.5-.64,5.96,2.31.81.02,1.89-9.12-.96.55-1.84,2.33-.07,1.8-15.13-2.25-.73-.03-1.88,8.58,1.01Z"/>
  <g>
    <path d="M47.56,181.79l-.52,2.36-2.43-.78,3.88-10.25,2.39.49-.9,2.72.41.88c4.32,1.35,18.09,10.19,20.44,2.66,2.48-7.96-11.75-9.72-16.35-12.93l-1.91,2.82-1.47-.94c-.58-.89,3.33-9.53,3.86-9.57l1.65,1.25-.91,2.33.48.47c6.48,3.27,18.23,4.93,17.95,14.22-.08,2.81-1.72,6.61-4.01,8.34-6.84,5.16-15.65-3.12-22.54-4.06Z"/>
    <path d="M62.88,192.3c3.71.73,3.6,4.22,3.29,7.37-1.79,18.45-32,12.2-24.91-7.15.52-1.43,2.55-2.83.47-3.34l.48-1.46c.83-.59,9.5,1.52,6.74,3.38-1.4.94-3.65-.13-5.38,2.78-4.93,8.27,13.28,15.46,18.83,8.74,3.19-3.86.14-9.88.48-10.32Z"/>
  </g>
  <path d="M144.48,432.08c-1.61.9-2.42,4.74-3.81,1.26l1.4-1.5-4.32-2.9-3.28,5.23,2.57,2.21,1.43-1.88,1.68,1.18-4.13,5.45-1.62-.42,1.42-2.64-3.33-2.15-3.84,5.51,3.81,2.93c.76.2,2.83-3.17,3.38-1,.27,1.05-1.93,3.21-2.64,4.02l-10.79-7.87,1.26-1.15,1.79.87,9.41-12.67-1.89-1.42,1.18-1.68,10.21,7.3c.25.41.12.88.11,1.32,1.45-.81,4.35,1.85,5.72,2.63-.53.76-.92,1.41-.93,2.39-.04,3.96,2.1,10,2.42,14.16l5.7-9.44-1.85-1.82.93-1.47,6.25,3.16-.48,1.89-2.86-.95-8.66,15.34c-.09.06-1.24-.56-1.4-.74-1.84-2.03-2.21-14.17-3.39-17.48l-5.57,8.62c-.45,1.13.78,1.83,1.73,1.94l-.95,1.71-6.25-3.17,1.19-1.88,1.52.89.88-.43,7.44-13.42-1.92-.49c.13-.46.47-.96.48-1.43Z"/>
  <path d="M92.16,397.55c1.22,2.97-2.2,6.95-2.32,8.96-.05.86,1.89,1.71-.75,2.53-6.2-4.58,1.47-7.89.44-13.42-.48-.56-.57-.57-1.22-.23-1.45.75-3.2,2.99-4.79,3.84l1.4,1.5-1.16,1.61-5.5-6.47,1.19-1.2c1.25-.28.6,2.5,2.9.98l11.05-9.14-1.22-2.16,1.19-.73c.87,0,5.59,5.91,6.04,6.93,2.26,5.18-2.24,9.06-7.23,6.99ZM96.47,389.4c-.43-.31-6.67,3.9-5.75,5.27,4.03,1.64,7.45-1.03,5.75-5.27Z"/>
  <g>
    <path d="M474.72,184.63c.95,1.68-.51,2.84-.41,3.95.09,1.05,3.69,13.07,4.23,13.53.25.21,2.07-.12,1.75,2.2l-7.93,2.36-.5-2.36c4.72-.61,1.95-2.6,1.91-5.77l-18.72,5.29.92,2.6-2.35,1.24-2.86-11,2.37-.51.51,2.87,18.2-5.29-1.65-5.22-3.09.92-.5-2.35,8.14-2.42Z"/>
    <path d="M471,179.24c.25.24.95.16,1.27.38l.29,1.18-6.96,2.87c-1.36-3.28,2.14-3.11,1.96-6.97-.51-11.29-25.77-1.99-18.99,8.38,1.07,1.63,3.49,3.32,5.02,4.58-2.91,2.76-6.56-2.08-7.86-4.61-7.93-15.43,17.16-26.48,23.79-10.82.43,1.01,1.28,4.81,1.48,5Z"/>
    <path d="M479.99,208.6l2.41,11.03-2.41.27-.47-2.67-20.16,3.84.48,3.35-2.35-.05c.19-2.93-4.63-11.5.43-10.98l.78,2.91,19.38-3.87-.48-3.35,2.39-.49Z"/>
  </g>
  <path d="M304.29,460.89c.12,2.3,2.35,5.26-1.4,4.76v-2.4s-5.17,1.18-5.17,1.18l1.36,5.99,3.27-.49.12-2.28,1.85-.55.9,7.13-1.85.54c.36-3.83-1.07-2.51-3.85-2.4l.97,7.2,5.27-.98-.47-2.85,1.91-.49.91,4.53c-.15.61-.7.58-1.17.73-1.21.4-11.79,2.38-12.22,1.94l.03-1.88,2.27-.73-2.77-15.13-2.88.48.05-1.62.74-.69,12.13-1.96Z"/>
  <path d="M166.2,443.94c.35.36,8.51,4.13,9,4.24.78.19,3.22-.44,3.38.5l-2.44,5.93-1.9-.49.96-2.86-3.84-1.45-6.24,13.19,1.87.76-.67,2.34-7.38-4.12.42-1.62,1.75.91c.44.12.62-.14.88-.43.45-.5,5.62-11.23,5.81-11.99.45-1.76-2.26-1.89-3.37-2.42l-.78,1.92-2.38-.47,2.89-6.23c1.68.13,1.62,1.83,2.04,2.27Z"/>
  <path d="M341.76,470.44l-6.68,1.9-.47-1.82,1.39-.79-3.38-3.4-4.57,1.69.28,4.82,1.43-.48.29,1.94-4.62,1.21-.49-1.45c2.95-1.52,1.03-7.15.96-10.07-.03-1.37-.18-9.37.09-9.78.1-.15,1.24-.51,1.54-.46,1.38.26,9.83,12.43,11.6,14.28l2.42.94.21,1.46ZM327.84,465.65c.25.26,3.22-.57,3.36-1.21l-3.13-4.54-.24,5.75Z"/>
  <path d="M217.87,461.87l-.71,4.29-2.12-.03.42-2.82-4.74-1.02-1.44,6.71,3.56.52,1.01-1.95,1.63.76-1.42,6.41-1.89.03.02-3.11-3.38-.72-1.44,6.71,2.4.49-.54,1.87c-2.47-.62-8.82-.41-8.1-3.79l2.1.45,4.15-15.04-2.41-.76.52-1.89,12.39,2.91Z"/>
  <path d="M88.31,374.05l.25,2.37-10.58,13.97c.33,6.75-3.82-.3-5.03-2.65.75-1.4,2.05-.05,2.88-.46.17-.08,2.29-2.79,2.32-2.98l-2.41-4.4-4.72.88.48,1.91-1.62.39c-1.35-1.1-4.38-4.72-1.03-4.72.37.73.29,1.28,1.3.89l18.14-5.19ZM83.04,377.41l-5.28,1.44,1.45,3.35c.32.22,4.24-4.41,3.83-4.79Z"/>
  <g>
    <path d="M399.42,416.18l-.51-1.14-1.15-.17-3.14,2.99,4.03,5.11,3.11-2.64c0-.5-3.53-2.15.42-2.6l3.81,5-1.1,1.19-1.92-1.82-2.58,2.46,3.84,5.06c1.16.65,4.34-2.86,4.23-3.47l-1.38-1.56,1.17-1.61,3.03,3.59-9.75,8.86-1.17-1.61,1.38-1.56-10.28-11.7c-.51.01-2.31,1.85-2.64.25-.25-1.21,8.22-7.45,9.39-8.85l3.09,3.11c.19.87-1.13,1.55-1.86,1.12Z"/>
    <path d="M391.21,442.17l.26,1.42-1.65.4c-.18-1.14-4.06-4.92-3.42-5.68,1.11-1.33,2.84,1.6,4.19,1.84,2.88.52,5.41-2.16,3.23-4.7s-8.7.75-12.24-2.63c-1.67-1.59-1.91-4.25-1.05-6.37.98-2.42,4.71-2.76,4.89-3.03.06-.09-.9-1.56.27-1.89,1.64-.46,3.18,3.73,4.55,4.55l-1.68,1.19c-1.6-4.3-7.84-.53-5.25,2.39,1.79,2.01,5.08.51,7.12.55,8.29.17,9.29,11.22.78,11.96Z"/>
  </g>
  <path d="M105.12,395.16c.29.88-.06,1.82.44,2.63.64,1.03,6.02,6.22,7.24,7.24.64.54,1.32.35,1.68.65,2.14,1.8-2.98,3.59-3.84,5.29l-1.19-1.19,1.89-1.92-2.37-2.91h-.97s-10.55,10.1-10.55,10.1l1.43,1.44-1.19,1.19c-.75-1.02-5.71-5.11-5.52-5.99.45-2.1,2.53.38,3.11.71l10.8-10.31-3.11-3.11c-.24,0-2.26,2.99-2.64,1.18-.28-1.33,4.24-5.43,4.8-5.02Z"/>
  <polygon points="313.92 458.46 313.85 460.31 312.04 460.9 315.6 475.73 316.45 476.12 320.65 475 320.68 471.93 322.31 471.4 323.49 475.9 310.08 479.55 310.16 477.71 311.8 477.19 308.16 461.81 305.51 461.83 305.28 460.38 313.92 458.46"/>
  <path d="M54.37,222.64c2.97-3.15,8.32,1.34,5.18,4.46-2.82,2.8-7.89-1.58-5.18-4.46Z"/>
  <circle cx="54.05" cy="250.99" r="3.26"/>
  <g>
    <path d="M463.68,258.48v2.88s-2.88,0-2.88,0l.48-8.63h2.41s0,2.88,0,2.88l20.16.48v-2.88s2.4,0,2.4,0v7.19c-1.07-.15-1.7,0-2.66.46-1.81.89-12.08,9.29-13.89,11.05-.47.46-.9.62-.73,1.43h14.4v-2.88s2.88,0,2.88,0c.24.17-.48.61-.48.71v8.39h-2.4s0-3.36,0-3.36l-22.56-.48.45-3.15,16.83-13.16c.13-.18-.63-.95-.72-.95h-13.68Z"/>
    <g>
      <path d="M485.46,237.71c0,7.22-5.86,13.07-13.08,13.07s-13.08-5.85-13.08-13.07,5.86-13.07,13.08-13.07,13.08,5.85,13.08,13.07ZM463.85,233.71c-2.85,2.69-2.74,6.67.3,9.2,5.17,4.3,19.83,1.53,18.72-6.69-1-7.39-14.62-6.65-19.01-2.51Z"/>
      <path class="cls-1" d="M463.85,233.71c4.39-4.14,18.01-4.88,19.01,2.51,1.12,8.22-13.55,10.99-18.72,6.69-3.04-2.53-3.15-6.51-.3-9.2Z"/>
    </g>
  </g>
  <g>
    <path d="M285.52,46.22c0,7.23-5.86,13.09-13.1,13.09s-13.1-5.86-13.1-13.09,5.86-13.09,13.1-13.09,13.1,5.86,13.1,13.09ZM272.05,35.58c-8.79.99-9.24,21.66.28,21.32s9.69-22.44-.28-21.32Z"/>
    <g>
      <g>
        <path d="M300.48,49.88c3.35,3.02,4.51,6.74,5.51,11.03l5.02,1.41,5.71-18.55-.39-.85-2.36-.99c.34-.52,0-2.28,1.07-2.05,3.26.69,11.78,3.49,14.4,5.28,8.23,5.64,4.57,21.69-5.24,22.9-6.53.8-15.75-4.66-22.57-5.19-1.92-1.53-1.32-12.54-6.43-12.04l-1.44,8.15,3.36.49-.49,2.38c-.36.37-9.26-1.21-10.22-1.52-.37-.12-.63-.29-.76-.67l.43-2.12c.23-.23,2.89,1.4,3.26-.33l3.43-18.17c-.03-1.5-1.87-1.15-2.86-1.15v-2.4c.45-.45,10.76,1.54,12.12,2.04,6.38,2.38,5.64,12.23-1.56,12.35ZM296.16,48.44c5.76.9,7.66-8.82,1.45-9.1l-1.45,9.1ZM315.85,64.24c12.15,5.35,18.34-16.77,5.97-19.57l-5.97,19.57Z"/>
        <path class="cls-1" d="M315.85,64.24l5.97-19.57c12.37,2.8,6.18,24.92-5.97,19.57Z"/>
      </g>
      <path class="cls-1" d="M296.16,48.44l1.45-9.1c6.2.28,4.3,10-1.45,9.1Z"/>
    </g>
    <g>
      <g>
        <path d="M197.23,41.77l.53,2.35-2.77,1.19c.62,2.65,7.81,20.49,7.06,21.33-.09.11-2.35.61-2.81.27l-18.76-10.79,4.32,13.43,3.35-.96.28,2.4c-5.55,2.22-11.1,4.27-16.36,7.13l-1.19-2.08,1.43-.75v-.7s-3.83-3.86-3.83-3.86c-1.46.68-6.07,1.89-6.27,3.39-.11.76.63,5.29,1.21,5.4l1.68-.37.47,2.36-5.72,2.44-.97-2.39,1.95-.78-3.17-24.16,2.63-.73,16.07,16.12c2.29,1.34,4.03-.8,5.96-1.7l-6.19-18.46-3.32.45-.49-2.36,7.13-1.89,1.32,2.28,16.01,9.66-4.36-13.87-3.02.41c-.75-.21-.98-1.43-.8-2.11.12-.44,8.23-2.86,8.61-2.6ZM166.08,69.05c.53-.72-4.39-5.09-5.27-5.75l.96,7.19,4.32-1.45Z"/>
        <path class="cls-1" d="M166.08,69.05l-4.32,1.45-.96-7.19c.89.66,5.8,5.03,5.27,5.75Z"/>
      </g>
      <g>
        <path d="M223.03,41.41c4.11,4.11,5.33,13.52,1.34,18.02-3.69,4.16-13.12,4.73-18.39,5.72l-.55-2.33,2.85-.52-3.84-19.58-3.32.45-.49-2.4c7.03-1.27,16.52-5.22,22.39.65ZM213.12,61.38c8.77-.67,10-8.53,6.5-15.37-2.37-4.61-5.36-5.22-10.34-4.78l3.85,20.14Z"/>
        <path class="cls-1" d="M213.12,61.38l-3.85-20.14c4.98-.45,7.98.17,10.34,4.78,3.51,6.83,2.28,14.7-6.5,15.37Z"/>
      </g>
    </g>
    <path class="cls-1" d="M272.05,35.58c9.97-1.12,9.74,20.99.28,21.32s-9.07-20.34-.28-21.32Z"/>
    <g>
      <path d="M251.04,45.08l3.82,1.69c2.91,2.42,3.19,6.43.76,9.35-3.64,4.37-12.5,2.05-17.53,3.34l.45-2.67,2.43-.21-.96-20.14h-3.36s0-2.4,0-2.4c4.58.37,16.32-2.79,17.65,3.71.63,3.07.02,6.3-3.24,7.33ZM245.28,45.08c5.63-.74,5.29-9.22-.48-9.11l.48,9.11ZM245.76,56.59c8.15.1,7.83-10.55-.48-9.11l.48,9.11Z"/>
      <path class="cls-1" d="M245.76,56.59l-.48-9.11c8.31-1.44,8.64,9.21.48,9.11Z"/>
      <path class="cls-1" d="M245.28,45.08l-.48-9.11c5.77-.11,6.11,8.37.48,9.11Z"/>
    </g>
    <g>
      <path d="M347.04,77.69c-.32.36-.46.52-.71.95l-15.61-6.72.94-2.18c.69-.4,2.41,1.46,3.13.28l7.42-18.19-2.29-1.28.41-2.11,15.82,6.98-1.95,4.97-2.84-.45,1.24-3.36-6.03-2.39-2.85,7.39,4.06,2.13,1.41-2.79,2.14,1.22-3.33,8.36-2.39-.97.92-3.79-3.57-1.42c-.6.05-4.08,7.65-3.53,8.51l5.46,2.44,1.67-3.14c4.49-.08.48,3.43.49,5.55.35-.4,1.05-.55.97-1.44l2.59,1.43,9.83-17.09-.42-.88-1.93-.72,1.25-2.36c3.18,2.02,10.95,4.66,12.3,8.26,1.96,5.25-1.76,10-7.3,8.98-.14,1.04.93,1.46,1.22,2.37.27.87.55,2.73.64,3.68.26,2.9-1.22,6.11,1.54,7.2.02,4.35-4.88.39-6.69-1.11.11-2.31,1.48-12.51-1.28-13.1-1.11-.24-3.64,5.98-4.48,7.03l-.07.63,2.36,1.26-1.15,2.05c-2.3-1.7-6.6-3.01-8.6-4.8-.54-.48-.77-.53-.77-1.37ZM365.1,62.85l-4.55,7.42c4.16,4.11,10.37-5.19,4.55-7.42Z"/>
      <path class="cls-1" d="M365.1,62.85c5.82,2.23-.39,11.53-4.55,7.42l4.55-7.42Z"/>
    </g>
  </g>
  <g>
    <path d="M111.17,118.34c0,7.18-5.83,13-13.01,13s-13.01-5.82-13.01-13,5.83-13,13.01-13,13.01,5.82,13.01,13ZM90.4,110.94c-7.14,7.14,10.12,22.54,16.16,13.98,5.08-7.21-9.85-20.28-16.16-13.98Z"/>
    <path class="cls-1" d="M90.4,110.94c6.3-6.3,21.24,6.78,16.16,13.98-6.03,8.56-23.3-6.85-16.16-13.98Z"/>
  </g>
  <g>
    <path d="M434.8,120.66c0,7.18-5.83,13-13.02,13s-13.02-5.82-13.02-13,5.83-13,13.02-13,13.02,5.82,13.02,13ZM423.23,111.85c-5.56.94-14.5,10.37-9.48,15.95,6.32,7.03,22.87-7.27,15.84-14.39-1.7-1.73-4.07-1.95-6.37-1.56Z"/>
    <path class="cls-1" d="M423.23,111.85c2.3-.39,4.66-.17,6.37,1.56,7.02,7.12-9.52,21.42-15.84,14.39-5.03-5.59,3.91-15.01,9.48-15.95Z"/>
  </g>
  <g>
    <g>
      <path d="M406.08,104.54c.39,1.57,1.02,2.27.99,4.07-.04,2.39-2.02,6.81-1.94,8.18.06,1.02,1.33,1.5,1.32,1.89l-1.1,1.69-5.06-4.12c.94-3.47,3.58-8.34,2.89-11.93-.16-.85-.93-2.04-1.92-1.48l-5.26,5.79c1.57,1.44,2.93,2.43.71,4.07-1.08-1.37-2.59-2.21-3.85-3.34-1.47-1.31-6.06-4.9-2.45-5.73l1.99,1.87,13.46-14.39v-.94s-1.69-1.68-1.69-1.68l1.67-1.67c2.82,3.71,9.61,6.72,9.87,11.73.29,5.49-4.82,8.67-9.63,6.01ZM410.23,100.54c1.85-2.07,2.2-5.16-.52-6.53l-6.03,6.92c1.87,1.96,4.81,1.55,6.55-.39Z"/>
      <path class="cls-1" d="M410.23,100.54c-1.74,1.95-4.68,2.36-6.55.39l6.03-6.92c2.72,1.36,2.37,4.46.52,6.53Z"/>
    </g>
    <g>
      <path d="M383,97.88c.29.41-.73,2.52-1.6,2.32l-8.23-6.2.76-2.4c.32-.24,2.43,2.17,3.35,1.22,1.49-2.32,3.3-4.38,4.99-6.55,1.35-1.72,5.72-7,6.33-8.55s-1.07-.84-1.66-2.25l1.13-2.09c4.99,4.28,16.41,9.37,9.62,17.27-3.56,4.14-8.92,3.17-12.01-.96l-5.02,6.46,2.34,1.73ZM392.22,80.63l-4.77,6.89c3.46,4.63,9.09-1.38,7.33-5.51-.3-.72-1.76-1.84-2.56-1.38Z"/>
      <path class="cls-1" d="M392.22,80.63c.8-.46,2.26.66,2.56,1.38,1.76,4.13-3.87,10.15-7.33,5.51l4.77-6.89Z"/>
    </g>
  </g>
  <g>
    <path d="M374.23,438.97c3.04,2.79,4.46,7.73,3.16,11.69s-8.71,6.57-11.88,8.72l-1.19-1.87,1.9-.51c.82-1.17-6.88-11.55-7.22-13.85l-2.83.93-.97-1.91c6.24-2.85,12.46-9.2,19.03-3.19ZM365.17,439.37c-.8.11-3.36.97-3.2,1.99,2.54,2.64,5.01,10.19,7.4,12.3,1.23,1.09,3.28-.61,4.01-1.73,2.9-4.46-2.87-13.29-8.21-12.55Z"/>
    <path d="M355.2,444.54l-1.92.49,7.19,16.76-2.38.3-14.88-7,4.07,9.62c.77.91,2.52-.78,3.12.7.41,1.02,0,.96-.6,1.32-1.46.89-3.8,1.37-5.39,2.27-2.34-1.96.99-2.14,1.08-3.11l-6.17-13.64-2.81.43-.51-1.88,5.44-1.98,1.58,1.89,12.65,5.82-4.08-9.61-2.8.06-.78-1.24,6.44-3.11.73,1.91Z"/>
    <path class="cls-1" d="M365.17,439.37c5.33-.74,11.1,8.09,8.21,12.55-.73,1.12-2.78,2.82-4.01,1.73-2.39-2.11-4.86-9.66-7.4-12.3-.16-1.02,2.4-1.87,3.2-1.99Z"/>
  </g>
  <g>
    <path d="M202.15,465.23c0,5.66-4.59,10.24-10.25,10.24s-10.25-4.59-10.25-10.24,4.59-10.24,10.25-10.24,10.25,4.59,10.25,10.24ZM192.36,457.11c-6.19,1.19-9.36,15.33-2.48,16.21,8.42,1.07,11.15-17.88,2.48-16.21Z"/>
    <path class="cls-1" d="M192.36,457.11c8.67-1.67,5.94,17.28-2.48,16.21-6.88-.88-3.71-15.01,2.48-16.21Z"/>
  </g>
  <g>
    <path d="M266.46,475.93c0,5.66-4.59,10.24-10.25,10.24s-10.25-4.58-10.25-10.24,4.59-10.24,10.25-10.24,10.25,4.58,10.25,10.24ZM255.23,467.66c-6.33,1.4-5.85,16.74.85,16.72,7.92-.02,7.3-18.52-.85-16.72Z"/>
    <path class="cls-1" d="M255.23,467.66c8.15-1.81,8.78,16.69.85,16.72-6.71.02-7.18-15.32-.85-16.72Z"/>
  </g>
  <g>
    <path d="M438.24,380.29c2.26-2.25,7.47-.11,9.26-.55,1.21-.3,1.21-2.51,2.68-.1l-2.66,3.95c-1.58-.26-9.87-1.94-10.24-.18.35,1.27,3.6,3.65,4.67,3.98,1.71.52.96-2.27,3.49-.87l-4.61,7.22-1.63-.51.94-2.83c-4.11-1.42-8.3-6.41-11.99-7.94-2.24-.93-1.09,2.12-3.82.7,1.28-2.48,4.8-8.85,7.54-9.48,4.63-1.07,7.09,2.27,6.38,6.61ZM429.66,379.27l5.47,3.39c3.48-2.86-2.65-7.48-5.05-5.02-.43.44-.74,1.06-.42,1.63Z"/>
    <path d="M412.31,400.91l-1.22-.97c-.51-.99,4.57-6.86,5.3-6.7,1.8.38-.48,2.66-.02,3.36,3.08,1.89,11.9,12.05,15.08,5.92,2.61-5.03-6.59-9.42-9.39-12.59l-2.3,1.38-.98-.94,4.82-6.23,1.07,1.19c-.1.54-.71,1.03-.76,1.52-.17,1.49,9.78,7.06,10.46,11.46.62,3.97-2.34,8.82-6.5,9.29-5.54.62-9.84-5.71-14.08-8.41l-1.47,1.73Z"/>
    <path d="M468.02,338.58l2.38.7-3.59,7.91-1.67-1.18.93-1.45c-.04-.47-6.67-3.36-7.49-3.45-.57-.06-8.32,1.49-8.94,1.77-.96.43-.22,2.49-2.27,1.92l4.32,2.64c.15.63-.52,1.17-1.15,1.17-2.37,0-2.27-1.11-3.59,2.28-.13.43.13.61.41.86.52.46,11.22,5.84,11.88,5.93,1.7.23,1.31-1.29,1.83-1.39l1.66.76-3.38,7.42-1.9-.48.93-2.16-13.18-6.9-1.68,3.09c.04,1.39,2.86,1.13,1.44,3.57l-6.24-2.88c2.07-2.77,5.35-7.29,6.37-10.69.38-1.27-.16-2.26.19-3.09.39-.93,1.26-.37,1.65-.89.7-.94,2.52-7.61,2.85-7.86l1.72.96-.29,1.43,5.76-.96-3.13-4.31-.95.97c-3.2.96-.06-6.02.26-6.23,2.03-1.33,1.54,2.09,1.76,2.7.27.74,4.28,6.09,4.95,6.61,1.77,1.39,5.34,1.99,7.41,3.13l.75-1.91Z"/>
    <path d="M421.44,411.46c2.62,1.01.67,4.4-.49,5.99-7.75,10.61-22.66-1.85-16.72-11.43l5.44-5.59,3.6,4.06c-.82,1.22-1.75-.19-3.12-.26-5.12-.28-5.44,5.19-3.03,8.82,4.46,6.72,13.35,8.22,14.32-1.6Z"/>
    <path d="M453.07,371.62l1.25-1.87,1.12,1.26c.07.34-2.84,5.44-3.35,6.1-1.08,1.4-2.59.85-2.08-.63.24-.71,1.2-.56.21-1.68-.48-.54-11.58-7.12-12.34-7.36l-1.02-.03-1.26,1.84c-.41-.46-1.2-.84-1.13-1.59.03-.33,2.93-5.22,3.36-5.77.46-.6.73-1.01,1.61-.78,1.65.43-.33,2.16-.24,2.62.16.78,12.12,7.12,13.87,7.89Z"/>
    <path class="cls-1" d="M429.66,379.27c-.33-.56-.01-1.19.42-1.63,2.4-2.47,8.54,2.15,5.05,5.02l-5.47-3.39Z"/>
  </g>
  <path class="cls-1" d="M96.47,389.4c1.7,4.24-1.72,6.91-5.75,5.27-.92-1.36,5.32-5.58,5.75-5.27Z"/>
  <g>
    <g>
      <path d="M47.99,333.29c0,.82.06,1.91,1.11,1.85.94-.05,11.86-4.39,13.16-5.11.41-.23.82-.4,1.09-.82l-.94-2.16,1.94-.28c2.58,6.35,7.18,14.1-.06,19.19-4.33,3.05-10.79,3.52-13.98-1.31-.98-1.48-3.7-7.77-4.03-9.43-.31-1.56,0-2.07,1.72-1.94ZM64.18,333.36l-13.79,5.45c-.67.55.8,3.05,1.23,3.57,3.6,4.43,13.49-.13,14.05-5.15.11-.99-.23-3.96-1.49-3.88Z"/>
      <path class="cls-1" d="M64.18,333.36c1.26-.07,1.61,2.89,1.49,3.88-.57,5.02-10.45,9.57-14.05,5.15-.42-.52-1.9-3.02-1.23-3.57l13.79-5.45Z"/>
    </g>
    <g>
      <path d="M77.28,356.78l-4.33,1.72-.95-1.71c3.92-.46,1.77-3.2.19-5.25l-4.99,2.12c-1.2.94.33,2.42.52,3.56l2.84-.45.46,1.21-6.69,3.59-.48-2.38,1.94-.79-1.04-3.03-6.63,3.07,1.91,4.05,2.61-.88,1.17,1.64-4.49,2.19-5.57-11.77,1.66-.76.73,1.24,1.11.16,13.31-6.17-.96-2.87,1.71-.33,5.97,11.83Z"/>
      <path d="M71.03,368.3l-5.55,2.87c.41,1.63,1.36,2.1-.45,3.36l-4.56-7.41c1.73-2.15,2.33.72,2.67.74.44.03,2.33-1.07,2.93-1.39,2.01-1.07,8.72-4.64,10.02-5.82s.27-1.65-.26-2.89l1.91-.28c.39.24,4.38,7.18,4.58,7.93,2,7.66-9.73,10.9-11.3,2.89ZM79.19,363.51c-.31-.22-6.3,2.82-6.15,4,1.86,4.29,8.46-.03,6.15-4Z"/>
      <path class="cls-1" d="M79.19,363.51c2.31,3.97-4.28,8.29-6.15,4-.16-1.18,5.84-4.22,6.15-4Z"/>
    </g>
  </g>
  <path class="cls-1" d="M327.84,465.65l.24-5.75,3.13,4.54c-.14.64-3.11,1.47-3.36,1.21Z"/>
  <path class="cls-1" d="M83.04,377.41c.41.38-3.51,5.02-3.83,4.79l-1.45-3.35,5.28-1.44Z"/>
  <g>
    <g>
      <path d="M359.52,299.24l.96,12.47-12-1.92-.48,12.95-11.02-3.82-2.42,11.02-11.51-3.84c-.41,1.77-.97,4.57-1.81,6.1-.3.55.02.81-1.07.61-6.24-17.46-10.76-38.66.91-54.91l-3.31-2.39c7.1-8.87,5.3-18.83-1.68-27.11-2.98-3.53-6.71-5.13-7.4-10.35-1.04-7.84,3.49-13.55,8.13-19.13,17.54-21.11,47.02-45.56,73.18-54.45,11.36-3.86,24.72-6.83,36.73-5.99-6.42,5.37-13.71,9.92-19.68,15.82-.49.49-4.86,5.09-4.31,5.52,5.77.95,11.52.2,17.28-.24-8.3,7.23-17.73,12.95-27.36,18.23l17.76.95c-7.01,5.97-15.34,9.86-23.52,13.91l15.84,2.64-16.8,11.27,14.88,4.56c.24,1.12-.15.77-.62,1.07-4.42,2.84-10.02,5.13-14.74,7.56l13.43,5.26-14.87,7.92,12.48,6.23-15.35,6.72,11.03,8.38-16.31,3.37,6.72,10.06-14.4,1.44,4.8,10.07h-13.44Z"/>
      <path d="M124.8,198.06c.23-1.13-.15-.77-.62-1.08-1.54-.99-3.78-1.72-5.46-2.68-7.31-4.16-14.55-9.08-20.8-14.71,5.54.25,11,1.04,16.56.25.46-.03.29-.82.17-1.13-.5-1.31-8.36-8.28-10-9.67-4.47-3.8-9.46-6.98-13.93-10.78,41.5-.86,78.58,25.85,105.37,55.14,6.48,7.09,15.79,16.66,12.13,26.99-1.17,3.3-4.23,4.99-6.38,7.54-6.81,8.07-9.08,17.4-2.77,26.63l-4.66,4.77c8.21,15.73,8.33,33.89,1.43,50.13l-1.73-3.39-10.49,3.87-3.37-11.5-10.09,4.3c-.12.04-.72-1.58-.72-1.67v-11.27l-12,1.92.96-12.47h-13.92l5.28-10.07-14.88-1.45,7.2-10.06-16.32-3.37,11.04-8.62-15.84-6.25,11.86-6.11.62-1.07-14.87-7.21,13.43-5.03c-.03-.82-12.33-7.12-14.07-8.48-.53-.41-1-.48-.8-1.35,3.98-1.07,10.18-1.61,13.79-3.25.65-.29.76-.05.6-1.07l-16.32-10.55,15.84-2.64c-8.22-3.92-16.67-7.77-23.52-13.91.26-.2,1.59-.72,1.68-.72h15.6Z"/>
    </g>
    <path d="M387.84,397.55c-4.16,4.49-9.07,8.47-13.97,12.18-63.11,47.77-149.4,51.63-216.39,9.12-8.97-5.69-17.97-12.42-25.48-19.86l6.7-.23c65.42,56.45,161.02,59.43,230.58,8.29,1.78-1.31,10.85-9.51,11.6-9.51h6.96Z"/>
    <path d="M110.88,369.26l-6.74-1.18c-35.56-50.38-44.26-116.4-22.9-174.46,2.01-5.47,4.68-10.68,6.6-16.19l3.62,2.88.15,1.07c-5.74,12.87-10.38,26.23-13.22,40.08-8.79,42.88-2.29,87.23,18.49,125.58l14,22.21Z"/>
    <path d="M408.48,367.82l14.48-23.66c26.19-50.21,27.74-112,3.35-163.22l3.76-3.99c7.18,15.72,12.76,32.2,15.69,49.3,7.34,42.82.16,86.71-20.89,124.62-2,3.6-6.59,12.15-9.21,14.78-2.01,2.02-4.67,1.07-7.19,2.16Z"/>
    <g>
      <path d="M316.8,186.55c-3.94,3.4-13.95,4.46-19.06,6.13l-26.36,19.16c-2.38-.39-4.75-1.01-7.15-1.31-1.62-.21-4.18.71-5.03-.96l23.04-14.39c-5.7.53-12.82,1.68-18.49.96-.88-.11-.78.16-.71-.96h12.72c1.55,0,6.04-.58,7.63-1.01,4.28-1.16,18.93-12.68,23.28-16.06,3.33-2.59,6.56-5.31,9.92-7.86l-3.92-8.12c-10.18,4.83-21.25,7.14-32.3,9.13l1.86,16.73-2.85-16.58-14.11,1.22c-.61,2.36-2.46,2.79-4.63,3.38l-1.89-27.51c1.83-2.46,3.54.79,4.98.92,1.04.09,9.51-.4,9.86-.75-1.28-3.02-2.27-6.53-3.74-9.44-.61-1.21-1.74-3.53-2.27-4.45-.25-.44-2.55-1.79-2.95-2.84l-6.39.43,6.24-.96c-.98-1.44-4.65-1.66-5.08-3.32-.38-1.46,1.47-6.45,2.93-6.74,3.37-.67,3.39,3.03,6.75,1.48l.41.87,1.23-.44c-1.37,3.95,6.44,4.49,7.21,5.28.05.05-.53.78-.26,1.41.43,1,2.17,1.56,2.81,2.56,1.98,3.1-1.45,5.54-1.62,8.26-.08,1.27,1.22,6.23.99,6.46l-7.2-3.35,1.49,4.74c7.52-.32,14.59-2.59,21.54-5.21-.39.78-2.07,1.3-2.89,1.66-5.84,2.54-11.93,3.76-18.23,4.58l5.28,20.62c11.16-1.64,22.35-3.95,32.64-8.64l-5.37-8.78-7.11-8.96c5.13,4.16,8.51,9.99,12.24,15.34.43-1.36,3.3-3.17,3.05-4.49-.35-1.82-5.24-1.81-5.65-3.51,2.23-4.04.06-6.8-.89-10.57-.58-2.33.51-2.85-1.36-5.36-2.53-3.4-6.77-3.72-9.79-6.28-.32.38,1.2,3.01,1.66,3.38.9.73,9.12,2.81,6.49,5.01-1.23,1.02-4.69-.18-5.72-.98-.9-.7-1.77-3.31-3.13-4.55-.93-.85-3.39-1.83-3.51-2.01-.79-1.1-.03-5.59-2.02-5.65l.95-.47c.16-.7-.07-.78-.5-1.18-1.38-1.28-8.16-3.47-10.29-4.11-7.4-2.19-15.57-3.57-23.29-3.35v-1.91c30.37.45,58.57,17.34,72.72,44.11,5.53-5.71,12.34-11.75,16.28-18.73,8.41-14.9-9.03-9.7-17-7.39-3.85,1.11-7.63,2.56-11.36,4l-.64-.88c4.1-1.51,8.09-3.41,12.23-4.81,5.66-1.91,22.06-7.67,21.89,3.12-.15,9.1-13.73,21.96-19.25,28.8,3.12,9.18,6.27,18.56,6.15,28.41-3.09,1.39-8.48,8.98-11.59,8.73-.79-.07-1.67-.6-2.55-.79-.37-.08-1.05.35-1.09.3-.07-.08-.06-1.11-.47-1.69-.85-1.17-2.84-1.62-3.51-3.22-.88-2.13.31-6.58-3.24-6.59.84-.72,1.92-1.96,1.92-3.12v-8.39l-19.2,16.07c2.36.21,5-.71,7.3-1.34s8.36-3.23,9.98-3.22ZM322.65,161.71c.69-.4,2.65.15,4.1-.46.54-.23,2.83-2.35,2.87-2.75-2.09-3.67-3.99-7.89-7.06-10.8l-.21,4.35c-.83,1.15-4.76-1.01-4.16,4.07.02.14.4,1.32.57,2.3.34,2,1.79,5.99-1.77,6.06-1.52.03-1.5-1.11-2.6-1.19l3.12,5.98c2.51-.65,3.73-6.76,5.14-7.57ZM274.05,149.66l-6.21.45c1.18.78,2.45,4.66,2.87,5.04,1,.88,4.9.74,4.8,3.29-.15,4.13-4.07,4.03-7.22,3.44l-2.85,2.86,3.6-1.08c3.95,3.3.37,5.76-3.28,6.59l-.32,1.44,13.92-1.45-5.32-20.57Z"/>
      <path d="M261.24,137.52c.66.72,4.08,1.23,4.22,1.87l-.03,2.08-2.39-.48c2.68,6.15.26,4.52-4.3,3.34-.65-1.85.94-3.51.99-5.03,0-.27-2.65-3.15-1.48-5.02,2.5-.22,2.23,2.4,3,3.24Z"/>
      <path d="M247.2,134.28v-2.88s-5.76-.96-5.76-.96c.14,2.45,2.23,1.49,3.8,1.96.02,1.44.64,3.46-1.16,3.8-5.39,1-7.34-1.94-4.98-6.65l8.26,1.4.86-2.85,3.3-1.02c.42,4.09-.41,5.9-4.31,7.19Z"/>
      <path d="M308.56,145.37l-.64,4.72c-1.78-3.72-5.99-5.19-7.44-9.11l8.08,4.38Z"/>
      <path d="M299.04,141.47l-2.4,1.43c1.15-2.17-2.55-3.37-3.36-5.27,2.4.41,3.17,3.93,5.76,3.84Z"/>
      <path class="cls-1" d="M206.4,163.53l5.69,2.46c.17,2.69-.9,5.58-.39,8.31.38,2.02,3.5,5.35,2.86,8.41l-16.66-13.66c1-2.08,2.25-4.05,3.49-5.99.4-.63,1.3-1.97,1.71-2.55,4-5.74,8.54-11.14,13.87-15.69-.57,3.05-.17,6.28-.5,9.32-.1.9-.88,1.64-.94,2.46-.08,1.18.92,1.92.93,2.84.01,1.1-3.04,5.73-4.04,5.84l-6.01-1.75Z"/>
      <g>
        <path d="M250.08,187.51c-2-.27-4.88-1.46-6.86-.97-.56.14-.78,1.76-1.53,1.82-.25.02-1.2-.74-1.95-.83-2.49-.32-4.53.6-6.44,2.14l.98,1.45-1.51,1.48c.19.58.29,1.31.88,1.63.78.43,6.6.87,8.04.95,2.94.17,5.93-.12,8.87,0,.78.59,0,.87-.71.96-5.09.65-10.38-.66-15.43-.92-.84-.04-1.09-.05-1.61.68l7.44,4.92,5.03-3.72c1.43,2.7-1.18,4.1-.96,6.71,1.92-.21,6.87.86,5.78,3.3l4.29,1.98-4.91.11c-2.79.36-5.27,3.34-8.55,2.55-1.68-.4-12.49-8.91-14.81-10.63-3.18-2.37-7.83-7.02-10.92-8.75-4.42-2.47-12.66-2.74-17.45-5.35l1.45-.25,13.91,3.85-17.52-16.06c-1.14-.47-1.52,3.6-2.63,3.83-.21-1.98,2.1-3.32,1.2-5.26-.42-.91-4.24-4.13-5.29-5.28-1.81-1.99-3.53-4.17-5.27-6.23-4.47,8.07-5.71,17.39-7.2,26.36-.76-.63-1.2-1.06-1.23-2.13-.05-2.06,1.13-7.18,1.62-9.47,1.18-5.53,3.04-10.88,5.44-15.98-4.92-6.69-18.2-23.38-10.59-31.36,5.7-5.97,22.29-1.62,28.99,1.64.16,1.28-.48.39-1.18.21-6.41-1.69-15.87-3.95-22.25-2.05-12.4,3.7,2.54,22.18,7.59,27.01,12.48-24.74,40.05-41.41,67.69-42.2v1.43c-4.25.06-8.45.71-12.58,1.58-2.39.5-12.59,2.98-13.56,4.68-.37.64-.3,1.66-.74,2.37,4.47-1.02,9.06-2.98,13.69-3.34.53-.04,1.79-.36,1.67.47l-8.32,1.52-.81,1.83-.71-1.43c-2.02,1.11-6.66,1.56-8.26,3.02-.53.49-.78,1.65-1.37,2.22-2.13,2.07-5.09,1.08-7.54,1.57-1.62.32-3.37,2.16-5.15,2.29l4.32-2.4-.72-1.42c-1.96,1.71-4.9,3.05-6.73,4.79-1.04.99-1.2,1.45-2.46,2.56-7,6.18-13.51,13.04-17.45,21.68.83,1.54,10.96,12.02,11.98,11.25l3.4-5.99c-.12-1.39.8-1.21,1.33-1.97,4.37-6.26,8.84-11.58,14.44-16.79l-2.21-2.59-4.27,1.42-4.52.04c.94-.21,3.72-1.43,4.18-2.06.43-.59.38-1.84.89-2.71,1.43-2.41,5.11-2.22,6.21-3.39.64-.69.43-1.99,1.03-2.44.34-.26,7.65-2.77,8.07-2.78,3.16-.09,2.51,2.88,4.46,3.88l-.37.86c4.6-.42,5.59,4.28,9.95,5.17,1.35.28,4.46.67,4.69-.86l.31.86c1.39,1.18,5.16-2.88,5.68-2.29l-.47,9.25-3.85,2.98c.98.62,4.07-.32,3.84,1.67l-4.01-.44c-2.58,2.52,1.83,4.26,3.79,5.22.69,1.08-.27,1.8-.27,2.17v29.97ZM206.4,163.53l6.01,1.75c.99-.11,4.05-4.74,4.04-5.84-.01-.92-1.01-1.66-.93-2.84.06-.82.84-1.56.94-2.46.33-3.04-.07-6.27.5-9.32-5.33,4.55-9.87,9.95-13.87,15.69-.4.58-1.31,1.92-1.71,2.55-1.24,1.94-2.48,3.91-3.49,5.99l16.66,13.66c.64-3.06-2.48-6.39-2.86-8.41-.51-2.72.56-5.62.39-8.31l-5.69-2.46ZM219.84,186.54c-.73-.66-2.43-6.11-3.84-4.79.28,2.24,1.44,4.38,3.84,4.79Z"/>
        <path class="cls-1" d="M219.84,186.54c-2.4-.41-3.56-2.55-3.84-4.79,1.41-1.32,3.11,4.13,3.84,4.79Z"/>
      </g>
      <path class="cls-1" d="M322.65,161.71c-1.41.81-2.63,6.91-5.14,7.57l-3.12-5.98c1.1.08,1.08,1.22,2.6,1.19,3.55-.07,2.11-4.06,1.77-6.06-.17-.98-.55-2.17-.57-2.3-.6-5.08,3.33-2.92,4.16-4.07l.21-4.35c3.07,2.91,4.98,7.13,7.06,10.8-.03.4-2.33,2.52-2.87,2.75-1.45.61-3.41.06-4.1.46Z"/>
      <path class="cls-1" d="M274.05,149.66l5.32,20.57-13.92,1.45.32-1.44c3.66-.83,7.23-3.29,3.28-6.59l-3.6,1.08,2.85-2.86c3.15.59,7.07.69,7.22-3.44.1-2.55-3.8-2.41-4.8-3.29-.43-.37-1.7-4.26-2.87-5.04l6.21-.45Z"/>
    </g>
    <g>
      <path d="M206.88,362.07c-6.79-6.98-9.67-16.82-8.51-26.48.55-4.62,3.28-9.59,4.53-14.18,2.88-10.59,2.82-21.26,0-31.86-.87-3.28-2.53-6.4-3.16-9.63,5.66-5.16,11.64-10.49,14.86-17.57,4.42,1.36,8.38,3.74,13.22,4.22,10.87,1.08,20.99-4.41,28.74-11.47,6.12,5.2,12.59,9.32,20.7,10.5s14.48-.6,21.47-3.81c4.59,6.52,10.33,12.2,16.59,17.11-7.49,13.51-6.63,29.02-2.8,43.55,2.76,10.47,7.74,16.01,4.15,27.72-1.26,4.12-4.16,8.73-7.54,11.41v-51.07l-.72-.72h-8.16l-.72.72v58.99c-2.34,1.97-5.61,3.62-8.64,4.08v-63.78h-9.12v66.42l-9.6,3.12v-68.82l-.72-.72h-8.4v75.53l-4.63,3.56-4.97-3.56v-74.81l-.72-.72h-8.4v70.49l-10.08-3.36v-67.14h-8.64v64.26l-9.6-3.84v-60.42h-9.12v52.27ZM218.47,286.71l-1.75-4.73-1.66,4.58-5.3.22,3.79,3.19-1.39,4.96,4.48-2.8,4.15,2.8-1.4-5.22,4.28-2.93-5.21-.07ZM239.52,286.78l-5.3-.23-1.89-4.57-1.51,4.73-5.21.07,3.79,3.19-1.39,4.96,4.15-2.78,4.48,2.78-1.47-4.96,4.36-3.18ZM250.63,286.71l-1.75-4.73-1.66,4.58-5.3.22,3.79,3.19-1.39,4.96,4.48-2.8,4.15,2.8-1.4-5.22,4.28-2.93-5.21-.07ZM282.79,286.71l-1.75-4.73-1.66,4.58-5.3.22,3.78,3.21-1.37,4.94,4.48-2.8,4.15,2.8-1.4-5.22,4.28-2.93-5.21-.07ZM265.92,282.46c-1.16-1.17-1.77,3.81-2.38,4.1l-5.3.22,3.78,3.21-1.37,4.94,4.56-2.88,4.07,2.88-1.4-5.22,4.28-2.93-5.22-.07-1.03-4.25ZM298.08,282.46c-1.16-1.17-1.77,3.81-2.38,4.1l-5.3.22,3.78,3.21-1.37,4.94,4.56-2.88,4.07,2.88-1.41-5.23,4.29-2.92-5.22-.07-1.03-4.25Z"/>
      <polygon class="cls-1" points="250.63 286.71 255.84 286.78 251.56 289.71 252.96 294.93 248.8 292.13 244.32 294.93 245.71 289.97 241.92 286.78 247.22 286.56 248.88 281.97 250.63 286.71"/>
      <polygon class="cls-1" points="218.47 286.71 223.68 286.78 219.4 289.71 220.8 294.93 216.64 292.13 212.16 294.93 213.55 289.97 209.76 286.78 215.06 286.56 216.72 281.97 218.47 286.71"/>
      <polygon class="cls-1" points="239.52 286.78 235.16 289.96 236.64 294.93 232.15 292.15 228 294.93 229.39 289.97 225.6 286.78 230.81 286.71 232.33 281.98 234.22 286.55 239.52 286.78"/>
      <path class="cls-1" d="M298.08,282.46l1.03,4.25,5.22.07-4.29,2.92,1.41,5.23-4.07-2.88-4.56,2.88,1.37-4.94-3.78-3.21,5.3-.22c.6-.28,1.21-5.27,2.38-4.1Z"/>
      <polygon class="cls-1" points="282.79 286.71 288 286.78 283.72 289.71 285.12 294.93 280.96 292.13 276.48 294.93 277.86 289.99 274.08 286.78 279.38 286.56 281.04 281.97 282.79 286.71"/>
      <path class="cls-1" d="M265.92,282.46l1.03,4.25,5.22.07-4.28,2.93,1.4,5.22-4.07-2.88-4.56,2.88,1.37-4.94-3.78-3.21,5.3-.22c.6-.28,1.21-5.27,2.38-4.1Z"/>
      <g>
        <path d="M287.04,261.35c-11.78,2.29-22.88-3.91-30.48-12.45-6.59,7.21-15.46,13.58-25.68,13.42,3.45-7.38,8.81-14.03,14.15-20.15,1.68-1.92,6.54-5.49,6.52-7.92-.02-2.98-3.07-1.9-5.02-2.21s-3.79-.59-5.58-1.14c-3.26-.99-6.15-3.91-9.62-2.9-1.21.35-1.95,1.45-2.85,2.17-1.27-8.88,6.03-13.14,13.81-14.25,1.56-.22,3.96.17,5.07-.21,1-.34,1.2-2.67,2.95-2.36,7.45,1.28,15.4,1.04,22.59,3.38.99.32,6.33,2.46,6.46,3.16.11.57-.97,1.14-.88,1.8.08.58,1.47,2.97,1.78,4.47.76,3.63.18,7.03.54,10.49.88,8.45,2.53,17.01,6.23,24.7ZM254.74,219.74c-.57.17-.9.7-1.29,1.1,2.23,3.01,6.37,3.03,8.62,0,.03-1.02-6.29-1.41-7.33-1.1Z"/>
        <path class="cls-1" d="M254.74,219.74c1.04-.31,7.36.08,7.33,1.1-2.25,3.03-6.39,3.01-8.62,0,.39-.4.72-.93,1.29-1.1Z"/>
      </g>
      <g>
        <path d="M298.8,381.73c-1.9-.32-4.66-2.22-4.11-4.48.08-.33,5.36-3.11,5.91-3.3,2.8-1,9.21-1.38,11.88-.13,2.38,1.11,4.93,6.7,6.17,9.18.98,1.96,4.59,9.46,4.78,11.09,1.05,9.02-14.04,14.59-20.66,16.54-28.81,8.49-66.59,8.36-94.29-3.88-4.2-1.86-16.01-7.62-14.95-13.15,4.17-5.56,7.12-19.57,14.66-20.87,4.7-.8,4.96.87,8.44,2.37,3.24,1.4,6.52,2.81,9.93,3.75-1.42,2.7-5.58,3.81-8.42,3.85-1.11.01-2.16-.44-3.32-.51-.52-.03-1.82-.3-1.69.49,10.5,4.15,21.23,7.08,32.46,8.58,2.43.33,7.68.12,9.44.64.94.28,2.62,2.77,2.98,2.77,3.72-4.08,10.9-2.77,16.26-3.41,9.92-1.19,21.28-4.41,30.37-8.5.54-.25,1.66-.35,1.61-1.03-2.29-.26-5.26.36-7.44,0ZM236.16,399.47c.46-4.11-6.85-5.01-7.17-1.15-.34,4.09,2.78,2.76,4.56,4.49,2.05,1.98,0,3.39-2.41,2.9-1.66-.34-1.59-2-2.43-2.38-2.14-.95-.7,1.82.23,2.64,3.31,2.91,8.51.52,6.5-3.62-.57-1.17-7.94-3.15-4.07-5.04,2.64-1.29,4.05,3.01,4.79,2.17ZM287.04,396.12c-1.19,0-6.32.13-6.68,1.26l1.41,10.25,6.72-.96v-1.43s-5.3.75-5.3.75l-.94-3.4,4.31-.71v-1.43s-4.32.96-4.32.96l-.49-3.35c.56-.6,5.59.14,5.28-1.92ZM245.76,398.03l-6.72-.96-1.42,11.01,7.17.98v-1.43c-3.48-.51-7.11.53-5.24-4.28l4.28.43v-1.43s-3.77-.55-3.77-.55l-.07-2.81,5.76.48v-1.43ZM273.72,399.6c1.7-1.56,3.59.25,4.44,1.78,1.81-1.59-1.04-3.76-2.88-3.76-6.66,0-4.72,13.28,1.71,11.22,1.62-.52,2.75-2.45,2.85-4.1l-1.45.32c.02,1.89-1.2,2.82-3.08,2.57-2.5-.34-3.44-6.33-1.58-8.04ZM255.36,410.02c.35-1.49-1.45-3.45-1.43-4.57.03-1.28,3.31-2.65,1.16-5.48-.99-1.3-5.29-1.48-6.93-1.47l-.96,11.03,1.48-.28.68-4.52c3.84-.04,3.5,1.95,4.51,5l1.48.28ZM268.32,398.51h-1.43c.3,3.51.44,7.09.71,10.56l1.69.47-.96-11.03ZM258.19,399.04c-1.42-.16-1.56-.29-1.3,1.06.58,3.02,2.59,6.53,3.23,9.64.03.49.9.37,1.2.25.85-.35,4.03-10.53,3.64-10.99-1.02-.19-1.12.48-1.47,1.17-1.03,2.04-1.09,5.08-2.61,6.98l-2.68-8.11Z"/>
        <path class="cls-1" d="M255.36,410.02l-1.48-.28c-1.01-3.05-.68-5.03-4.51-5l-.68,4.52-1.48.28.96-11.03c1.65-.02,5.94.16,6.93,1.47,2.15,2.82-1.14,4.2-1.16,5.48-.03,1.12,1.78,3.07,1.43,4.57ZM253.8,400.55l-4.2-.6v3.84c2.68.3,5.78.06,4.2-3.24Z"/>
        <path class="cls-1" d="M236.16,399.47c-.74.84-2.15-3.46-4.79-2.17-3.87,1.89,3.51,3.87,4.07,5.04,2.01,4.14-3.19,6.53-6.5,3.62-.94-.83-2.38-3.6-.23-2.64.83.37.77,2.04,2.43,2.38,2.41.49,4.46-.91,2.41-2.9-1.78-1.72-4.9-.4-4.56-4.49.32-3.85,7.62-2.96,7.17,1.15Z"/>
        <path class="cls-1" d="M245.76,398.03v1.43s-5.77-.48-5.77-.48l.07,2.81,3.78.55v1.43s-4.28-.43-4.28-.43c-1.87,4.81,1.76,3.77,5.24,4.28v1.43s-7.18-.98-7.18-.98l1.42-11.01,6.72.96Z"/>
        <path class="cls-1" d="M287.04,396.12c.31,2.06-4.72,1.32-5.28,1.92l.49,3.35,4.31-.96v1.43s-4.31.71-4.31.71l.94,3.4,5.29-.75v1.43s-6.72.96-6.72.96l-1.41-10.25c.36-1.13,5.49-1.26,6.68-1.26Z"/>
        <path class="cls-1" d="M273.72,399.6c-1.86,1.71-.92,7.69,1.58,8.04,1.88.26,3.1-.68,3.08-2.57l1.45-.32c-.11,1.65-1.24,3.58-2.85,4.1-6.42,2.06-8.36-11.22-1.71-11.22,1.84,0,4.69,2.17,2.88,3.76-.85-1.53-2.74-3.34-4.44-1.78Z"/>
        <path class="cls-1" d="M258.19,399.04l2.68,8.11c1.52-1.9,1.58-4.94,2.61-6.98.35-.69.45-1.36,1.47-1.17.4.46-2.79,10.64-3.64,10.99-.29.12-1.16.24-1.2-.25-.65-3.12-2.66-6.62-3.23-9.64-.26-1.34-.12-1.22,1.3-1.06Z"/>
        <path class="cls-1" d="M268.32,398.51l.96,11.03-1.69-.47c-.27-3.47-.41-7.06-.71-10.56h1.43Z"/>
        <path d="M253.8,400.55c1.58,3.31-1.52,3.55-4.2,3.24v-3.84s4.2.6,4.2.6Z"/>
      </g>
    </g>
    <g>
      <g>
        <path d="M424.8,369.26l-26.07,21.18c-23.24,12.16-57.64-17.41-80.87-21.53-3.09-.55-6.12-.61-9.22-.86,3.87-2.89,7.27-7.25,9.68-11.43,1.44-2.5.92-4.78,3.99-5.12,7.72-.84,13.16,1.45,20.18,3.83,16.7,5.65,41.32,18.31,58.55,17.75,7.6-.25,16.14-3.05,23.76-3.83ZM327.17,356.33l-3.22,9.79,1.42.47,3.22-9.79-1.42-.47ZM334.56,366.38c-.21-1.46-1.24-9.06-3.12-8.63l-3.6,9.59,1.45-.32,1.92-6.87c1.9,2.21,1.74,6.09,2.83,8.83.08.45.97.38,1.24.29.48-.15,3.23-8.35,3.12-9.6-1.25-.23-.84.24-1.18.95-.86,1.85-.91,4.58-2.65,5.76ZM347.03,363.04c-1.85-.18-3.37-1.31-5.1-1.87-3.61-1.17-1.46,1.4.8,1.62l-3.37,8.38,1.43.48,2.9-8.15,3.35.96v-1.42ZM354.72,367.82c1.12-1.01-5.63-3.73-6.2-3.32-.25,1.82-3.96,7.86-3.19,9.08l6.02,2.87c1.38-1.77-4.93-3.13-4.79-3.59l1.67-3.11c.48-.03,3.53,2.79,4.08,1.18.32-.92-.83-.84-1.27-1.09-.8-.46-1.63-.96-2.56-1.07l.97-2.87,5.27,1.92ZM362.88,373.57c.19-3.64-3.31-5.96-6.48-3.83-4.36,2.92-2.86,11.34,3.12,9.11.03.94-.38,1.71.96,1.44l1.25-4.8c-1.24-.77-3.67-2.33-3.64,0l2.39.72c-5.09,6.88-7.08-6.05-1.23-5.97,2.82.04,1.26,3.06,3.63,3.33ZM369.6,383.64c.25-.28-.27-3.48.08-4.48s2.73-1.09,2.25-3.8c-.43-2.42-3.65-2.68-5.46-3.65l-3.59,9.28.96.5c1.19-.89.18-4.25,2.89-3.4,3.02.94-.2,5.18,2.86,5.55ZM375.84,375.02l-1.45.32-2.39,9.27c1.02.19,1.12-.48,1.47-1.17.41-.8,2.69-8.12,2.37-8.42ZM383.52,377.42l-6.23-1.92c-.77,2.06,1.79,1.42,1.95,2.22-.25,2.45-1.41,4.78-1.96,7.15-.14.59-.8,1.28.25,1.65.89.32,1-1.08,1.2-1.66.77-2.24,1.4-4.66,1.92-6.97.12-.12,3.31,1.64,2.87-.47ZM387.37,382.21c-.63-1.53-.51-4.72-2.88-4.31,1.08,3.6,2.46,6.19,1.44,10.07h1.43c-.24-3.99,2.33-6.18,4.8-8.87-.36-.66-1.25-.07-1.7.22-.84.55-2.45,3.5-3.09,2.9Z"/>
        <path class="cls-1" d="M362.88,373.57c-2.37-.27-.81-3.29-3.63-3.33-5.85-.08-3.86,12.85,1.23,5.97l-2.39-.72c-.03-2.33,2.39-.78,3.64,0l-1.25,4.8c-1.34.27-.93-.5-.96-1.44-5.98,2.23-7.48-6.18-3.12-9.11,3.17-2.13,6.67.2,6.48,3.83Z"/>
        <path class="cls-1" d="M334.56,366.38c1.75-1.18,1.79-3.91,2.65-5.76.33-.71-.08-1.19,1.18-.95.12,1.24-2.63,9.44-3.12,9.6-.28.09-1.17.16-1.24-.29-1.09-2.74-.93-6.62-2.83-8.83l-1.92,6.87-1.45.32,3.6-9.59c1.88-.43,2.91,7.17,3.12,8.63Z"/>
        <path class="cls-1" d="M369.6,383.64c-3.06-.37.16-4.61-2.86-5.55-2.71-.84-1.7,2.51-2.89,3.4l-.96-.5,3.59-9.28c1.81.97,5.03,1.23,5.46,3.65.48,2.7-1.89,2.77-2.25,3.8s.17,4.2-.08,4.48ZM366.75,373.59l-.79,2.88c5.51,3.14,6.64-2.59.79-2.88Z"/>
        <path class="cls-1" d="M354.72,367.82l-5.27-1.92-.97,2.87c.94.11,1.77.61,2.56,1.07.44.25,1.59.17,1.27,1.09-.55,1.61-3.6-1.21-4.08-1.18l-1.67,3.11c-.14.46,6.18,1.82,4.79,3.59l-6.02-2.87c-.78-1.22,2.94-7.26,3.19-9.08.57-.41,7.32,2.31,6.2,3.32Z"/>
        <path class="cls-1" d="M387.37,382.21c.65.61,2.25-2.34,3.09-2.9.44-.29,1.34-.88,1.7-.22-2.47,2.7-5.04,4.89-4.8,8.88h-1.43c1.02-3.88-.36-6.47-1.44-10.07,2.37-.41,2.26,2.78,2.88,4.31Z"/>
        <path class="cls-1" d="M347.03,363.04v1.42s-3.34-.96-3.34-.96l-2.9,8.15-1.43-.48,3.37-8.38c-2.26-.22-4.41-2.79-.8-1.62,1.73.56,3.25,1.69,5.1,1.87Z"/>
        <path class="cls-1" d="M383.52,377.42c.43,2.11-2.76.35-2.87.47-.52,2.31-1.15,4.73-1.92,6.97-.2.58-.31,1.98-1.2,1.66-1.05-.38-.38-1.07-.25-1.65.55-2.36,1.71-4.69,1.96-7.15-.17-.8-2.72-.17-1.95-2.22l6.23,1.92Z"/>
        <rect class="cls-1" x="321.11" y="360.71" width="10.31" height="1.5" transform="translate(-118.99 558.56) rotate(-71.81)"/>
        <path class="cls-1" d="M375.84,375.02c.32.3-1.96,7.62-2.37,8.42-.35.69-.45,1.36-1.47,1.17l2.39-9.27,1.45-.32Z"/>
        <path d="M366.75,373.59c5.85.29,4.72,6.02-.79,2.88l.79-2.88Z"/>
      </g>
      <g>
        <path d="M206.4,368.29c-10.97,2.27-20.7,8.15-30.87,12.56-16.31,7.06-35.57,17.16-53.58,12.12l-24.5-21.08c2.16-.35,4.44.72,6.62,1.06,29.03,4.55,52.17-12.13,78.57-19.53,4.12-1.16,7.01-2.01,11.29-.72,3.7,1.11,4.45,5.1,6.6,8.27,1.75,2.58,3.93,4.89,5.87,7.32ZM192,357.26l-.71-1.42-6.01,2.39,3.37,9.59c.3.26,6.61-2.29,6.73-2.64.82-2.47-2.71-.02-3.59.26-.71.23-1.4.56-2.18.46l-.95-2.64c1.08-1.38,4.36-.75,3.82-3.11l-4.31,1.92-.93-2.59,4.77-2.21ZM184.32,362.54c-1.92-3.73-7.34-2.33-7.7,1.68-.65,7.25,9.21,9.52,9.14,1.68h-1.44c.03,7.6-8.7,1.55-5.71-3.07,1.94-2.99,4.48.94,5.71-.29ZM168,367.83c.68-.68,6.59,4.94,7.53,5.19.85.23,1.08-.02,1.58-.64l-4.08-8.87c-1.04-.16-.76.27-.53,1.01.3.97,2.47,5.86,2.21,6.18-1.63-.86-7.1-6.35-8.63-4.79l4.08,9.58c1-.7.62-.91.39-1.81-.47-1.83-1.91-3.99-2.55-5.85ZM168.48,376.45c.49-.43-.71-1.38-.96-1.68-.84-1.02-5.06-5.88-5.75-6.24-.65-.34-.75-.32-1.22.23l.26,11.04,1.39-.8-.4-2.99c1.09,0,2.97-1.85,3.82-1.27.31.21,1.55,2.86,2.87,1.71ZM153.12,372.62l-1.37,1.1,2.86,8.44,5.65-1.94-.17-1.37-4.56,1.92-2.41-8.15ZM149.16,373.72l-1.65.52,3.1,9.93,1.65-.52-3.1-9.93ZM145.44,376.94c-10.68-5.42-11.25,11.98-.96,8.87,1.21-.37,1.59-1.7,3.36-.73l-.96-5.28-4.8.97.49,1.44,2.87-.96c.13,9.24-10.52.04-5.73-3.57,3.06-2.31,5,2.66,5.73-.74ZM135.84,387.48c-.98-2.69-.95-5.78-1.84-8.47-.77-2.34-1.97-2.22-1.69.23.3,2.66,1.29,5.51,1.67,8.19l1.87.05ZM130.08,377.89c-1.15-.19-.91.12-1.18.95-.7,2.12-1,4.96-1.22,7.2-1.55-.42-3.33-8.22-5.28-6.71l5.03,9.57,1.22-.79,1.43-10.22Z"/>
        <path class="cls-1" d="M145.44,376.94c-.74,3.4-2.67-1.57-5.73.74-4.79,3.61,5.86,12.8,5.73,3.57l-2.87.96-.49-1.44,4.8-.97.96,5.28c-1.77-.98-2.15.36-3.36.73-10.28,3.12-9.72-14.29.96-8.87Z"/>
        <path class="cls-1" d="M168,367.83c.64,1.86,2.08,4.02,2.55,5.85.23.9.62,1.11-.39,1.81l-4.08-9.58c1.54-1.56,7,3.93,8.63,4.79.26-.32-1.91-5.21-2.21-6.18-.23-.74-.51-1.17.53-1.01l4.08,8.87c-.5.62-.73.87-1.58.64-.93-.26-6.85-5.87-7.53-5.19Z"/>
        <path class="cls-1" d="M192,357.26l-4.77,2.21.93,2.59,4.31-1.92c.54,2.36-2.74,1.73-3.82,3.11l.95,2.64c.78.1,1.46-.23,2.18-.46.88-.28,4.41-2.73,3.59-.26-.11.34-6.43,2.9-6.73,2.64l-3.37-9.59,6.01-2.39.71,1.42Z"/>
        <path class="cls-1" d="M184.32,362.54c-1.23,1.24-3.77-2.7-5.71.29-2.99,4.62,5.74,10.67,5.71,3.06h1.44c.07,7.85-9.79,5.57-9.14-1.68.36-4.01,5.78-5.41,7.7-1.68Z"/>
        <path class="cls-1" d="M168.48,376.45c-1.32,1.15-2.56-1.5-2.87-1.71-.85-.58-2.73,1.27-3.82,1.27l.4,2.99-1.39.8-.26-11.04c.47-.55.57-.58,1.22-.23.69.37,4.91,5.23,5.75,6.24.25.3,1.45,1.25.96,1.68ZM164.16,374.05c.33-.45-2.13-3.52-2.87-3.83l.48,4.8,2.39-.97Z"/>
        <path class="cls-1" d="M130.08,377.89l-1.43,10.22-1.22.79-5.03-9.57c1.94-1.51,3.73,6.29,5.28,6.71.22-2.24.52-5.08,1.22-7.2.27-.83.03-1.15,1.18-.95Z"/>
        <polygon class="cls-1" points="153.12 372.62 155.52 380.77 160.08 378.85 160.25 380.23 154.61 382.16 151.75 373.72 153.12 372.62"/>
        <path class="cls-1" d="M135.84,387.48l-1.87-.05c-.38-2.68-1.37-5.53-1.67-8.19-.27-2.45.93-2.57,1.69-.23.88,2.69.86,5.78,1.84,8.47Z"/>
        <rect class="cls-1" x="149.02" y="373.74" width="1.73" height="10.4" transform="translate(-106.22 61.97) rotate(-17.36)"/>
        <path d="M164.16,374.05l-2.39.97-.48-4.8c.74.31,3.2,3.38,2.87,3.83Z"/>
      </g>
    </g>
  </g>
</svg>