<?xml version="1.0" encoding="UTF-8"?>
<svg id="Layer_1" data-name="Layer 1" xmlns="http://www.w3.org/2000/svg" viewBox="0 0 307 102">
  <defs>
    <style>
      .cls-1 {
        fill: #fff;
      }
    </style>
  </defs>
  <path class="cls-1" d="M213,102l-.99-5c2.81-.98,2.02,2.53,3.51,2.98,3.18.96,3.93-2.55,3.48-4.98-8.77,5.73-8.06-12.98-6.79-17.3.77-2.62,3-2.59,5.26-2.76,1.5-.11,3.05.14,4.55.05-.88,8.75,2.06,19.08-2,27h-7ZM219,93v-14.5c0-1.02-3.13-2.06-3.99-1.5-1.01.66-3.62,20.26,3.99,16Z"/>
  <path class="cls-1" d="M61.95,65.05l6.04,30.94-9.39.08-1.53-3.62c-1.21-.88-6.73-.8-8.08.06-.98.62-1.11,2.81-2.65,3.34-2.43.84-6.61-.24-9.34.15l14.15-30.83,10.79-.11Z"/>
  <path class="cls-1" d="M37,65l-5.89,30.42-10.12.58,5.46-30.04c1.37-1.95,8.03-.58,10.54-.95Z"/>
  <rect class="cls-1" x="171" y="31" width="3" height="65"/>
  <path class="cls-1" d="M208.99,96c-6.18-1.12.27-11.53-8.88-8.88l-1.11,8.89h-2.99s5.01-29,5.01-29l3.05.43,4.93,28.56ZM205,84.99l-2.99-11.99-1,12h3.99Z"/>
  <g>
    <polygon class="cls-1" points="120.99 65.01 127 95.99 117.66 96.05 115.87 92.13 107.13 92.13 105.34 96.05 96 95.99 110.16 65.16 120.99 65.01"/>
    <polygon class="cls-1" points="99 65 97.9 72.89 89.89 73.58 86.43 96.02 76 95.99 79 73 71 72.99 72 65 99 65"/>
    <g>
      <path class="cls-1" d="M0,31l46.96.04c.75,9.78,10.16,17.31,19.04,19.97-2.41,5.02-5.76,8.33-11.5,8.98-5.24.59-19.89.71-24.93-.06-3.38-.52-7.6-3.08-7.56-6.94h26v-1h-28.5c-.41,0-4.95-4.88-5.5-6h30v-1H13.5c-1.63,0-6.14-4.99-6.5-7h33v-1H5.5c-1.44,0-4.44-3.78-5.5-5v-1Z"/>
      <path class="cls-1" d="M72,0l1.01,11.01-5,.98h5s0,11.02,0,11.02c-3.9-.39-8.75,1.42-11.51-2-.26,3.39-10.1,2.37-11.06,1.02.35-5.81,2.5-11.36,6.56-15.6l4.01,1.56-2-3.98,8-4.01h5Z"/>
      <path class="cls-1" d="M80,0c2.17,1.9,5.49,1.99,7.6,4,1.69,1.6-.39.73,3.27,3.58,4.53,3.54,6.5,9.8,6.13,15.43l-10.07-.44-1.44-6.57-.49,7.02-10.07-.44-.79-8.92,5.85-2.63h-6c.66-3.48-1.85-9.08,2.01-11.01h4Z"/>
      <path class="cls-1" d="M148,31c.33.24-3.88,6-5.5,6h-35.5v1h33c1.2,2.36-4.17,7-5.5,7h-30.5v1h29c.76,1.84-4.58,6-5.5,6h-27.5v1h26c-.72,3.88-4.84,6.6-8.48,7.02-5.31.62-19.71.63-24.94-.11-4.62-.65-9.68-4.1-10.58-8.9,8.8-2.77,17.62-10.65,19-20.01h47Z"/>
      <path class="cls-1" d="M73.01,23.99l-.08,9.95-2.94.55,2.94.55c-.12,4.53,1.51,8.77-2.39,11.81-11.6-2.69-19.01-11.02-20.54-22.85l23-.02Z"/>
      <path class="cls-1" d="M85.01,23.99l.49,6.02.49-6.02h11.01c.08,12.02-9.48,21.41-21,23l2.99-4.99-4.98,2.99.11-8.38,3.89-2.12-4.02-.49v-10.01s11.01,0,11.01,0Z"/>
    </g>
  </g>
  <path class="cls-1" d="M233.76,76.24c1.83,1.83,1.12,7.21,1.24,9.76h-8.01c-.21,3.23-.49,7.28,3.49,7.99,1.98-.45.79-6.72,4.51-5.99,2.67,7.71-8.65,11.46-9.97,4.47-.6-3.15-.83-16.23,2.65-17.35,1.7-.36,4.89-.09,6.09,1.11ZM232,84c.17-1.8.51-7.63-2.49-7-2.59,1.72-2.82,4.06-2.52,6.99h5.01Z"/>
  <path class="cls-1" d="M248,96l-3-1.5v-17.5c-1.42-.7-5,1.54-5,2.5v16.5h-2v-21c2.15.58,10-.73,10,2.5v18.5Z"/>
  <path class="cls-1" d="M253.99,70l.11,4.94c4.95,0,3.74,1.97-.17,2.6v15.91s3.06,2.54,3.06,2.54l-4.85-1.64c-1.1-4.64.98-12.6-.13-16.71-.21-.8-3.51-.55-1.98-2.62.1-.13,1.41.17,1.69-.23,1.25-1.8-1.42-5.63,2.26-4.8Z"/>
  <path d="M219,93c-7.6,4.26-5-15.33-3.99-16,.85-.56,3.99.48,3.99,1.5v14.5Z"/>
  <polygon points="205 84.99 201.01 85 202.01 73 205 84.99"/>
  <path d="M232,84h-5.01c-.3-2.94-.07-5.28,2.52-7,3-.63,2.66,5.2,2.49,7Z"/>
  <g>
    <path class="cls-1" d="M307,31v29l-8.51-.99c-2.43-6.1-3.86-23.45,6.5-19.01,1.02-1.27-2.16-9.62,2.01-9ZM300,42v14.5c0,.82,2.49,2,3.48,1.48,2.61-.82,1.53-12.57,1.08-15.04l-4.56-.94Z"/>
    <path class="cls-1" d="M208.99,60c-4.6.16-2.25-6.11-3.88-8.42l-5.06-.52-1.06,8.95h-2.99s5-29.01,5-29.01l3.05.44,4.94,28.55ZM205,48.99l-2.99-11.99-1,12h3.99Z"/>
    <path class="cls-1" d="M268,31v29c-5.81-1-9.28,2.37-10.06-5.44-.55-5.49-1.52-18.64,7.05-14.56l.18-7.33,2.83-1.67ZM265,42c-7.65-3.64-5.02,15.32-3.99,16,.86.56,3.99-.48,3.99-1.5v-14.5Z"/>
    <path class="cls-1" d="M253.76,40.25c1.84,1.85,1.11,7.19,1.24,9.76h-7.01c-.04,1.67-.8,8.67,2.49,7.99s1.02-6.71,4.51-5.99c2.62,8.76-8.79,11.39-9.9,3.44-.4-2.87-.61-13.43,1.15-15.2,1.52-1.53,5.95-1.58,7.52,0ZM253,48c.48-1.85-.97-7.52-3.49-6.99-2.3,1.69-1.43,4.64-1.52,7h5.01Z"/>
    <path class="cls-1" d="M285,41.5c2.03-7.21,14.16,1.21,9.06,8.06l-7.06.43c.09,1.95-.73,7.29,1.51,8,4,.62,3.69-3.35,3.5-5.99l2.54.99c2.42,7.22-9.54,8.94-9.54,4.51v-16ZM292,48l-.47-6.04-4.39.2-.15,5.84h5.01Z"/>
    <path class="cls-1" d="M232.76,40.24l1.23,6.75-4.51-5.99c-3.85-.88-2.97,15.51-1.54,16.55l3.04.44c1.09-.7-.32-7.05,3.01-5.99.8,5.81-1.05,9.18-7.33,7.84-4.22-1.45-5.76-27.35,6.09-19.6Z"/>
    <path class="cls-1" d="M214,56.5c.31,1.09,2.29,1.86,3.49,1.49l1.52-5.99c5.65-1.53,2.34,6.37,0,7.52-8.26,4.03-8.72-9.48-7.77-14.77,1.69-9.36,11.67-7.05,9.76,2.26l-3.98-5.54-3.02.55v14.5Z"/>
    <path class="cls-1" d="M237,39h6.99c.76,2.23-3.99,4.72-3.99,5.5v15.5h-3v-21Z"/>
    <path class="cls-1" d="M279.99,34l.11,4.94c4.95,0,3.74,1.97-.17,2.6v15.91s3.06,2.54,3.06,2.54l-4.85-1.64c-1.1-4.64.98-12.6-.13-16.71-.21-.8-3.51-.55-1.98-2.62.1-.13,1.41.17,1.69-.23,1.25-1.8-1.42-5.63,2.26-4.8Z"/>
    <polygon class="cls-1" points="274 39 274 60 271 60 271 40.5 272.51 39.01 274 39"/>
    <path d="M300,42l4.56.94c.45,2.47,1.53,14.23-1.08,15.04-1,.52-3.48-.67-3.48-1.48v-14.5Z"/>
    <polygon points="205 48.99 201.01 49 202.01 37 205 48.99"/>
    <path d="M265,42v14.5c0,1.02-3.13,2.06-3.99,1.5-1.04-.68-3.66-19.63,3.99-16Z"/>
    <path d="M253,48h-5.01c.09-2.35-.78-5.3,1.52-6.99,2.51-.53,3.97,5.14,3.49,6.99Z"/>
    <polygon points="292 48 287 48 287.15 42.16 291.54 41.96 292 48"/>
  </g>
</svg>