<?xml version="1.0" encoding="UTF-8"?>
<svg id="Layer_1" data-name="Layer 1" xmlns="http://www.w3.org/2000/svg" viewBox="0 0 192 67.2">
  <defs>
    <style>
      .cls-1 {
        fill: #fff;
      }
    </style>
  </defs>
  <path d="M79.55,47.4h-3.59s0-4.8,0-4.8c-1,.09-.51,1.6-1.16,2.73-2.26,3.93-9.63,2.79-13.15,1.42l.56-3.55c3.14,2.19,7.6,4.34,10.09.17,1.1-4.28-10.73-3.53-10.75-10.67-.02-6.61,8.78-5.38,13.22-4.5l-.61,3c-.91.82-6.27-3.62-8.42-.95-3.22,3.98,6.09,5.5,7.86,7.23l2.36,4.53v-8.4c2.77.98,6.26-.47,8.66,0,1.31.26,2.07,1.7,2.4,1.7.18,0,1.65-1.47,3.04-1.69,7.45-1.14,6.26,7.8,6.15,12.79l-.47.73c-.78.64-3.63.26-3.63-.64v-10.5c-1.45.04-3.22-.46-4.19.9v10.5h-3.59v-9.9c0-1.81-2.44-1.78-3.79-1.4l-.99.8v10.5Z"/>
  <path d="M133.36,28.23l2.42,12.57c2.65-2.79,2.63-7.97,4.6-11.26.72-1.2,2.04-1.13,2.87-.14,1.02,1.22,3.55,11.42,4.19,11.41l2.72-12.58,3.56-.02-5.44,19.73c-.33.23-1.51.15-1.94-.03-1.62-.67-3.83-9.72-4.59-11.91l-4.47,11.4-1.2.64-1.8-.64-5.69-18.89,4.77-.28Z"/>
  <path d="M170.47,42c1.02.78,2.84-7.28,3.27-7.81.65-.78,3.55-1.3,3.3.31-.31,2.05-5.61,14.39-6.87,16.52-1.55,2.63-2.39,3.4-5.7,2.98l.03-2.97c10.47-1.79-1.09-11.84-1.82-17.43,5.82-1.46,5.72,4.43,7.78,8.4Z"/>
  <path d="M108.26,47.4c-3.33-1.55-8.41,2.55-10.81-.85-4.38-6.21,7.04-6.88,7.26-7.91.75-3.49-3.47-3.97-5.73-2.05l-.89-2.98c2.47-.35,10.17-.29,10.17,3.3v10.5ZM104.67,40.8c-.86.76-3.45,1.1-3.91,1.77-2.81,4.14,5.66,5.87,3.91-1.77Z"/>
  <path d="M162.69,47.4c-3.34-1.4-7.86,2.39-10.45-.62-3.61-4.2,2.64-7.17,6.27-7.47,1-.75.94-3.44-.4-3.86l-5,1.15v-3c2.21-.11,9.57-.58,9.57,2.7v11.1ZM159.1,41.4l-4.1,1.27c-.15,5.7,5.21,3.92,4.1-1.27Z"/>
  <path d="M122.02,36h-2.99s0-2.4,0-2.4h3s.08-2.92.08-2.92c3.83-1.5,3.77-.95,3.5,2.92h4.19s0,2.39,0,2.39h-4.19v9.3l2.39,2.1c-1.27.23-5.98.13-5.98-1.5v-9.9Z"/>
  <path d="M109.46,33.6c2.54-1.01,3.09,1.23,3.29,1.22.98-.03,3.56-2.24,5.68-1.22l-.9,3.59-3.49-1.23c-.38.11-1,1.43-1,1.55v9.9h-3.59v-13.8Z"/>
  <ellipse cx="179.95" cy="36.48" rx="2.74" ry="2.74"/>
  <path class="cls-1" d="M104.67,40.8c1.75,7.64-6.71,5.91-3.91,1.77.46-.67,3.05-1.01,3.91-1.77Z"/>
  <path class="cls-1" d="M159.1,41.4c1.1,5.19-4.26,6.97-4.1,1.27l4.1-1.27Z"/>
  <g>
    <path d="M53.23,49.2h-4.19c.81-5.09-2.45-9.69-6.55-12.36-.78-.2-2.8,2.43-4.21,3.07-2.2.99-8.43,1.58-10.18-.01-.7-.63-.33-1.96-.96-2.13-2.36-.66-7.92.6-8.6-3.55,1.94-.25,3.91-1.13,4.78-3-3.31,1.07-7.05.16-9.89-1.79-1.21-1.83,3-2.07,3.31-3.61-1.99.45-5.11,1.13-5.38-1.79l1.79-1.2c-1.78-.2-3.36-1.44-4.19-3,14.52.44,29.39,7.92,38.59,19.19.98,1.2,6.46,9.44,5.67,10.2Z"/>
    <path d="M43.77,15.5c.24.21,2.08.23,3.11.77,4.36,2.28,3.33,7.23,3.36,11.33-.87.89-5.66-2.59-6.77-3.11-10.6-4.96-22.85-7.9-34.49-5.89.2-4.38,3.66-4.75,6.52-6.35,1.05-.58,1.67-1.96,3.01-2.38,2.22-.71,3.4.41,4.98.22,1.8-.22,5.03-.85,7.16-1.18,2.72-.42,3.56-2.54,7.65-1.42,5.55,1.52,4.52,7.21,5.47,8.02ZM41.27,17.4c1.85-6.24-3.09-9.98-8.97-7.79l1.79,4.19c-3.12-2.97-5.29-4.79-9.54-2.35l.58,1.15c-2.67-.85-6.07-2.72-7.78.6l2.99,1.8c-3.43-1.19-7.74-1.88-9.58,2.1,12.67-1.36,25.61,1.54,36.79,7.51,1.41-5.23-.92-7.99-6.27-7.21Z"/>
    <path d="M61.6,42c-5.2,1.11-8.07-4.63-11.36-7.79,3.46-2.02,8.44,3.33,10.47,5.99.46.6,1.16.76.89,1.8Z"/>
    <path d="M49.04,30.01l-.35,1.22c-1.65,2.09-10.19-4.37-9.82-4.82,3.68-1.38,6.67,2.85,10.17,3.6Z"/>
    <polygon points="29.93 21.33 37.38 24.12 36.77 25.75 29.32 22.96 29.93 21.33"/>
    <path class="cls-1" d="M41.27,17.4c5.35-.78,7.68,1.98,6.27,7.21-11.18-5.97-24.12-8.87-36.79-7.51,1.83-3.98,6.14-3.29,9.58-2.1l-2.99-1.8c1.7-3.32,5.1-1.45,7.78-.6l-.58-1.15c4.25-2.44,6.42-.61,9.54,2.35l-1.79-4.19c5.88-2.19,10.82,1.55,8.97,7.79Z"/>
  </g>
</svg>