<?xml version="1.0" encoding="UTF-8"?>
<svg id="Layer_1" data-name="Layer 1" xmlns="http://www.w3.org/2000/svg" viewBox="0 0 1200 1200">
  <defs>
    <style>
      .cls-1 {
        fill: #909da8;
      }

      .cls-2 {
        fill: #a4a6aa;
      }

      .cls-3 {
        fill: #b3cbda;
      }

      .cls-4 {
        fill: #578db0;
      }

      .cls-5 {
        fill: #929ea8;
      }

      .cls-6 {
        fill: #8aafc8;
      }

      .cls-7 {
        fill: #c1c1c1;
      }

      .cls-8 {
        fill: #a4a7aa;
      }

      .cls-9 {
        fill: #3e7ba4;
      }

      .cls-10 {
        fill: #8a9aa5;
      }

      .cls-11 {
        fill: #cbdbe6;
      }

      .cls-12 {
        fill: #c4c4c4;
      }

      .cls-13 {
        fill: #020202;
      }

      .cls-14 {
        fill: #fff;
      }

      .cls-15 {
        fill: #cedee8;
      }

      .cls-16 {
        fill: #919da6;
      }

      .cls-17 {
        fill: #a5a7aa;
      }

      .cls-18 {
        fill: #d1dfe9;
      }

      .cls-19 {
        fill: #a3a6aa;
      }

      .cls-20 {
        fill: #cdcdcd;
      }

      .cls-21 {
        fill: silver;
      }

      .cls-22 {
        fill: #d1d2d4;
      }

      .cls-23 {
        fill: #fefefe;
      }

      .cls-24 {
        fill: #bcd1df;
      }

      .cls-25 {
        fill: #407da4;
      }

      .cls-26 {
        fill: #7e93a2;
      }

      .cls-27 {
        fill: #c8c8c8;
      }

      .cls-28 {
        fill: #b6b6b6;
      }
    </style>
  </defs>
  <path d="M623,0c2.58.86,5.42.85,8,0h3c3.4.39,6.74.72,10,1l5,1c21.35-1.62,43.41,2.32,64.52,6.22,165.8,30.62,311.4,133.42,399.81,276.39,51.43,83.17,85.08,183.97,86.67,278.39v74c-8.52,295.16-271.79,557.76-568,563h-63c-239.67-5.54-460.01-174.01-539.23-404.29C12.64,745.9-.27,691.39,1,639c-.28-2.17-.61-4.5-1-7v-63c.39-2.41.72-4.74,1-7-2-51.42,10.78-102.9,26.95-151.56C92.62,215.78,254.8,64.56,454.49,14.66c31.83-7.96,64.62-14.26,97.51-13.66,1.57.74,3.42.84,5,0,2.74-.9,6.3-.75,9,0,2.94-.32,5.94-.65,9-1h48Z"/>
  <g>
    <g>
      <path class="cls-12" d="M575,0l-2.43,1.04c-2.19.11-4.39-.14-6.57-.04V0h9Z"/>
      <path class="cls-28" d="M631,0c-1.58,1.68-6.46,1.67-8,0h8Z"/>
      <path class="cls-7" d="M0,569v-7h1c-.02,2.19.74,5.64-1,7Z"/>
      <path class="cls-27" d="M1,639H0v-7c1.74,1.36.98,4.81,1,7Z"/>
      <path class="cls-23" d="M247.01,1030l42.91-19.58c1.78-.79,4.25-5.05,5.73-5.31,1.33-.23,21.05,15.19,21.28,16.52.14.83-2.88,5.24-3.46,5.38l-8.46-5.55c-3.73,6.13-38.39,43.93-37.89,46.9.36,2.16,6.57,4.62,6.7,6.13l-4.31,5.5-27.48-23.45c1.07-.84,3.49-4.21,4.46-4.29,2.75-.23,5.76,6.72,8.51,5.32l28.01-34.55-54.99,23.99,12.98-56.99-27.52,32.02c-2.65,3.69,6.53,6.59,6.49,8.48-.01.56-3.26,5.47-5.95,4-1.59-.87-17.34-13.97-18.57-15.43-1.98-2.36-1.92-2.79.01-5.12,3.65-4.41,6.19,2.12,10.06,4.04,10.82-14.67,24.61-28.02,35.47-42.51.73-.97,3.67-4.5,3.01-5.44-5.87-3.2-9.57-4.27-3.41-10.01l21.41,16.55c-1.51,3.07-3.26,5.04-4.5,8.41-4.96,13.47-6.72,30.95-10.47,45.02Z"/>
      <path class="cls-23" d="M98.03,329.96l60.9,28.64-3.59,7.24-66.34,21.17,1.42,2.08c12.25,3.89,26.31,14.5,38.26,17.76,1.92.52,1.03-.19,1.55-1.12,1.31-2.35,2.21-5.1,2.78-7.73.58-.43,6.09,2.21,6.56,2.98.75,1.22-10.77,25.65-12.17,25.95-.65.14-5.39-2-5.48-2.53l4.06-8.91-55.65-26.34c-1.87-.52-1.06.1-1.54,1.11-1.08,2.29-1.97,5.29-2.8,7.73l-6.88-3.48c2.88-2.8,8.31-20.29,9.91-21.52.37-.28,6.18,4.16,8.21,2.82l57.77-17.83-1.28-2.24-38.46-17.57c-3.53-2.04-4.41,8.18-5.28,8.82-1.47.05-6.78-2.47-6.86-3.48-.29-3.67,11.87-20.83,11.89-26.52l6.88,3.48c-.85,1.8-4.93,7.98-3.87,9.48Z"/>
      <path class="cls-23" d="M1021,922.01l36.5,25.98c3.64-5.47,6.26-12,11.45-3.58-2.94,2.3-14.83,22.29-16.44,22.41-1.06.08-3.69-3.05-5.51-2.84-1.13-1.57,6.48-7.03,4.86-9.85-7.41-3-46.43-34.46-50.3-34.2-1.54.11-3.98,11.98-10.64,4.46l12.1-20.39,7.42,3.89,61.56-7.9-37.51-26.98c-.51-.13-5.08,8.68-5.51,8.99s-4.45-3.13-5.92-3.08c-.85-1.23,15.06-24.56,16.52-24.9.76-.18,5.26,2.91,5.41,3.55.41,1.76-6.12,6.94-4.55,9.43,5.81,5.32,53.92,35.34,54.46,38.64.19,1.18-3.13,5.67-4.64,6.11l-69.25,10.26Z"/>
      <path class="cls-23" d="M415.01,1127c1.44,1.48,1.73-.41,2.22-1.28,6.24-11.21,9.08-27.83,15.64-39.41.34-3.55-9.36-3.57-9.84-5.87.38-1.11,1.81-5.39,2.57-5.52,1.44-.23,26.21,9.82,26.98,11.06,1.09,1.73-1.67,3.97-1.6,6.02-1.22.91-9.1-5.71-10.89-1.4-4.01,6.94-21.26,59.21-24.08,60.99-1.25.79-7.02-1.82-7.86-3.25l-25.17-65.33-16.87,40.68c-.35,3.05,8.29,3.77,8.82,4.37.72.82,0,6.98-3.68,6.28-1.81-.35-23.42-8.37-24.17-9.43-.88-1.23.99-6.66,2.39-6.77.55-.04,6.78,3.15,8.03,3.82,2.17-6.8,24.24-55.36,22.43-57.89s-12.83-.93-5.96-9.66c3.1,1.54,20.64,6.95,21.6,8.54.56.94-1.44,3.86-1.53,5.63-.24,5.11,16.77,45.78,20,53.88.51,1.28.8,4.37.97,4.54Z"/>
      <path class="cls-23" d="M817.01,122.99l17.88-41.67c.36-3.06-8.31-3.79-8.83-4.38-.86-.99.81-6.47,2.54-6.86,2.23-.49,21.81,10.06,26.34,9.98.68,13.01-9.06,2.02-11.84,4.02l-25.12,62.92-8.05-3.69-24.95-66.31-16.84,39.74c-.89,6.04,13.03,2.22,6.84,12.26-3.34-1.7-26.13-8.86-26.99-10.02-.56-.75,2.19-5.45,2.02-6.99l9.97,4,21.88-56.4c-5.38-4.91-10.79-1.11-6.86-10.61,3.03.71,22.76,8.25,22.88,9.48.1,1.02-3.15,5.46-1.7,7.77l20.82,56.75Z"/>
      <path class="cls-23" d="M1098,308.98c-8.65,4.45-7.1-.08-11.48-5.87-10.98,8.02-43.11,18.99-46.07,32.83-1.94,9.04,3.6,20.25,13.29,21.82,15.01,2.43,36.95-18.13,51.26-22.77l-5-9.97,6.48-3.04,16.07,29.04c-8.05,6.15-6.4.63-11.03-4.93-24.44,12.16-55.64,42.49-76.32,7.21-21.86-37.3,20.22-47.58,44.33-63.29l-5.53-9.99c1.74.34,4.64-3.38,6.01-2.58,2.92,1.72,14.95,26.94,17.98,31.54Z"/>
      <path class="cls-23" d="M36,660.5c.85,5.18,8.94,1.17,10.03,1.94,1.37,1.03,1.29,7.13.91,7.51-1.9,1.95-18.81.02-22.54,2.01-3.16.66-2.74-7.64-2.41-7.96.31-.29,3.07.21,4.02,0-.84-12.46-2.17-25.04-3-37.51-.19-2.84.65-11.04-.46-12.56-.78-1.07-3.3-.42-3.62-1.53-.18-.61-.21-7.14.06-7.4.94-.88,17.73-.86,20.54-.98,1.27-.05,3.31-1.12,3.46-1.02.52.37,1.49,7.56,1.02,8.01-1.47-.16-9.6.69-9.95,1.05-.63.65.09,17.18.95,17.95l57-4c.19-6.79-2.36-12.49,7-11.01-.63,10.29,3.74,25.73,2.06,35.43-.14.82-5.72,1.35-7.06,1.57v-10s-58.01,3.01-58.01,3.01c.54,4.78-.74,10.94,0,15.5Z"/>
      <path class="cls-23" d="M557.99,1107v-5c1.46-.12,7.73.41,8.07,1.62.3,1.08-1.29,21.57-2.07,22.38-.35.36-5.62-.22-7,.01-.02-6.14,1.45-9.56-4.07-13.43-6.58-4.62-19.88-3.65-19.96,5.91-.1,12.17,26.99,18.8,29.8,35.26,4.28,25.14-23.77,35.28-41.27,20.27-1.27.74,0,4.51-.49,5-.35.35-8.2,1.4-7.79-3.2.73-8.25,2.34-16.52,2.79-24.8l7.91,1.08c-1.33,7.72-1.83,10.77,4.61,15.88,10.2,8.1,23.21,2.53,20.26-10.26-1.35-5.85-20.89-16.78-25.98-25.02-14.8-23.94,16.26-42.43,35.18-25.69Z"/>
      <path class="cls-23" d="M587.86,19.14c.78.49,2.08,15.91,2.19,18.33.35,7.38-1.11,6.81-8.06,6.53v-10.01s-18,1-18,1l4.01,58.01c1.72-.61,9.34-1.7,10-1.01.26.27-.46,5.54,1,7l-36,3.02-1.01-7c2.56-1.56,10.27,0,10.89-2.59l-3.89-56.43c-10.22,2.46-22.29-3.88-17,12-1.48-.25-7.62.38-7.99,0-.88-.92-1.41-21.61-2.01-25,4.84.49,9.26-2.27,8.01,4.01l50-4c.2-.95-.3-3.71-.01-4.02.27-.29,7.41-.13,7.86.15Z"/>
      <path class="cls-23" d="M874.01,1050l-4.49-8.89-14.44,8.54c-1.06,3.59,24.18,42.93,26,50.28l10.9-3.93c.06,2.08,2.41,4.44,2.1,6.4-.27,1.72-27.31,13.26-30.6,16.46-1.26-1.08-4.42-5.41-3.44-6.82l8.93-4.54-27.48-49.53c-.79-1.25-1.38-.87-2.51-.58-3.8.95-9.54,6.74-13.98,7.62l4.99,9.96-7.41,3.1c-1.1-4.05-11.32-18.66-10.51-21.42.34-1.16,5.38-3.8,6.35-3.72s1.08,2.95,2.05,3.05c2.58.26,38.19-22.48,44.51-24-4.93-3.67,3.39-8.38,5.49-6,1.19,1.35,10.29,18.59,10.39,19.7.2,2.17-4.86,4.03-6.87,4.32Z"/>
      <path class="cls-23" d="M425.99,45c1.02.75,6.93,20.9,8.01,23.99-2.21-.6-5.33,2.67-7.02,1.59-2.2-1.4-1.85-8.54-5.44-8.59-1.26-.02-15.16,5.45-15.31,6.47l19.89,51.95,1.34,1.35,9.53-3.77c-.62,1.78,2.62,6.17,2.01,6.99-1.07,1.45-29.67,10.87-33.94,11.98l-2.06-6.95,9.99-3.5-21.48-53.48-15.48,6.01c-1.09,1.53,4.17,9.19,2.93,10.9-.21.29-6.62,2.26-6.91,2.04-1-.74-7.36-20.34-8.11-23.42.06-.35,6.16-2.63,6.51-2.63.89,0,1,3.65,2.85,2.93,5.38-2.92,45.04-15.65,46.26-17.81.54-.95-1.05-3.49-.55-4.05.24-.27,6.7-2.22,6.99-2.01Z"/>
      <path class="cls-23" d="M595.5,1116c-6.53.86-2.26,6.39-2.5,11h-8.01s-1-25-1-25c1.46.24,7.71-.33,8.01,0,.35.37-.36,3.65-.01,4.02.98,1.04,10.23-.97,12.46-1.05,12.83-.43,25.73-.25,38.55-.95-1.26-6.28,3.16-3.52,8-4.01.18,5.49-.25,11.05-.05,16.55.28,7.84,4.93,9.28-6.96,8.46.46-1.38-.47-10-1-10h-18l2.15,56.34c1.19,3.69,6.96-1,9.92,1.09l.94,6.57-36.01,1v-7.01s10.01.01,10.01.01l-2.01-57.01c-4.59.43-10.04-.59-14.5,0Z"/>
      <path class="cls-23" d="M1176,516.99c.23.24.8,6.23.76,6.56-.18,1.51-3.18,1.11-3.62,1.58-1.73,1.88,4.5,44.59,3.86,50.86l3.99-.99v8c-7.1.21-14.58,1.57-21.64,1.95-4.77.25-3.73-7.6-3.36-7.95s9.16-.24,9.95-1.05c1.39-1.43-1.76-14.93-.95-17.95l-58,5.01c1.56,6.41,3.21,12.47-5.54,10.04l-2.47-35.05c8.83-1.31,7.03,3.24,7.01,10.01l55.36-4.14,1.2-.8c1.69-6-.93-12.02-.57-18.06-6.7,2.17-12.29,2.67-10.57-6.06,2.83-.64,23.74-2.85,24.58-1.94Z"/>
      <path class="cls-23" d="M151.89,268.12c-2.53,12.81-6.57,2.9-12.36,2.85-10.38-.11-17.86,15.78-8.45,21.46,8.19,4.94,22.01-6.83,30.71-9.13,33.36-8.82,41.96,34.55,12.21,43.72.04,1.91,3.96,2.75,4.08,3.59.19,1.37-2.55,6.05-3.68,6.33-1.53.37-18.75-11.51-21.38-13.51l4.48-6.41c8.63,12.31,31.15-.19,24.37-13.39-6.38-12.42-21.82-.7-30.35,2.4-12.02,4.37-23.01,6.39-31.52-5.53-9.24-12.95.23-28.92,12.99-35-5.75-1.06-3.27-7.5,0-9.06,1.27-.61,15.85,11.08,18.9,11.68Z"/>
      <path class="cls-23" d="M1062.08,255.95c.42.29,9.35-2.33,6.46,4.03-.43.94-15,13.05-16.04,13.05-1.28,0-4.22-2.65-4.4-3.68-.31-1.84,6.61-8.24,2.69-18.65-12.09-32.07-71.91,7.51-52.23,36.23,4.51,6.59,14.45,13.02,22.43,14.08-7.5,10.77-25.55-6.74-30.83-13.68-31.26-41.07,35.26-93.1,69-38,.88,1.44,2.61,6.42,2.91,6.62Z"/>
      <path class="cls-23" d="M1178.01,600l-2.01,36-6.99-1,.51-7.99-20.49,13.49,17.5,14.49c3.39-.12,0-5.8,2.46-7.57.47-.34,5.76.42,5.97.63.91.91-1.21,22.62-1.91,25.52-9.92.89-3.91-4.49-6.96-9.15l-27.01-20.99c-4.02.05-30.93-2.58-32.06-1.45-.4.4.3,8.32,0,10-1.19-.3-6.69-.8-6.93-1.05-1.22-1.26,3.26-30.38,1.93-34.95h7.01c.58,2.84-1.41,9.12,1.2,10.31,4.91,2.24,24.51.58,31.08,1.48l29.72-18.28c1.99-2.23.64-6.61.98-9.52h6.01Z"/>
      <path class="cls-23" d="M918.92,1001.89c-.83,1.19-8.09,3.09-6.8,6.42l34.92,47.67c1.62,1.13,6.46-4.99,8.46-5.02,1.72-.02,4.28,3.26,4.4,4.71.15,1.82-24.21,18.85-27.57,21.19-11.07-5.78,3.76-8.37,2.22-12.81l-33.53-45.56c-3.12-4.75-7.94,4.08-10.44,3.49-3.06-3.84-5.02-4.27-1.05-7.96,6.68-6.21,17.34-11.35,24.18-17.9,2.32-1.26,6.07,4.54,5.21,5.77Z"/>
      <path class="cls-23" d="M650,25.01l-1,7-10-1.01-3,62.01h10.01c-.15,1.72.5,4.68-.44,6.06-2.11,3.07-30.23-1.37-35.57-.06v-8.01c4.09-1.01,10.88,4.01,11.05-2.45l1.99-56.88c-.48-2.06-8.18-1.7-10.04-1.67-.4-.4.28-5.55.89-6.42,1.28-1.81,31.56,1.64,36.11,1.42Z"/>
      <path class="cls-23" d="M1159.89,461.11c1.46,1.01,6.23,30.6,7.12,34.88l-7,1.01-1.05-8.96c-20.15,2.44-39.8,8.91-59.94,11.97-1.54,1.61,5.56,13.73-5.53,11.02-.37-4.51-7.97-33.44-6.44-35,.21-.21,5.69-1.23,5.94-1.05.64.46,1.66,9.64,2.05,9.98,2.28,1.97,51.61-12.46,59-12.44,2.25-1.47-1-8.03-1.03-10.5,1.72-.26,5.52-1.85,6.89-.91Z"/>
      <path class="cls-23" d="M501.99,1103c-1.13,1.14-8.72-2.62-10.04-1.59-2.41,1.89-12.1,52.56-13.96,59.59,7.45.55,10.72.69,7.99,9l-34.99-8.01c-.17-11.14,4.35-5.77,12-4.99l13-57.55c1.13-3.91-6.78-2.77-10.01-4.47l2.02-6.99,34.01,8.51c1.2.32.21,6.25-.03,6.5Z"/>
      <path class="cls-23" d="M357.98,1051.99l-9.97-4.99-29.96,52.51c.77,2.05,7.67,4.14,7.94,4.5.6.8-2.26,5.56-2.97,6.56l-29.58-16.56c-.44-14.35,8.87-.83,11.58-2.44,3.03-6.46,30.59-49.05,29.9-51.97-.52-2.19-7.63-4.25-7.92-4.62-.49-.63,2.49-6.75,3.56-6.98,10.01,6.18,21.04,11.32,30.25,18.48l-2.83,5.51Z"/>
      <path class="cls-20" d="M649,2c-2.12-.15-4.46-.96-5-1,1.6.06,4.15-.62,5,1Z"/>
      <g>
        <path class="cls-23" d="M187.64,896.08c1.3-.23,2.1,1.14,2.89,1.9,7.97,7.75,29.62,35.44,31.23,45.76,2.63,16.86-4.93,31.67-19.46,40.06-34.5,19.92-52.11-19.03-72.28-39.3l5.48-4.48c3.24,2.58,5.44,10.66,9.99,5.98l43.07-37.02c1.5-2.37-5.55-7.91-5.55-8.48,0-.32,3.77-3.81,4.62-4.42Z"/>
        <path d="M152.01,958.02l46.64-37.94c33.94,28.29-25.54,81.57-46.64,37.94Z"/>
      </g>
      <g>
        <path class="cls-23" d="M344.56,124.61c-.53.6-1.93-.11-1.55,1.38,9.56-1.21,17.58,2.49,25.87,6.63,2.72,1.36,9.3,6.54,11.04,6.92,2.05.45,5.91-3.41,7.07-2.55.25.19,1.11,4.86,3,5.5l-18.47,10.47c-8.48-3.53-29.48-23.35-38.48-16.44-1.29.99-1.19,1.04-.54,2.47,3.15,6.89,8.87,13.68,11.54,21l9.96-5,3.01,6.98-30.51,16.82c-2.09-1.34-3.43-3.71-3.57-6.17l7.99-5.12-30.4-53.5-8.02,4.88-3.48-6.88c15.38-5.21,40.51-30.23,56.04-14.55,8,8.08,6.71,19.04-.48,27.15Z"/>
        <path d="M327.01,131c-.55-5.03-13.69-21.59-11.57-25.01.4-.65,1.72-1.28,2.51-1.54,16.27-5.32,28.37,21.32,9.06,26.54Z"/>
      </g>
      <g>
        <path class="cls-23" d="M258.78,140.28c39.39-4.7,59.83,44.34,27.74,70.74-39.42,32.43-86.8-17.57-57.04-54.04,6.52-7.99,19.05-15.49,29.29-16.71Z"/>
        <path d="M248.74,151.24c27.41-4.69,56.14,40.63,29.97,55.97-22.02,12.91-52.23-22.51-43.75-43.75,2.07-5.18,8.08-11.24,13.78-12.21Z"/>
      </g>
      <g>
        <path class="cls-23" d="M208.98,285.99c-12.3-5.52-1.35-7.55,0-11.52l.02-1.45c-1.2-.07-2.17-.65-3.02-1.46-11.62-11.09-24.66-23.99-36.97-34.07-1.09-.89-4.24-3.58-5.37-3.38-1.79.31-4.89,6.19-7.01,5.82-.48-.08-4.6-4.11-4.59-4.43.01-1.91,23.04-24.31,25.43-28.52,29.55-21.31,53.88,20.34,22.54,38.52,3.58,1.8,16.39,16.04,18.62,16.43,2.06.36,6.58-6.74,7.85-6.74s6.75,4.34,3.56,6.36c-7.07,8.01-15.17,15.71-21.07,24.44Z"/>
        <path d="M184.77,214.18c12.61-1.42,24.14,17.52,10.59,25.71-1.94.32-20.05-17.17-20.28-18.53-.47-2.69,7.21-6.9,9.7-7.18Z"/>
      </g>
      <g>
        <path class="cls-23" d="M981.83,946.24c11.93-.36,24.47,6.49,31.59,15.85,31.09,40.91-32.67,93.77-66.39,50.39-20.53-26.41,4.06-65.32,34.8-66.24Z"/>
        <path d="M968.73,959.24c23.39-3.91,53.34,32.49,35.26,51.25-22.59,23.44-69.36-24.54-45.89-45.89,2.24-2.04,7.66-4.86,10.63-5.36Z"/>
      </g>
      <g>
        <path class="cls-23" d="M518.16,96.88c1.32.78,4.87-1.62,6.76-.8.62.43,1.53,6.41,1.07,6.9-.97,1.01-23.97,4.38-27.36,6.09-3.76-6.98-1.82-6.64,4.37-8.56-2.16-2.68-7.59-13.85-9.99-15.04-1.8-.89-19.16,2.42-21.26,3.51-2.79,1.45-1.73,15.6-3.74,19,1.56.34,6.11-.55,6.89.12.23.19,1.35,5.49,1.09,5.85-.62.87-19.92,4.75-20.87,3.92-.2-.18-1.21-4.73-1.05-5.27.64-2.13,4.26-1.07,5.46-2.59l10.7-73.81c2.74-.25,6.1-2.35,8.27-.21l39.67,60.88Z"/>
        <polygon points="475.98 58.01 488 77.99 472 81 473.99 58.5 475.98 58.01"/>
      </g>
      <g>
        <path class="cls-23" d="M125,924.98c-.23.3-5.91,1.83-6.98,3.02l-13.96-24.52c1.82-1.58,3.88-3.44,6.39-3.53.88.14,1.05,2.91,2.07,4.02,2.6,2.85,2.24-.07,3.46-1.44,1.39-1.56,9.67-11.25,9.73-12.02.09-1.05-9.42-17.8-10.21-18.53-2.9-2.7-15.06,2.94-19.51,2.02-.81,2.17,2.27,5.01,1.94,6.4-.2.85-5.04,3.52-5.46,3.49-1.08-.08-11.14-17.81-10.43-18.83,7.29-5.12,7.12,2.64,10.21,2.75l70.39-13.76c2.64-1.08,6.53,5.42,5.85,6.96l-46.06,57.02c-1.32,1.6,2.94,6.46,2.55,6.96Z"/>
        <path d="M147,865.01l-15.5,18.97c-.76,0-8.13-11.46-8.45-12.55-.56-1.92.36-1.2,1.32-1.54,6.65-2.37,15.66-2.9,22.63-4.89Z"/>
      </g>
      <g>
        <path class="cls-23" d="M1130.95,370.05c3.44,16.57,24.34,46.73,2.99,58.39-11.26,6.14-19.93.67-26.92-8.43,1.62,9.93-3.81,17.5-9.59,24.92-2.41,3.09-8.4,6.96-8.48,10.53-.03,1.7,1.81,5.32.98,6.47-.17.23-5.16,1.99-5.45,1.96-1.02-.09-7.7-17.68-7.32-19.17s17.04-17.61,19.87-22.18c1.87-3.02,5.98-14.7.68-14.37s-17.45,8.06-23.71,8.87c2.66,6.7,6.06,11.6-3.99,11.98.25-5.71-11.88-30.25-10.93-33.37.49-1.61,6.29-3.17,6.91-2.62.35.32,1.38,7.96,3.49,8.85l57.54-20.88c-2.84-7.06-6.54-11.16,3.94-10.93Z"/>
        <path d="M1132.99,395c6.64,13.66-10.51,26.97-21.92,18.44-1.78-1.33-6.32-7.36-4.09-8.92l26.01-9.52Z"/>
      </g>
      <g>
        <path class="cls-23" d="M123.96,436.05c1.16,1.33-6.34,25.2-6.97,28.96-1.3-.3-6.83-1.14-6.94-2.49-.06-.7,2.48-3.89,1.96-5.51-4.31.88-14.99-.03-18.37,1.12-1,.34-1.04.79-1.44,1.56-.8,1.53-5.13,19.32-4.72,20.29l15.04,11.02,1.5-6c.46-.47,5.9,1.01,6.57,1.97,1.33,1.91-4.7,16.5-4.59,20.04-1.16-.92-6.78-1.72-6.99-2.02-.38-.51,2.77-6.51-.46-8.03l-56.47-38.51c-3.18-.67-1.66-8.79-.39-9.49l73.61-7.95c1.99-.57,1.45-5.72,1.73-6,.26-.27,6.72.79,6.96,1.05Z"/>
        <path d="M85,459.01l-4.01,15.99c-1.42,1.25-18.21-11.95-20.99-13.51l25-2.49Z"/>
      </g>
      <g>
        <path class="cls-23" d="M694.76,32.26c32.85-4.73,62.85,22.13,48.43,55.43-13.95,32.23-64.93,29.27-76.97-2.42-8.28-21.82,4.41-49.54,28.53-53.01Z"/>
        <path d="M701.73,40.23c38.61-7.89,32.35,59.35,4.8,62.8-35.91,4.49-30.06-57.63-4.8-62.8Z"/>
      </g>
      <g>
        <path class="cls-23" d="M777,1146c1.76.35,5.68-1.81,6.92-.92.24.17,1.99,5.16,1.96,5.45-.17,1.71-16.62,6.28-19.3,7.5-.49.01-2.59-5.63-2.61-6.46-.03-1.21,6.44-1.02,6.05-4.06l-1.01-71.01c3.47-5.9,8.82-5.05,12.51.49l42.94,50.11c1.84,2.16,5.72-1.05,7.43.03.24.15,2.13,4.9,2.05,5.28-.4,1.83-24.08,10.08-27.92,10.6-2.06-8.05-1.31-6.03,4.97-9.5l-12.94-13.99-21.04,7.99v18.5Z"/>
        <path d="M777,1119v-24l15.98,17.5c-.01,1.62-13.58,5.45-15.98,6.5Z"/>
      </g>
      <g>
        <path class="cls-23" d="M712.01,1132.01l9.51,2.97c8.65,4.86,14.93,13.24,21.5,20.53,4.91,2.26,7.48-4.72,8.99,6.48l-20.3,3.88c-9.87-9.42-16.78-29.01-32.71-27.87.12,3.35,3.99,25.1,5.11,25.89,1.81,1.27,7.55-2.18,9.95-.46,1.31.94,1.37,4.4.5,5.64-1.09,1.55-30.2,5.96-34.56,6.94l-1.01-7c1.97-.26,9.43-.64,9.78-2.46l-12.79-59.55-9.98,2.01-1.01-7c15.97-.38,44.69-14.83,56.44,1.06,8.03,10.86,2.57,24.42-9.43,28.95Z"/>
        <path d="M697.01,1132l-5.85-26.54c6.79-3.68,13.19-1.81,16.57,5.3,5.06,10.67,1,19.23-10.72,21.23Z"/>
      </g>
      <g>
        <path class="cls-23" d="M105,514l-2.14,20.85c-9.14,4.08-35.43,9.43-35.89,21.63-.09,2.32.19,1.13,1.55,1.49,3.06.81,21.52,2.72,23.87,2.08,1.85-2.87,1.66-6.77,1.62-10.06.31-.32,6.63.81,6.89,1.11,1.61,1.88-2.98,30.03-1.88,34.9h-8c-.59-.56,2.38-7.46.56-10.07-19.56-2.91-40.13-3.13-59.99-5.97-2.02,1.5-1.21,9.68-1.57,10.05-.3.31-5.66-.22-7.01,0,1.83-11.76.87-25.6,3.45-37.06,4.09-18.24,22.46-25.03,35.01-9.89l4.54,9.95c2.36-10.65,15.72-15.34,24.65-19.85,1.32-.66,6.04-2,6.22-2.28,2.29-3.57-4.79-8.58,8.14-6.86Z"/>
        <path d="M59.85,556.86c-8.91.33-17.93-.92-26.79-1.91-2.75-20.77,32.23-17.88,26.79,1.91Z"/>
      </g>
      <g>
        <path class="cls-14" d="M584.79,112.29c382.58-12.8,631.82,407.77,434.01,738.01-178.92,298.72-604.45,319.22-811.63,39.01C-26.81,572.83,194.16,125.37,584.79,112.29Z"/>
        <g>
          <path d="M691.01,236.01l11.99-1c-.92,2.8-9.57,5.28-9.75,7.48-.11,1.33,4.13,8.05,3.74,10.51-1.19,1.26-7.43-6.01-9.48-6.01-2.6,0-8.34,7.24-9.51,6.01-.34-2.65,4.03-8.75,3.75-10.54-.29-1.88-9.65-5.08-10.75-7.45l12.99.99,3.99-13,3.02,13Z"/>
          <path d="M902.01,374.01l11.99-1c-.65,2.34-8.84,5.56-9.07,6.67-.66,3.18,3.66,7.72,3.06,11.32-1.13,1.24-6.94-5.99-9.51-6.01s-5.82,6.7-9.48,6c-.43-.35,4.27-8.71,3.87-10.39-.47-1.93-8.84-4.92-9.87-7.59l11.92.92,4.07-12.92,3.02,13Z"/>
          <path d="M517.1,234.9c1.46,1.26,10.41-.95,12.9-.89-1.14,2.79-9.27,5.51-9.9,7.65-.79,2.71,3.44,7.24,2.89,10.34-1.12,1.24-6.94-6-9.51-6.01s-6.2,6.65-9.47,7.01c-.87-1.04,4.59-9.02,3.91-11.34s-9.5-5.02-10.91-7.65c4.39-.29,8.69,2.17,13.05.54l3.93-11.55c1.06,1.74,2.65,11.49,3.11,11.89Z"/>
          <path d="M306.09,373.91c1.04.74,9.53-1.99,11.91-.9-1.14,3.25-8.05,4.87-8.87,7.7-.95,3.27,3.47,7.68,2.86,11.29-.4.52-7.94-7.04-9.49-7.04-2.07,0-6.71,6.43-9.49,7.04-.96-1.19,4.34-9.38,3.86-11.4-.54-2.24-8.97-4.42-9.87-7.59,2.63.19,9.91,2.12,11.87.86,1.11-.71,1.83-10.58,4.12-11.86.2,1.85,2.36,11.38,3.11,11.91Z"/>
          <path d="M850,310c1.71-.82,4.54-1.16,4,1-1.7,1.32-7.44,4.26-7.9,5.68-1.01,3.08,3.54,7.82,2.89,11.32-.54.7-7.96-6.87-9.5-6.74-1.39.12-7.29,7.39-9.49,5.73,7.02-11.91,2.23-9.9-6-16.98,2.8-.54,10.09.93,12.06-.45,1.54-1.08,2.34-11.57,3.44-11.57,3.81,9.47-1.02,11.78,10.5,12.01Z"/>
          <path d="M775,280c-1.49-1.07-7.01-5.83-7.49-5.83-1.22,0-9.2,8.11-10.51,6.82.59-2.66,4.58-9.01,3.9-11.33s-7.79-3.94-8.9-6.65l11.96-.06,3.03-11.95c.7,1.68,2.65,11.49,3.11,11.89.85.74,9.78-.33,11.9.11l-9.87,7.47c1.94,2.53,2.62,5.86,3.87,8.52,1.19,1.39.67,1.93-1,1Z"/>
          <path d="M593,224c1.1-.07,3.14.37,3.85-.13.91-.65,2.74-11.88,3.65-11.88,1.38,1.74,2.71,11.22,3.65,11.88.71.5,2.75.06,3.85.13,1.92-.69,6.7-1.44,6,1-2.62,1.79-5.22,3.72-7.88,5.48l3.87,11.52c-2.62-.52-7.46-7.02-9.32-6.86s-9.17,7.49-9.66,6.86c2.28-11.02,6.05-10.16-4.01-17-1.43-2.26,4.08-1.78,6-1Z"/>
          <path d="M448,264c-1.43.89-7.71,4.73-7.92,5.6-.39,1.66,4.59,8.61,3.91,11.4-.41.52-7.91-7.02-9.47-7.01-2.99,0-8.2,7.74-10.52,6,.76-2.33,4.39-8.32,4.09-10.36-.14-.92-8.5-4.36-9.09-6.62,2.12-.44,11.05.63,11.9-.11,1.03-.88.96-10.91,4.09-11.9.37,1.73,1.61,11.54,2.05,11.95.36.35,3.77-.04,4.96.05,1.93-.68,6.69-1.44,6,1Z"/>
          <path d="M361.99,300c.55.58,1.13,9.3,2.97,10.59.84.58,7.24-.68,9.54-.6,1.13.04,2.76-.62,2.49,1-2.09.6-9.54,4.99-9.85,6.64s4.05,7.46,2.85,10.37c-2-.6-7.61-6.75-8.62-6.93-2.15-.38-6.79,7.83-10.37,6.92,1.26-2.84,4.69-8.26,4.07-11.31-.23-1.11-8.42-4.33-9.07-6.67,2.09-1.04,11.48,1.32,11.97.97.57-.41,1.52-7.89,2-9.53.32-1.09.42-3.15,2.02-1.46Z"/>
          <path class="cls-24" d="M442,263c2.05-2.07,6.18-.63,8.99-.99.34,1.41-1.7,1.18-2.99,1.99-1.12-1.76-4.11-.86-6-1Z"/>
          <path class="cls-15" d="M608,224c2.05-2.07,6.18-.63,8.99-.99.36,1.45-1.76,1.15-2.99,1.99-1.12-1.75-4.11-.88-6-1Z"/>
          <path class="cls-18" d="M593,224c-1.89.12-4.88-.75-6,1-1.24-.84-3.35-.54-2.99-1.99,2.82.36,6.95-1.08,8.99.99Z"/>
          <path class="cls-6" d="M850,310c1.1-1.79,4.11-.82,6-.99.02,1.19-1.31,1.46-2,1.99-.69-1.5-2.68-.97-4-1Z"/>
          <path class="cls-3" d="M776,279c.24.51,2.45,2.63,2,2.99-2.15.71-2.21-1.42-3-1.99l1-1Z"/>
          <g>
            <g>
              <path d="M375.99,529c-26.89-5.5-52.6-15.35-77.96-25.53-47-18.86-101.58-40.57-111.79-97.21-.67-3.74-.68-5.92,3.31-3.31,6.66,4.36,14.39,13.62,20.98,19.02,19.85,16.27,45.51,30.94,68.45,42.55,25.46,12.88,52.33,22.16,75.35,39.65,3.2,2.43,25.16,21.22,21.66,24.83Z"/>
              <path d="M1014.99,402.01c2.52,2.61-11.71,34.17-14.57,38.92-18.82,31.1-60.15,47.35-92.45,60.55-26.95,11.01-54.36,21.56-82.96,27.53-4.1-4.23,21.73-24.67,25.27-27.22,23.23-16.7,48.65-25.42,73.74-38.26,22.53-11.53,46.89-25.52,66.45-41.55,6.59-5.4,14.32-14.66,20.98-19.02,1.23-.8,1.99-1.23,3.54-.95Z"/>
              <path d="M799,570.99c-1.54-1.33,11.56-14.2,12.98-15.51,5.06-4.68,11.14-9.32,17-13,44.41-19.55,94.72-31.78,136.69-56.31,3.71-2.17,20.95-14.37,22.81-14.24.87.06,2.45.88,2.5,1.56.16,2.64-15.57,23.25-18.46,26.52-43.47,49.09-111.85,60.6-173.51,70.98Z"/>
              <path d="M402,570.99c-1.55,1.33-35.16-6.19-40.18-7.31-54.38-12.06-102.65-24.59-138.78-70.22-1.99-2.51-13.11-18.31-13-19.98.04-.67,1.63-1.49,2.5-1.56,2.5-.18,13.24,8.48,16.56,10.49,30.44,18.37,65.47,30.59,98.65,43.35,28.09,10.8,49.74,13.95,70.24,38.76.72.88,4.77,5.83,4.02,6.47Z"/>
              <path d="M361.99,488.99l-4.02-.47c-45.68-23.07-96.65-40.44-138.29-70.71-19.2-13.96-30.14-33.29-36.68-55.81,2.39-.31,3.98.3,5.95,1.54,6.01,3.78,15.23,14.27,21.57,19.43,22.84,18.58,47.39,32.55,72.8,47.2,19.49,11.23,60.57,29.37,73.09,45.91,1.41,1.87,7.26,11.23,5.58,12.91Z"/>
              <path d="M1018,362.01c-6.23,20.26-16.29,39.98-33.08,53.41-39.69,31.75-96.5,49.07-141.2,72.8l-4.71.78c-1.3-1.3,3.37-10.28,4.56-11.93,12-16.8,61.03-39.2,81.11-50.89,23.16-13.49,44.92-26.21,65.8-43.2,6.21-5.06,15.81-15.81,21.57-19.43,1.97-1.24,3.56-1.85,5.95-1.54Z"/>
              <path d="M257.01,539c1.43-1.49,14.59,7.29,16.97,8.52,23.91,12.27,46.14,19.42,72.2,25.8,31.84,7.79,52.54,7.97,78.29,31.71,7.73,7.12-.22,6.25-6.96,5.96-23.12-1.02-52.26-8.18-74.72-14.27-31.86-8.64-57.1-17.83-78.75-44.25-1.56-1.9-8.82-11.6-7.02-13.47Z"/>
              <path d="M943.99,539c1.59,1.66-5.13,11.1-6.58,12.91-21.2,26.55-47.6,36.2-79.2,44.8-22.44,6.11-51.63,13.26-74.72,14.27-5.92.26-14.51,1.25-7.5-5.5,24.69-23.77,47.76-24.59,78.83-32.17,20.88-5.09,41.37-10.99,60.86-20.14,3.48-1.63,27.22-15.32,28.32-14.17Z"/>
              <path d="M494.99,554.99c-22.18-2.39-44.39-6.34-65.76-12.73s-46.65-15.87-56.23-38.26c17.34,4.59,33.76,12.2,50.78,17.71,15.89,5.15,54.99,11.76,64.73,22.27,1.05,1.13,7.39,10.17,6.47,11.02Z"/>
              <path d="M828,504.01c-10.98,25.41-42.27,34.87-67.17,41.32-17.95,4.65-36.38,7.71-54.82,9.67,8.35-22.99,36.7-22.9,56.76-28.73,22.06-6.41,43.17-15.87,65.23-22.26Z"/>
              <path d="M808,543.01c-13.49,22.93-37.14,31.1-61.81,36.68-5.78,1.31-46.26,9.04-48.18,7.31,1.55-6.37,12.36-18.11,18.26-20.23,7.38-2.65,19.48-3.78,27.95-6.05,17.9-4.82,39.34-14.21,56.73-17.27,2.36-.42,4.66-.65,7.05-.44Z"/>
              <path d="M503,586.99c-1.56,1.4-28.91-3.52-33.18-4.31-29.17-5.4-60.75-12.15-76.81-39.68,2.4-.21,4.69.03,7.05.44,16.16,2.82,36.17,11.76,52.73,16.27,14.34,3.91,30.97,4,41.61,14.39,1.42,1.39,10.08,11.56,8.6,12.89Z"/>
              <path d="M490,526.99c-10.72.32-21.52-3.69-31.77-6.72-24.1-7.14-47.69-16.4-71.45-24.55-4.64-2.44-10.8-8.65-14.3-12.7-.96-1.11-8.44-10.17-7.48-11.01,1.68-.22,3.21.23,4.81.68,11.33,3.18,26.82,10.98,38.67,15.33,15.43,5.66,60.41,18.31,70.53,26.47,4.24,3.41,7.75,8.17,10.99,12.5Z"/>
              <path d="M836,472.01c.73.63-6.58,9.95-7.48,11.01-2.25,2.62-6.87,7.44-9.5,9.5-10.14,7.94-61.07,23.26-76.24,27.76-10.24,3.03-21.04,7.04-31.77,6.72-.82-.6,9.27-11.03,10.48-12.01,10.44-8.57,55.25-21.15,71.04-26.96,12.22-4.49,26.04-11.29,37.93-15.07,1.83-.58,3.57-1.2,5.55-.94Z"/>
              <path d="M778,585.01c2.96,4.01-20.13,18.42-23.33,20.16-14.75,8.02-48.48,12.74-65.22,10.88-7.54-.84.24-5.62,3.22-7.88,17.9-13.58,24.7-11.57,45.35-15.65,10.22-2.02,26.72-7.59,35.74-8.3,1.61-.13,2.74.54,4.23.79Z"/>
              <path d="M513.68,612.29c1.13,1.28,1.75,3-.32,3.57-2.76.77-13.36.37-16.9.18-16.48-.87-35.73-3.04-50.13-10.87-3.2-1.74-26.28-16.15-23.33-20.16,1.49-.25,2.62-.92,4.23-.79,9.09.72,25.55,6.26,35.74,8.3,7.93,1.59,18.96,1.76,26.04,3.96,4,1.25,21.93,12.71,24.67,15.81Z"/>
              <path d="M504.5,623c4.58.36,12.33,1.78,16.73,3.27,4.16,1.42,7.68,4.21,11.76,5.74.02,1.54-3.52,1.4-4.82,1.65-17.35,3.37-33.24,2.77-46.17-10.67,7.34.42,15.23-.57,22.5,0Z"/>
              <path d="M719,623c-12.93,13.44-28.82,14.04-46.17,10.67-1.3-.25-4.84-.12-4.82-1.65,4.09-1.53,7.6-4.33,11.76-5.74,3.6-1.23,13.24-3.27,16.73-3.27h22.5Z"/>
              <g>
                <path d="M516,481c.45-2.37,3.08-2.79,5.18-3.03l7.82.03c3.41-3.59,8.36-4.76,13-3,2.11-3.05,6.11-4.05,12-3-.79-2.5.96-3.16,3-2-.11-3.4,1.3-8.75,5-9l-1.5-2.09c3.14-12.29-10.38-24.7-21.79-26.52l-3.71-2.39-1.31,1.84c-3.54-1.16-7.1-1.78-10.69-1.84-.66,2-2.62,3.44-5.87,4.3-1.65,2.28-3.36,3.84-5.13,4.7-.17,5.35-5.04,4.28-4,0-5.96-4.77-6.49-16.36-4-23.11,1.13-3.05,3.37-8.43,7-6.89-1.6-2.64,3.07-5.28,5-3l.63-2.52,15.32-4.56c-.48-5.38.87-8.02,4.04-7.92-.49-3.11,3.46-6.25,6-4l.62-2.39c7.36-2.47,15.04-4.24,22.71-5.43l1.67,1.82c1.09-2.87,3.49-2.85,5.61-.92l18.39.92c.83-3.17,7.12-2.29,7,1,1.6-2.97,4.68-.88,5,2,.9-.47,1.93-.98,2.93-.73,2.16.55,15.62,10.61,18.16,12.84l.91,2.89c2.14-2.07,5.53.14,5,3l2.54-1.1c5.42,2.36,11.35,3.68,17.23,2.51l2.23,1.59c1.59-2.21,2.92-2.55,4-1,1.39-1.25,1.93-.71,1,1-1.32,4.18-5.98,13.63-11,11-3.67,4.22-8.84,6.22-15.5,5.99,2.42,6.37,3.58,12.7,3.5,19.01,4.36,2.72,3.78,7.36,3,12,3.94,1.8,3.76,7.38,2,11,2.38,1.65,3.72,4.65,4,9,1.34-2.44,7.31-2.06,8,1,4.02-2.59,8.51-.02,11,3,3.36-2.33,9.72-1.46,12,2,3.53-.9,9.98-.84,11,3,6.22.45,19.61-1.31,26.38-2.12,97.96-11.78,184.02-64.99,267.13-113.87,2.67-.84-2.91,7.66-3.53,8.47-30.59,39.53-119.65,79.96-166.3,99.7-35.52,15.03-72.57,25.39-109.67,35.84.28,1.82,5.17,1.09,6.48.97,2.86-.26,5.81-1.03,8.51-1.98,4.21,5.77-17.84,18.84-18.98,21.51-.87,2.04,1.4,1.4,2.47,1.48,4.43.35,8.23-.54,12.51-1,.72,4.52-.77,6.88-3.17,10.33-2.68,3.87-13.97,14.2-14.82,16.19-.73,1.7.63,1.32,1.36,1.6,4.33,1.66,9.24.14,13.64,1.9-3.21,10.44-11.31,19.95-19.98,26.49,2.64,3.05,9.34,1.11,7.57,6.54-.59,1.79-6.81,8.84-8.58,10.47-3.1,2.84-13.44,8.02-13.73,11.11-.24,2.54,2.05,4.86-.21,7.96-2.22,3.05-17.07,8.24-19.07,11.42,5.44,14.28-4.62,19.56-16,24,1.1,1.19,1.43,2.19,1,3,6.67,7.54,12.07,18.05,15.96,27.41,6.66,14.15-.45,14.38-21.34.67.35,2.34,1.04,12.44.6,12.95-2.95,3.4-13.92-1.1-17.15-3.45l1.01,10.07c-2.24,6.73-7.23,5.67-14.98-3.18l-8.14,7.03c-6.25,2.62-8.48-1.9-6.68-13.56-12.76,6.98-20.03,6.6-15.91-9.87-2.63,1.19-5.42,2.97-8.35,5.36-9.05,5.26-20.48,10.37-12.76-5.5,5.39-10.16,10.97-20.14,16.73-29.95-1.53-.49-1.39-1.57-1-3-3.2,1.16-12.92-4.84-14.54-7.5-2.11-3.45-2.1-10.9-.46-14.5-2.5-4.22-19.75-9.16-19.76-13.26,0-1.43,1.01-3.18.86-5.25-.36-5.01-8.11-7.54-11.58-10.51-2.54-2.17-12.14-11.38-11.48-14.41l7.94-4.07c-5.41-5.94-16.09-14.76-18.54-22.46-2.64-8.28,8.44-3.46,12.92-6.04,3.08-1.78-3.88-5.83-5.38-7.47-2.53-2.78-15.26-17.14-11.97-20.52,4.29.45,8.08,1.34,12.51.99,1.1-.09,3.31.58,2.47-1.48-1.84-4.53-20.4-12.41-18.98-21.51,2.89.48,5.55,1.63,8.5,1.98,1.21.15,6.25.81,6.48-.98-29.38-9.05-59.49-16.32-88.24-27.26-42.96-16.34-95.86-40.98-134.67-65.33-21.29-13.36-43.63-30.28-58.08-50.92.72-1.39,2.62-.04,3.55.45,10.8,5.63,22.83,14.79,33.77,21.23,69.08,40.69,145.65,80.51,226.3,90.7,8.35,1.05,20.27,2.79,28.37,2.13Z"/>
                <path class="cls-14" d="M562,461c-2.11-.09-3.25-1.6-4.52-2.99-7.79-8.52-15.04-19.07-22.48-28.01,10.68,1.35,15.41,3.21,22.51,11.99,5.22,6.45,6.96,10.68,4.49,19.01Z"/>
                <path class="cls-14" d="M646,416l-12,25c-1.9-7.05-4.6-14.09-7-20.99,5.92.31,13.74-1.25,19-4.01Z"/>
                <path class="cls-14" d="M566,400.01c-.03,1.42-2.84,1.96-4.03,2.45-2.04.84-11.27,4.56-12.51,4.49-2.22-.13-4.59-5.99-9.44-4.97l15.54-3,10.45,1.02Z"/>
              </g>
            </g>
            <g>
              <path class="cls-17" d="M833,404c1.49-.49,1.77-.45,1,1-48.34,24.71-97.54,48.47-145.36,74.15-1.41.75-3,1.15-3.64,2.85-3.37-.24-7.8-2.4-11-3,6.57-4.29,13.2-8.51,20.24-11.99,42.01-20.77,84.86-40.06,127.59-59.24l11.17-3.78Z"/>
              <path class="cls-17" d="M529,478c-4.11.81-8.83,2.66-13,3-44.98-22.32-89.86-45-135-67-1.33-1.32-.8-1.38,1-1l7.72,2.07c46.57,21.47,92.64,41.78,138.22,60.92l1.06,2.01Z"/>
              <path class="cls-16" d="M382,413l-1,1c-5.62-2.74-11.38-5.22-17-8-1.32-1.3-.76-1.62,1-1,6.46-.29,13.05,2.9,17,8Z"/>
              <path class="cls-10" d="M846,398c.3.36.7.64,1,1-4.55,1.39-8.79,3.85-13,6l-1-1c.83-3.95,9.58-8.49,13-6Z"/>
              <path class="cls-26" d="M365,405l-1,1c-3.33-1.65-6.67-3.36-10-5,.37-.45.78-.74,1-1,2.52-2.9,10.59,1.63,10,5Z"/>
              <path d="M411,368c45.4,33.32,89.43,68.99,131,107-4.34,1.11-8.6,2.13-13,3-3.42.16-6.63-1.53-9.67-2.83-45.99-19.6-91.96-41.43-137.33-62.17-5.6-2.56-11.35-5.41-17-8-3.03-1.39-6.23-4.34-10-5,13.37-16.07,25.97-29.46,42-43,4.86,2.2,10.73,6.55,14,11Z"/>
              <path d="M804,356c16.53,13.59,28.29,25.65,42,42-4.63,1.29-8.7,3.98-13,6-53.01,24.95-106.31,49.39-159,75-3.95-.74-8.06-1.13-12-2-3.5-.89-4.37-2.22-2.6-3.98,41.81-38.18,87.4-73.49,132.6-108.02,2.44-3.24,6.98-7.34,10.59-9.77.21-.14.76.24,1.41.77Z"/>
              <path d="M757,324c15.9,8.96,30.76,18.54,45,30,.22.78.33,1.45.05,1.74-2.93,2.98-7.5,6.47-11.05,8.26-45.52,37.05-91.27,73.55-137.24,109.5l-2.76.5c-2.14-.51-5.54-.18-8-1-1.58-.78-1.64-2.23-.9-3.69,31.73-45.38,65.69-89.14,101.9-131.31,3.1-5.08,6.61-9.98,10.53-14.69l2.47.69Z"/>
              <path class="cls-17" d="M508,439c2.58,1.48,2.28,3.31,4,0,1.19.43,2,1.46,2.44,3.08l35.29,26.82c2.78.08,4.2,1.11,4.27,3.1-4.04,1.71-7.93,1.95-12,3-43.78-35.49-87.18-71.55-131-107-1.33-1.41-.77-1.92,1-1,32.63,19.78,63.52,53.34,96,72Z"/>
              <path class="cls-17" d="M792,365c-42.06,35.12-88.97,70.78-129.01,107.49-1.77,1.63-4.54,3.1-.99,4.51-3.76-.83-7.32-2.12-11-3,.65-1.51,1.87-2.39,3.09-3.4,44.6-36.67,91.64-70.74,136.91-106.6,1.4-1.15,1.94-.65,1,1Z"/>
              <path class="cls-17" d="M744,338c-31.94,41.29-70.35,87.72-98.98,130.53-.97,1.44-1.99,2.59-2.02,4.47-.94-.31-1.9-.78-2.82-1.16-.03-2.74-.62-5.2-1.18-7.84,34.77-42.22,69.65-84.44,104-127,1.41-1.33,1.92-.77,1,1Z"/>
              <path class="cls-14" d="M523,430c2.15-.41,4.9-.35,6.86.68,3.01,1.59,27.89,33.85,28.09,36.38l-.94,2.93c-1.54,1.73-1.05,1.18-3,2l-5.16-1.33-35.82-27.19c-1.32-1.18-1.15-2.88-1.02-4.47.49-5.79,6.1-7.86,11-9Z"/>
              <path class="cls-8" d="M535,430l3.86,1.93c8.12,9.76,15.84,19.45,23.14,29.07-.67,2.24-3.4,7.2-5,9-.09-1.87-.97-3.05-2.01-4.49-4.05-5.6-23.18-31.36-26.93-34.08-1.75-1.27-2.82-1.81-5.07-1.43,6.09-1.41,6.35-.71,12,0Z"/>
              <path class="cls-8" d="M637,453c-.95-3.93-1.95-8.09-3-12,.59-8.45,5.8-19.22,12-25,3.69-1.94,9.31-6.99,11-11,.28-.87.62-.86,1,0-7.25,15.85-14.44,31.84-21,48Z"/>
              <g>
                <path class="cls-14" d="M872,414c-2,1.16-3.87,2.08-6,3-1.9-1.09-3.84-2.25-5.23-3.97-21.38-26.47-38.99-47.18-66.56-67.92-143.46-107.91-348.94-78.13-453.22,68.08l-4.99,3.81c-4.12-1.44-4.04-2.06-7-4,.19-1.15.41-2.28.77-3.37s.72-2.13,1.34-2.97c123.48-167.04,368.02-186.23,510.95-33.49,7.6,8.12,26.44,28.27,29.25,37.44.34,1.1.53,2.24.69,3.39Z"/>
                <path d="M872,414c-70.34-104.84-199.21-158.53-324.21-138.71-88.53,14.03-167.33,65.05-218.79,137.71-1.39-.91-6.04-.62-4.53-3.98,3.07-6.8,17.98-24.07,23.55-30.49,134.02-154.18,378.87-151.32,509.95,5,4.29,5.12,17.32,20.46,19.55,25.49,1.28,2.88-3.37,3.74-5.53,4.98Z"/>
                <path class="cls-13" d="M866,417c-1.02.44-3.12,2.11-4.02,1.57-4.47-6.95-9.73-13.24-14.98-19.57-1.2.15-1.55.16-1-1l-4.07-1.72c-11.04-13.06-23.03-25.26-36.17-36.22l-1.76-4.06c-2.51,1.15-2.95.61-2-2-8.04-3.64-15.7-8.4-22.98-14.27-8.32-4.41-15.66-9.65-22.02-15.73-2.7.9-3.7.23-3-2-8.13-1.94-16.09-5.15-23.89-9.62-8.51-2.83-16.21-6.62-23.11-11.38-2.04,1.81-3.04,1.48-3-1-7.43-.23-14.89-1.77-22.39-4.62-8.84-1.37-17.04-3.83-24.61-7.38-3.31,1.43-4.98,1.09-5-1-8.52.89-17.31.52-26.36-1.09-8.35.25-16.23-.72-23.64-2.91-.91,1.93-2.08,1.93-3,0-8.45,2.23-17.3,3.28-26.57,3.17-8,1.5-15.81,1.78-23.43.83-.45,2.75-1.26,3.25-3,1-7.9,3.61-16.47,6.06-25.71,7.36-7.8,2.78-15.56,4.33-23.29,4.64.71,2.47-.62,3.14-4,2-6.9,4.78-14.6,8.58-23.11,11.39-7.76,4.39-15.72,7.6-23.89,9.61,1.24,1.48.68,2.04-1,1-6.58,6.2-14.1,11.58-22.58,16.14-7.42,6.03-15.23,10.98-23.42,14.86,1.14,2.64.59,3.27-2,2l-2.33,4.63c-12.67,11.01-24.26,23.17-35.07,36l-4.6,2.37c1.41,1.24.83,1.47-1,1-4.86,5.89-9.59,12.04-14.5,17.73-1.28-.31-2.29-1.3-3.5-1.73,50.39-76.41,138.48-127.12,229.51-136.99,117.17-12.7,234.03,40.39,300.49,136.99Z"/>
                <path d="M754,322c.38.72.62,1.35.41,1.67-3.07,4.59-7.42,9.85-11.41,13.33-23.29,30.35-46.72,60.79-71.15,90.26-10.5,12.66-20.98,25.31-32.85,36.74-.77-3.6-1.14-7.43-2-11,3.31-17.14,11.3-33.52,21-48-1.18-.53-.84-1.53,1-3,13.55-35.03,28.84-68.7,45.87-101h2.13c16.47,5.81,31.68,12.65,47,21Z"/>
                <path d="M511,409c-8.69,7.48-7.09,20.47-3,30-7.58-1.79-14.68-5.7-21.31-11.74-24.86-20.25-49.76-40.33-74.69-60.26-2.3-1.25-12.85-8.33-13.56-10.34-.23-.65.08-1.22.56-1.66,14.32-11.78,29.83-21.93,46-31,22.86,26.5,45.14,54.1,66.84,82.82l-.84,2.18Z"/>
                <path d="M657,288c16.22,2.86,31.43,6.73,47,12l1.12.75c-16.5,34.35-33.34,68.53-50.51,102.54l-2.61,1.71c-8.38,1.93-14.12.41-22-3l-1.54-1.57c7.25-37.16,15.37-75.26,24.46-111.95l4.08-.49Z"/>
                <path d="M493,302l2.81-.6c15.95,28.44,29.82,57.7,41.61,87.77l-1.42,1.83c-3.86,3.97-.58,8.55-1,8.99-.69.73-14.41,3.44-19,6.01l-1.93.72c-23.79-27.35-46.48-55.25-68.07-83.72,15.03-8.3,30.84-15.2,47-21Z"/>
                <path d="M652,287c2.1.26,2.11,1.5.03,3.72-7.83,35.97-16.1,71.82-24.8,107.56l-2.23.72c-7.67-4.41-14.43-11.37-22-15l-2.02-1.84c-.41-32.41-.57-65.53-.48-97.93l1.5-1.22c17.38.04,32.85,1.33,50,4Z"/>
                <path d="M546,288l1.34-.12c7.55,30.33,14.66,60.83,21.34,91.5l-1.68,1.63c-5.47.48-20.02,3.86-25,6l-2.09.31c-14.63-28.49-29.23-56.99-43.81-85.48l.9-1.83c15.89-5.4,32.48-9.08,49-12Z"/>
                <path d="M599,283c.85-.18,1.5,0,1.5.71.04,32.12-.04,64.96-.49,97.09l-2.01,1.2c-2.66-.67-4.29-.82-7-1l-20.4-.96c-8.44-29.67-16-61.11-22.85-91.48-.13-.58.57-1.14,1.25-1.56,16.62-2.67,33.19-3.88,50-4Z"/>
                <path class="cls-8" d="M707,301c-2.1,1.08-2.92,3.63-3.86,5.65-14.79,31.69-29.63,63.61-44.14,95.35-1,1.84-2,2.51-3,2-1.65.76-2.5.65-4,1l52-105c1.02.34,1.97.64,3,1Z"/>
                <path class="cls-8" d="M657,288l-4.01,2.49-22.99,111.51c-2.09-.9-3.3-2.03-5-3l27-112c1.95.3,3.43.72,5,1Z"/>
                <path class="cls-2" d="M549,287l22.88,92.42,19.12,1.58c-6.81-.45-17.27-.59-24,0l-21-93c.49-.09,1.5-.76,3-1Z"/>
                <path class="cls-2" d="M516,406c-1.05.59-4.43,2.51-5,3l-66-85c.35-.2.63-.8,1-1l70,83Z"/>
                <path class="cls-19" d="M602,283l1,101c-1.39-.67-3.57-1.64-5-2l1-99c1,0,2,0,3,0Z"/>
                <path class="cls-2" d="M497,300l45,87c-.71.3-5.47,3.45-6,4-.52-3.58-2.33-7.39-3.82-10.68-10.7-23.61-21.95-47.38-33.32-70.68-1.26-2.58-2.59-7.4-5.86-7.64,1.12-.4,2.46-1.48,4-2Z"/>
                <path class="cls-22" d="M658,405h-1l-1-1c.74-.34,1.71-1.91,3-2-.37.81-.52,1.95-1,3Z"/>
                <path class="cls-16" d="M757,324c-2.27-.09-2.67,1.39-3.81,2.68-3.12,3.54-6.3,7.58-9.19,11.32l-1-1c3.76-4.65,8.02-9.84,11-15,1.22.66,2.1,1.49,3,2Z"/>
                <path class="cls-5" d="M412,367l-1,1c-4.59-3.71-9.55-7.1-14-11,.56-.48,1.1-1.26,2-2,2.31,5.24,9.61,7.4,13,12Z"/>
                <path class="cls-1" d="M804,356c-4.25,2.13-8.33,5.94-12,9l-1-1c3.78-3,7.77-6.38,11-10,.92.74,1.46,1.56,2,2Z"/>
              </g>
            </g>
            <g>
              <path class="cls-14" d="M566,657l.57,1.22c-71.79,47.06-143.94,93.66-216.45,139.8l-2.12-1.02c-2.03-1.06-4.05-2.26-5.54-4.03-15.56-18.44-36.23-56.01-43.13-79.1-.67-2.23-.55-4.58-.32-6.87l252-72c2.44,4.12-.46,9.29,2.11,13.39,1.65,2.64,9.8,5.89,12.89,8.61Z"/>
              <path class="cls-14" d="M902,707c.21,2.35.29,4.76-.4,7.04-7.02,23.14-27.42,60.2-42.96,78.77-1.52,1.82-3.58,3.07-5.65,4.19-.43.56-1.33,1.52-1.67,1.31-71.26-44.53-144.4-91.58-214.07-138.42l-.26-.89c1.12-4.7,12.43-6.49,14.49-11.01,1.82-4-.95-9.06,1.51-12.99l249,72Z"/>
              <path d="M271,575c.83,2.34,1.62,4.77,1.65,7.27.33,29.56.67,54.92,6.57,84.25,46.88,233.03,317.7,340.2,511.52,204.23,92.44-64.85,149.18-181.2,138.27-293.26l1-2.5c1.84-1.82,3.37-4.83,5.99-6,7.44,72.51-9.55,146.27-47.18,208.31-87.66,144.53-271.23,202.5-426.48,132.87-130.66-58.6-213.37-197.33-197.31-341.18,2.61,1.03,4.2,4.4,5.99,6Z"/>
              <path d="M567,660l-207,152c-4.28-4.87-8.06-9.87-12-15l218-140c.47.42,1.53.42,1.66,1.46.08.66-.6,1.17-.66,1.54Z"/>
              <path d="M637,659l216,138c-3.58,4.68-7.13,9.55-11,14l-204-149c-.62-1.62-1.52-.83-1-3Z"/>
              <g>
                <path d="M278,582c.48.64,2.41,1.29,3.05,2.42,2.82,4.95-.21,12.8-.14,18.08.46,35.11,6.66,71.31,18.09,104.5,11.44,33.23,27.68,62.24,49,90,5.7,2.45,10.72,8.94,12,15,.91.26,1.8.55,2.63.96s1.56.81,2.15,1.4c17.09,16.86,32.27,31.6,51,46.01,2.9,2.23,5.83,4.39,8.96,6.29l.24,2.34,2.79-1.37c6.4.85,12.95.77,19.38.5l1.83,1.87c12.28-5.76,27.59-9.96,41.36-8.58,14.39,3.77,25.22,5.67,40.27,3.63,20.89-4.99,40.65-8.16,61.09.19,5.21,1.23,10.59.95,15.83-.01,21.57-7.11,41.4-5.97,63.14-.1,14.77,1.99,25.36-.21,39.38-3.77,14.35-1.76,30.02,2.85,42.92,8.64l1.84-1.89c1.58-.22,17.5-.7,18.39-.45,1.07.29,1.94.57,2.77,1.34l-.28-1.33c21.67-15.87,43.7-33.97,62.11-54.97l4.17-1.7c.89-5.68,5.65-11.97,11-14,21.17-27.66,37.58-56.97,49-90,13.64-39.44,19.01-80.54,16.98-122.29.22-.81,3.94-2.62,5.02-3.71.59.98,1.14,1.97,1.55,3.02,3.89,9.87.67,43.32-.73,55.61-26.25,229.38-277.67,359.08-481.13,247.91-105.44-57.61-176.65-178.59-168.08-299.51.07-1.02.44-2.02.85-3.03s.96-2.02,1.55-2.99Z"/>
                <g>
                  <path d="M278,582c-8.78,116.51,50.76,230.82,148.48,293.02,110.4,70.28,252.47,67.58,359.84-7.21,91.72-63.89,146.14-174.34,137.69-286.81,2-2.04,3.98-3.99,6-6,1.44,2.18,1.88,5.88,2.04,8.46,6.98,112.76-48.85,224.38-140.15,288.93-148.2,104.78-353.13,68.95-458.71-77.07-46.41-64.19-66.77-141.08-62.18-220.32,3.72,3.32,3.48,2.26,7,7Z"/>
                  <path class="cls-14" d="M763,875c1.82-.49,2.49-.16,2,1-2.01,1.31-16.61,9.61-17.61,9.73-8.41.97-22.98-5.25-32.84-5.77-16.67-.89-29.92,6.28-47.09,5.09-9.12-.63-17.86-4.49-26.92-5.08-16.58-1.08-30.33,6.55-45.91,4.92-6.93-.72-14-4.22-21.14-4.86-16.42-1.48-25.56,4.01-39.94,5.03-17.41,1.24-31.04-6.2-48.08-5.08-10.43.68-21.85,6.52-32.01,5.08-3.7-.52-13.41-6.9-17.45-9.05-.97-1.09-.31-1.43,2-1,20.92,1.55,36.68-8.45,55.37-6.87,11.06.94,21,5.56,32.96,5.5,13.71-.08,26.53-6.35,40.21-5.66,11.43.58,22.32,6.13,33.96,6.13s21.5-5.24,32.02-6.08c14.63-1.16,28.23,5.69,42.82,5.61,18.78-.1,29.01-8.15,49.7-4.16,14.51,2.8,21.8,6.71,37.96,5.54Z"/>
                  <path class="cls-14" d="M737,890.01c-.11,1.51-1.56,1.51-2.49,2-12.79,6.71-15.64,5.38-28.88,7.12-10.36,1.36-19.45,5.31-30.13,5.31-11.44,0-20.95-4.72-31.95-5.48-18.32-1.27-32.42,6.77-49.92,4.92-7.64-.81-14.82-4.34-23.08-4.92-19.07-1.35-33.63,7.17-52.03,5.02-7.55-.88-15.3-3.8-23.14-4.85-4.18-.56-8.45.33-12.63-.37-1.88-.31-18.78-7.24-18.75-8.26,5.99-.6,11.88-3.38,17.76-4.25,17.62-2.61,32.68,5.84,50.79,4.79,11.14-.65,21.9-6.1,32.96-6.11,10.88,0,22.12,5.77,32.97,6.11,14.01.44,26.25-7.14,39.91-5.92,9.36.84,19.02,5.33,29.08,5.92,17.76,1.03,32.91-7.26,49.94-4.93,6.45.88,12.91,4.4,19.6,3.9Z"/>
                  <path class="cls-14" d="M532,910c9.66-.58,17.52-4.33,26.46-5.04,14.07-1.11,23.82,4.25,36.99,5.08,17.48,1.11,30.89-6.24,47.09-5.09,7.96.57,15.2,4.16,23.09,4.91,4.6.44,9.27-.05,13.88.13,1.21.05,3.72-.75,3.48.99-52.13,13.11-107.76,14.05-159.99,1.01l-.13-.91,9.13-1.09Z"/>
                  <path class="cls-4" d="M532,910l-9,2c-1.93-.37-4.12-.52-6-1-.87-.28-.86-.62,0-1,4.56.29,10.44.27,15,0Z"/>
                  <path class="cls-9" d="M438,875l-2,1c-1.36-.72-3.32-.66-3-1.99,2.07-.95,4.27.94,5,.99Z"/>
                  <path class="cls-25" d="M763,875c.56-.04,2.42-1.76,4-.99-.01,1.17-1.23,1.49-2,1.99l-2-1Z"/>
                  <path class="cls-11" d="M517,910v1c-.86-.22-4.02-1.09-4.01-1.5.96-1.82,3.65.48,4.01.5Z"/>
                </g>
              </g>
              <g>
                <path class="cls-14" d="M567,660c-1.97,12.19-15.1,26.67-17.99,39,9.97-1.19,17.14-8.72,24.98-13.99l-1.99,17c6.87,1.02,12.48-2.64,17.99-5.99.8,2.97-3.14,16.24.53,17,1.72.36,9.29-7.5,11.12-8.93,2.35-.41,12.75,14.56,13.45,5.43.31-3.96-2.14-9.09-1.08-13.51,5.51,3.36,11.12,7.01,17.99,6l-1.99-17c7.81,5.25,15.56,12.08,24.98,13.99,1.9-1.96-15.07-32.01-16.99-37l.85-.63c68.23,48.4,136.01,97.49,203.33,147.28l-.18,2.35c-12.24,14.09-27.95,29.28-42.53,40.97-4.75,3.81-18.79,15.06-23.47,17.03-2.55-1.71-5.11-3.49-7.12-5.84-15.61-18.21-31.2-36.59-46.58-54.99-.96-1.15-1.69-2.49-2.41-3.87s-1.33-2.84-1.89-4.31c.13-.44.22-.87.16-1.28-.07-.53-5.46-7.13-6.34-8.15-20.69-24.02-39.47-46.63-56.28-73.25-4.98-6.4-11.12-11.66-17.67-15.81l26.83,47.24c8.08,15.92,18.5,29.58,31.25,40.98l1.04,3.26,5.77,4.53c17.07,23.47,34.12,46.91,51.14,70.32l-.9,2.16c-10.88-.86-21.26-6.3-32.46-7.04-13.67-.9-21.1,3.95-33.05,5.02-18.72,1.68-34.53-6.97-53.03-6.02-12.52.64-24.49,6.59-37.01,6.08-9.08-.37-17.17-5.03-26.07-5.92-21.65-2.17-38.03,7.74-58.86,5.86-10.37-.93-18.48-5.4-30.01-4.97-11.79.44-22.71,6-33.51,6.98.32-1.26.67-2.5,1.14-3.7s.96-2.32,1.66-3.32c15.46-22.12,31.35-44.01,47.52-65.61l6.68-6.37-.31-2.64c13.22-10.72,22.12-26.2,30.58-41.1,8.14-15.55,16.75-30.8,25.84-45.75-10.56,6.39-18.76,16.35-25.74,26.86-15.04,24.9-33.5,47.38-53.05,69.34l-.33,2.29,1.09,1.81-55.85,66.45-3.24.74c-3.52-1.36-15.07-10.68-18.9-13.6-16.34-12.49-32.54-27.97-46.1-43.4l-.62-2.03c68.34-50.46,136.9-100.63,205.69-150.51l1.93.54Z"/>
                <g>
                  <path d="M506,791c-.18.22-.04,1.29-.56,1.92-19.9,24.39-37.22,52.06-56.44,77.08-4.94.45-19.88.6-24-1l58-69c.65-1.06,1.41-2.13,2.55-2.7,3.3-1.65,13.24-5.58,16.75-6.6,1.22-.35,2.51-.05,3.7.3Z"/>
                  <path d="M718,800c19.31,22.99,39.66,45.25,58,69-3.97,1.67-18.11,1.39-23,1l-56-77c6.49-.41,15.94,2.92,21,7Z"/>
                  <path d="M676,835.99c-3.62,2.65-18.87-9.74-22.01-12.48-25.85-22.48-35.56-53.52-53.49-81.49-15.6,20.5-22.91,46.61-39.53,66.45-5.62,6.71-26.33,27.13-34.45,27.56-1.55.08-1.76.13-1.53-1.54.52-3.87,24.03-31.97,28.43-38.58,17.31-26,28.7-55.72,47.08-80.89,2.68,2.15,4.44,4.85,6.3,7.67,15.31,23.12,26.05,51.57,41.78,75.22,8.69,13.07,20.52,23.89,27.42,38.07Z"/>
                  <path d="M654,848.99c-25.62-8.71-42.29-33.48-53.51-57-1.99-.39-1.25.52-1.73,1.29-4.24,6.88-7.37,14.85-12.13,21.84-9.53,13.99-24.18,28.89-40.63,33.86,21.17-29.15,38.85-60.53,54.5-92.97,15.28,32.44,32.27,64.02,53.5,92.97Z"/>
                  <path d="M704.99,822c-13.07-4.05-26.19-6.43-36.89-15.6-12.7-10.88-26.99-36.6-33.96-52.04-2.56-5.68-17.57-43.74-15.14-46.35,20.2,5.64,27.51,31.89,36.82,48.67,14.44,26,29.05,39.83,47.17,61.83.93,1.13,2.43,1.61,1.99,3.5Z"/>
                  <path d="M581.99,708.01c-7.82,31.04-21.85,67.05-43.02,91.46-12.23,14.11-25.58,17.52-42.96,22.53-.71-.72,3.24-5.55,4.02-6.47,17.83-21.37,31.18-34.59,45.15-59.85,9.2-16.64,16.53-42.66,36.82-47.67Z"/>
                  <path d="M697,793c-9.31-6.65-15.41-14.37-21.81-23.69-15.12-22.03-26.5-47.43-41.18-69.83-.3-1.38.06-1.88,1.47-1.47,2.6.75,9.61,6.03,11.99,8.01,14.01,11.71,25.6,34.72,37.13,49.87,9.89,13,21.82,24.43,31.81,37.19.5.64,6.28,7.66,1.58,6.92-7.4-1.49-14.15-3.94-21-7Z"/>
                  <path d="M483,800l-2.51-2.01c10.72-13.23,22.51-25.59,32.9-39.1,12.04-15.65,24.98-41.04,39.13-52.87,2.38-1.99,9.4-7.26,11.99-8.01,1.41-.41,1.77.09,1.47,1.47-17.52,25.39-30.11,58.6-50.02,81.99-3.06,3.59-7.08,6.08-9.97,9.53-7.44,4.08-14.69,7.09-23,9Z"/>
                  <path d="M622.99,853c-8.67-3.42-16.02-9.41-22.49-15.98-1.51,3.11-21.01,17.41-22.49,15.98l12.51-18.98c3.57-7.53,8.15-14.63,9.49-23.01l9.82,21.66,13.16,20.33Z"/>
                </g>
              </g>
            </g>
          </g>
        </g>
      </g>
      <g>
        <path class="cls-23" d="M967.14,200.87c.1.17,2.06.78,2.88,1.57,1.55,1.5,6.34,7.09,7.68,7.45,3.7.98,4.7-5.38,6.91-5.85,1.37-.29,5.43,4.01,5.43,5.46,0,1.75-15.46,16.59-17.67,19.43-11.6-4.78,1.14-9.97.57-13.29-.39-2.3-9.84-7.9-11.43-10.62-3.34,4.92-15.85,14.7-18.06,18.99-.75,1.45-.22,1.47.5,2.52.97,1.42,13.72,13.22,14.7,13.39,2.43.43,5.55-6.66,7.86-7.9,5,5.2,6.93,4.03,2.01,10l-8.94,8.95-40.55-37.47c6.67-10.74,9.38,3.86,15.05-.94l38.46-41.58c1.92-4.16-4.69-5.38-6.51-8.48,1.22-.87,3.48-4.23,4.62-4.43,2.67-.47,34.99,32.71,40.12,36.41l-11.26,13.5c-11.64-7.61,1.06-9.7.43-13.35-.45-2.59-13.38-11.48-15.43-14.62-3.98,5.38-13.17,12.34-16.55,17.43-.67,1.02-1.52,2.21-.81,3.43Z"/>
        <path class="cls-23" d="M941.01,138.99c1.79-.09,1.61-3.57,3.61-3.92,1.12-.19,5.42,2.82,5.42,4.4,0,1.05-10.61,16.68-11.57,17.53-2.05,1.83-7.5-2.12-7.53-2.56-.29-4.02,6.87-4.72,3.54-13.43-5.06-13.24-25.66-12.32-20.99,5.01,3.61,13.42,16.28,23.81,7.55,39.51-11.25,20.24-36.84,11.33-43.54-7.53-1.72,7.44-9.15,1.3-8.04-1.95.44-1.27,13.83-19.02,15.04-19.01.68,1.39,5.39,3.75,5.45,4.44.19,2.2-6.66,4.78-4.26,14.33,3.37,13.37,20.72,15.85,23.1,3.44s-17.56-26.93-8.33-46.29,34.86-11.3,40.55,6.03Z"/>
      </g>
    </g>
    <path class="cls-21" d="M557,1c-.66,1.58-4.34,1.58-5,0,1.65-.12,3.35.1,5,0Z"/>
  </g>
</svg>